<?xml version="1.0" encoding="UTF-8"?>
<svg xmlns="http://www.w3.org/2000/svg" viewBox="0 0 256 256" fill="none" stroke="#9a8561" stroke-linecap="round" stroke-linejoin="round">
  <path d="M 155.5 110.4 C 137.9 97.8 120.2 121.3 128.6 146.5 C 135.4 158.2 151.3 154.9 158 132.2 C 148 127.2 148 114.6 155.5 110.4" stroke-width="5" />
  <path d="M 88 147 Q 88 147 89.7 151.2 Q 91.4 155.4 95.9 155.7 Q 100.4 156 96.9 158.9 Q 93.4 161.8 94.5 166.1 Q 95.6 170.5 91.8 168.1 Q 88 165.7 84.2 168.1 Q 80.4 170.5 81.5 166.1 Q 82.6 161.8 79.1 158.9 Q 75.6 156 80.1 155.7 Z" stroke-width="5" />
  <path d="M 168 141 Q 168 141 169.4 144.5 Q 170.8 148.1 174.7 148.3 Q 178.5 148.6 175.5 151.0 Q 172.6 153.5 173.5 157.2 Q 174.5 160.9 171.2 158.9 Q 168 156.8 164.8 158.9 Q 161.5 160.9 162.5 157.2 Q 163.4 153.5 160.5 151.0 Q 157.5 148.6 161.3 148.3 Z" stroke-width="5" />
</svg>
