<?xml version="1.0" encoding="UTF-8"?>
<svg xmlns="http://www.w3.org/2000/svg" viewBox="0 0 256 256" fill="none" stroke="#9a8561" stroke-linecap="round" stroke-linejoin="round">
  <path d="M 154.4 111.2 C 137.6 99.2 120.8 121.6 128.8 145.6 C 135.2 156.8 150.4 153.6 156.8 132 C 147.2 127.2 147.2 115.2 154.4 111.2" stroke-width="5" />
  <path d="M 90 142 Q 90 142 91.8 146.5 Q 93.6 151 98.5 151.3 Q 103.3 151.7 99.6 154.8 Q 95.9 157.9 97.0 162.6 Q 98.2 167.3 94.1 164.7 Q 90 162.2 85.9 164.7 Q 81.8 167.3 83.0 162.6 Q 84.1 157.9 80.4 154.8 Q 76.7 151.7 81.5 151.3 Z" stroke-width="5" />
  <path d="M 166 140 Q 166 140 167.6 143.9 Q 169.1 147.7 173.3 148.0 Q 177.4 148.3 174.2 151.0 Q 171 153.6 172.0 157.7 Q 173.1 161.7 169.5 159.5 Q 166 157.3 162.5 159.5 Q 158.9 161.7 160.0 157.7 Q 161 153.6 157.8 151.0 Q 154.6 148.3 158.7 148.0 Z" stroke-width="5" />
</svg>
