<?xml version="1.0" encoding="UTF-8"?>
<svg xmlns="http://www.w3.org/2000/svg" viewBox="0 0 256 256" fill="none" stroke="#9a8561" stroke-linecap="round" stroke-linejoin="round">
  <path d="M 153.3 112 C 137.3 100.6 121.4 121.9 129 144.7 C 135 155.4 149.5 152.3 155.6 131.8 C 146.4 127.2 146.4 115.8 153.3 112" stroke-width="5" />
  <path d="M 92 137 Q 92 137 93.9 141.8 Q 95.9 146.7 101.1 147.0 Q 106.3 147.4 102.3 150.7 Q 98.3 154 99.5 159.1 Q 100.8 164.1 96.4 161.4 Q 92 158.6 87.6 161.4 Q 83.2 164.1 84.5 159.1 Q 85.7 154 81.7 150.7 Q 77.7 147.4 82.9 147.0 Z" stroke-width="5" />
  <path d="M 164 139 Q 164 139 165.7 143.2 Q 167.4 147.4 171.9 147.7 Q 176.4 148 172.9 150.9 Q 169.4 153.8 170.5 158.1 Q 171.6 162.5 167.8 160.1 Q 164 157.7 160.2 160.1 Q 156.4 162.5 157.5 158.1 Q 158.6 153.8 155.1 150.9 Q 151.6 148 156.1 147.7 Z" stroke-width="5" />
</svg>
