<svg viewBox="0 0 256 256" xmlns="http://www.w3.org/2000/svg" role="img" aria-label="moon">
  <path d="M 207 11 L 178 1 L 133 0 L 119 4 L 103 11 L 69 35 L 35 71 L 16 104 L 6 133 L 0 158 L 0 180 L 6 203 L 23 223 L 44 235 L 72 241 L 102 242 L 166 232 L 186 224 L 213 205 L 229 185 L 241 166 L 254 134 L 253 81 L 248 68 L 227 40 L 192 6" fill="none" stroke="currentColor" stroke-width="8" stroke-linecap="round" stroke-linejoin="round"/>
  <path d="M 138 39 L 118 41 L 101 51 L 82 75 L 80 88 L 85 96 L 110 103 L 131 95 L 147 79 L 152 36" fill="none" stroke="currentColor" stroke-width="8" stroke-linecap="round" stroke-linejoin="round"/>
</svg>
