<svg viewBox="0 0 256 256" xmlns="http://www.w3.org/2000/svg" role="img" aria-label="moon">
  <path d="M 96 0 L 64 0 L 57 4 L 38 22 L 19 48 L 3 86 L 0 105 L 2 146 L 9 161 L 25 178 L 46 190 L 76 200 L 128 208 L 161 208 L 178 204 L 203 190 L 220 176 L 235 160 L 247 141 L 255 112 L 255 92 L 250 82 L 229 60 L 189 40 L 130 23 L 73 14 L 67 10" fill="none" stroke="currentColor" stroke-width="8" stroke-linecap="round" stroke-linejoin="round"/>
  <path d="M 102 49 L 82 57 L 80 67 L 100 75 L 113 76 L 129 68 L 132 59 L 122 51 L 113 48" fill="none" stroke="currentColor" stroke-width="8" stroke-linecap="round" stroke-linejoin="round"/>
  <path d="M 78 108 L 63 108 L 58 113 L 57 128 L 60 133 L 78 139 L 106 139 L 119 134 L 123 129 L 124 121 L 116 112 L 101 109 L 81 112" fill="none" stroke="currentColor" stroke-width="8" stroke-linecap="round" stroke-linejoin="round"/>
  <path d="M 183 124 L 167 125 L 162 130 L 159 139 L 169 143 L 224 147 L 225 136 L 210 130" fill="none" stroke="currentColor" stroke-width="8" stroke-linecap="round" stroke-linejoin="round"/>
  <path d="M 193 65 L 188 66 L 185 70 L 186 89 L 190 96 L 199 102 L 209 103 L 217 100 L 218 95 L 208 87 L 194 84" fill="none" stroke="currentColor" stroke-width="8" stroke-linecap="round" stroke-linejoin="round"/>
</svg>
