<svg viewBox="0 0 256 256" xmlns="http://www.w3.org/2000/svg" role="img" aria-label="windmill">
  <path d="M 74 255 L 72 234 L 79 191 L 94 117 L 98 113 L 135 115 L 140 123 L 158 214 L 158 240 L 158 244 L 152 247 L 103 255 L 80 255 L 75 253 L 73 247" fill="none" stroke="currentColor" stroke-width="8" stroke-linecap="round" stroke-linejoin="round"/>
  <path d="M 93 71 L 86 78 L 85 96 L 88 104 L 94 110 L 120 110 L 136 98 L 140 91 L 141 74 L 138 68 L 124 58 L 99 58 L 83 84" fill="none" stroke="currentColor" stroke-width="8" stroke-linecap="round" stroke-linejoin="round"/>
  <path d="M 109 150 L 97 131 L 49 80 L 21 56 L 11 54 L 8 56 L 7 64 L 7 103 L 16 126 L 46 142 L 79 148 L 103 148 L 45 152 L 16 159 L 3 171 L 0 180 L 4 202 L 16 210 L 31 210 L 62 196 L 82 183 L 116 148 L 114 156 L 129 168 L 174 192 L 208 202 L 206 187 L 188 167 L 167 158 L 128 154 L 194 117 L 222 93 L 232 78 L 213 84 L 128 137 L 102 146" fill="none" stroke="currentColor" stroke-width="8" stroke-linecap="round" stroke-linejoin="round"/>
  <path d="M 119 161 L 103 170 L 85 195 L 77 214 L 85 215 L 99 203 L 123 166 L 128 147" fill="none" stroke="currentColor" stroke-width="8" stroke-linecap="round" stroke-linejoin="round"/>
  <path d="M 109 144 L 107 40 L 108 16 L 112 0 L 118 13 L 124 55 L 125 108 L 122 122" fill="none" stroke="currentColor" stroke-width="8" stroke-linecap="round" stroke-linejoin="round"/>
</svg>
