<svg viewBox="0 0 256 256" xmlns="http://www.w3.org/2000/svg" role="img" aria-label="windmill">
  <path d="M 67 62 L 60 139 L 44 254 L 105 251 L 147 240 L 148 234 L 126 193 L 72 57" fill="none" stroke="currentColor" stroke-width="8" stroke-linecap="round" stroke-linejoin="round"/>
  <path d="M 77 52 L 59 53 L 11 34 L 1 26 L 1 19 L 33 7 L 69 0 L 71 7 L 60 45 L 60 56 L 63 59" fill="none" stroke="currentColor" stroke-width="8" stroke-linecap="round" stroke-linejoin="round"/>
  <path d="M 62 50 L 80 43 L 120 18 L 131 14 L 135 18 L 150 78 L 69 46" fill="none" stroke="currentColor" stroke-width="8" stroke-linecap="round" stroke-linejoin="round"/>
  <path d="M 65 52 L 38 77 L 25 101 L 24 107 L 30 111 L 47 113 L 49 110 L 54 73 L 60 56 L 67 49" fill="none" stroke="currentColor" stroke-width="8" stroke-linecap="round" stroke-linejoin="round"/>
  <path d="M 69 46 L 72 50 L 129 73 L 132 77 L 127 85 L 76 130 L 72 131 L 70 114" fill="none" stroke="currentColor" stroke-width="8" stroke-linecap="round" stroke-linejoin="round"/>
</svg>
