<svg viewBox="0 0 256 256" xmlns="http://www.w3.org/2000/svg" role="img" aria-label="windmill">
  <path d="M 35 153 L 32 252 L 44 255 L 97 252 L 100 249 L 100 229 L 94 173 L 95 145" fill="none" stroke="currentColor" stroke-width="8" stroke-linecap="round" stroke-linejoin="round"/>
  <path d="M 29 157 L 66 129" fill="none" stroke="currentColor" stroke-width="8" stroke-linecap="round" stroke-linejoin="round"/>
  <path d="M 94 155 L 91 146 L 83 139 L 61 132" fill="none" stroke="currentColor" stroke-width="8" stroke-linecap="round" stroke-linejoin="round"/>
  <path d="M 0 89 L 29 130 L 49 151 L 53 150 L 53 139 L 40 88 L 29 86 L 3 91" fill="none" stroke="currentColor" stroke-width="8" stroke-linecap="round" stroke-linejoin="round"/>
  <path d="M 165 49 L 148 36 L 113 0" fill="none" stroke="currentColor" stroke-width="8" stroke-linecap="round" stroke-linejoin="round"/>
  <path d="M 55 159 L 60 129 L 90 77 L 120 88 L 122 92 L 119 98 L 93 135 L 61 159 L 43 160 L 26 169 L 15 183 L 3 210 L 39 213 L 48 182 L 60 161 L 92 210 L 103 212 L 113 198 L 115 192 L 113 190 L 71 171" fill="none" stroke="currentColor" stroke-width="8" stroke-linecap="round" stroke-linejoin="round"/>
</svg>
