<svg viewBox="0 0 256 256" xmlns="http://www.w3.org/2000/svg" role="img" aria-label="windmill">
  <path d="M 68 231 L 58 113 L 58 87 L 66 70 L 80 55 L 99 44 L 113 43 L 157 63 L 178 79 L 185 91 L 197 121 L 202 163 L 202 251 L 197 238" fill="none" stroke="currentColor" stroke-width="8" stroke-linecap="round" stroke-linejoin="round"/>
  <path d="M 57 106 L 127 105 L 168 99 L 168 97" fill="none" stroke="currentColor" stroke-width="8" stroke-linecap="round" stroke-linejoin="round"/>
  <path d="M 68 75 L 83 102 L 84 97" fill="none" stroke="currentColor" stroke-width="8" stroke-linecap="round" stroke-linejoin="round"/>
  <path d="M 95 57 L 115 87 L 121 69" fill="none" stroke="currentColor" stroke-width="8" stroke-linecap="round" stroke-linejoin="round"/>
  <path d="M 134 61 L 148 87 L 150 86" fill="none" stroke="currentColor" stroke-width="8" stroke-linecap="round" stroke-linejoin="round"/>
  <path d="M 155 76 L 153 93" fill="none" stroke="currentColor" stroke-width="8" stroke-linecap="round" stroke-linejoin="round"/>
  <path d="M 115 232 L 114 209 L 121 187 L 128 176 L 139 175 L 143 179 L 143 215" fill="none" stroke="currentColor" stroke-width="8" stroke-linecap="round" stroke-linejoin="round"/>
  <path d="M 144 206 L 144 225 L 141 229 L 76 231 L 202 238 L 206 238 L 207 235" fill="none" stroke="currentColor" stroke-width="8" stroke-linecap="round" stroke-linejoin="round"/>
  <path d="M 167 68 L 174 30 L 189 0 L 244 19 L 175 77" fill="none" stroke="currentColor" stroke-width="8" stroke-linecap="round" stroke-linejoin="round"/>
  <path d="M 60 107 L 53 115 L 10 141 L 0 154 L 37 163 L 61 148 L 64 142" fill="none" stroke="currentColor" stroke-width="8" stroke-linecap="round" stroke-linejoin="round"/>
  <path d="M 63 67 L 38 50 L 21 23 L 28 20 L 73 43" fill="none" stroke="currentColor" stroke-width="8" stroke-linecap="round" stroke-linejoin="round"/>
  <path d="M 193 126 L 207 135 L 251 149 L 255 129 L 179 107" fill="none" stroke="currentColor" stroke-width="8" stroke-linecap="round" stroke-linejoin="round"/>
</svg>
