<svg viewBox="0 0 256 256" xmlns="http://www.w3.org/2000/svg" role="img" aria-label="windmill">
  <path d="M 75 100 L 68 81 L 64 54 L 64 19 L 68 0 L 74 8 L 77 25 L 83 99 L 87 98 L 120 69 L 167 33 L 182 25 L 184 28 L 176 43 L 145 69 L 85 109 L 43 130 L 18 147 L 0 165 L 86 114 L 89 136 L 98 166 L 109 181 L 113 176 L 95 133 L 83 111 L 81 114 L 79 184 L 83 253 L 80 168 L 82 118" fill="none" stroke="currentColor" stroke-width="8" stroke-linecap="round" stroke-linejoin="round"/>
  <path d="M 98 253 L 65 255" fill="none" stroke="currentColor" stroke-width="8" stroke-linecap="round" stroke-linejoin="round"/>
</svg>
