<svg viewBox="0 0 256 256" xmlns="http://www.w3.org/2000/svg" role="img" aria-label="windmill">
  <path d="M 79 233 L 79 225 L 75 227" fill="none" stroke="currentColor" stroke-width="8" stroke-linecap="round" stroke-linejoin="round"/>
  <path d="M 5 253 L 1 218 L 0 146 L 6 93 L 6 98 L 22 99 L 148 88 L 184 88 L 217 90 L 221 97 L 199 186 L 192 255" fill="none" stroke="currentColor" stroke-width="8" stroke-linecap="round" stroke-linejoin="round"/>
  <path d="M 27 41 L 90 141 L 119 177 L 127 179 L 144 176 L 170 168 L 124 110 L 62 3 L 57 0 L 52 5 L 14 16 L 38 64" fill="none" stroke="currentColor" stroke-width="8" stroke-linecap="round" stroke-linejoin="round"/>
  <path d="M 25 145 L 51 116 L 95 77 L 146 35 L 174 19 L 208 62 L 204 67 L 181 83 L 129 108 L 88 135 L 70 151 L 55 172 L 50 173 L 31 149" fill="none" stroke="currentColor" stroke-width="8" stroke-linecap="round" stroke-linejoin="round"/>
</svg>
