<svg viewBox="0 0 256 256" xmlns="http://www.w3.org/2000/svg" role="img" aria-label="windmill">
  <path d="M 100 64 L 88 63 L 73 72 L 63 84 L 60 100 L 61 115 L 72 133 L 85 141 L 100 143 L 115 137 L 124 127 L 129 100 L 126 89 L 114 73 L 96 65" fill="none" stroke="currentColor" stroke-width="8" stroke-linecap="round" stroke-linejoin="round"/>
  <path d="M 84 61 L 86 0 L 130 2 L 133 4 L 130 19 L 111 69" fill="none" stroke="currentColor" stroke-width="8" stroke-linecap="round" stroke-linejoin="round"/>
  <path d="M 123 91 L 179 52 L 196 93 L 132 110" fill="none" stroke="currentColor" stroke-width="8" stroke-linecap="round" stroke-linejoin="round"/>
  <path d="M 122 122 L 179 158 L 144 189 L 137 194 L 128 183 L 113 151 L 109 133" fill="none" stroke="currentColor" stroke-width="8" stroke-linecap="round" stroke-linejoin="round"/>
  <path d="M 76 136 L 35 187 L 22 175 L 14 163 L 0 155 L 29 130 L 64 110" fill="none" stroke="currentColor" stroke-width="8" stroke-linecap="round" stroke-linejoin="round"/>
  <path d="M 73 90 L 24 57 L 3 47 L 20 31 L 38 21 L 51 36 L 64 67" fill="none" stroke="currentColor" stroke-width="8" stroke-linecap="round" stroke-linejoin="round"/>
  <path d="M 68 62 L 67 48 L 74 31" fill="none" stroke="currentColor" stroke-width="8" stroke-linecap="round" stroke-linejoin="round"/>
  <path d="M 132 40 L 152 30 L 135 47 L 122 71" fill="none" stroke="currentColor" stroke-width="8" stroke-linecap="round" stroke-linejoin="round"/>
  <path d="M 70 124 L 64 205 L 67 229" fill="none" stroke="currentColor" stroke-width="8" stroke-linecap="round" stroke-linejoin="round"/>
  <path d="M 117 132 L 110 178 L 116 240" fill="none" stroke="currentColor" stroke-width="8" stroke-linecap="round" stroke-linejoin="round"/>
  <path d="M 65 205 L 62 255" fill="none" stroke="currentColor" stroke-width="8" stroke-linecap="round" stroke-linejoin="round"/>
  <path d="M 115 217 L 115 234" fill="none" stroke="currentColor" stroke-width="8" stroke-linecap="round" stroke-linejoin="round"/>
</svg>
