<svg viewBox="0 0 256 256" xmlns="http://www.w3.org/2000/svg" role="img" aria-label="windmill">
  <path d="M 121 78 L 88 244 L 87 252 L 91 255 L 112 254 L 158 237 L 202 231 L 148 143 L 135 115 L 124 81 L 121 78 L 117 78 L 90 94 L 61 120 L 19 147 L 3 124 L 0 113 L 2 111 L 119 78 L 104 77 L 53 54 L 30 48 L 20 42 L 2 22 L 16 20 L 49 3 L 61 16 L 98 44 L 112 58 L 120 73 L 125 74 L 178 38 L 250 0 L 252 41 L 245 49 L 227 56 L 177 62 L 130 63 L 107 71 L 105 74 L 108 74" fill="none" stroke="currentColor" stroke-width="8" stroke-linecap="round" stroke-linejoin="round"/>
</svg>
