<svg viewBox="0 0 256 256" xmlns="http://www.w3.org/2000/svg" role="img" aria-label="windmill">
  <path d="M 92 79 L 67 188 L 67 222 L 74 241 L 90 248 L 126 254 L 145 247 L 141 215 L 140 156 L 122 88 L 95 79" fill="none" stroke="currentColor" stroke-width="8" stroke-linecap="round" stroke-linejoin="round"/>
  <path d="M 18 121 L 1 124 L 0 122 L 6 117 L 55 106 L 91 86 L 131 81 L 176 80 L 223 66 L 249 55 L 255 53 L 252 52" fill="none" stroke="currentColor" stroke-width="8" stroke-linecap="round" stroke-linejoin="round"/>
  <path d="M 46 0 L 61 14 L 72 30 L 81 48 L 88 80 L 99 82 L 154 146 L 198 181 L 197 177" fill="none" stroke="currentColor" stroke-width="8" stroke-linecap="round" stroke-linejoin="round"/>
  <path d="M 54 164 L 74 147 L 83 136 L 147 30" fill="none" stroke="currentColor" stroke-width="8" stroke-linecap="round" stroke-linejoin="round"/>
</svg>
