<?xml version="1.0" encoding="UTF-8"?>
<svg xmlns="http://www.w3.org/2000/svg" viewBox="0 0 256 256" fill="none" stroke="#6e6a8d" stroke-linecap="round" stroke-linejoin="round">
  <path d="M 53 129.5 Q 53 129.5 58.4 130.9 Q 63.7 132.3 69.1 133.0 Q 74.4 133.7 79.8 133.5 Q 85.1 133.3 90.5 132.3 Q 95.9 131.2 101.2 129.8 Q 106.6 128.3 111.9 126.8 Q 117.3 125.3 122.6 124.3 Q 128 123.2 133.4 123.0 Q 138.7 122.8 144.1 123.4 Q 149.4 124 154.8 125.2 Q 160.1 126.5 165.5 127.9 Q 170.9 129.3 176.2 130.4 Q 181.6 131.6 186.9 132.1 Q 192.3 132.6 197.6 132.3" stroke-width="5" />
  <path d="M 92 96 Q 92 96 93.3 99.2 Q 94.6 102.4 98.0 102.7 Q 101.5 102.9 98.8 105.1 Q 96.2 107.4 97.0 110.7 Q 97.9 114.1 94.9 112.2 Q 92 110.4 89.1 112.2 Q 86.1 114.1 87.0 110.7 Q 87.8 107.4 85.2 105.1 Q 82.5 102.9 86.0 102.7 Z" stroke-width="5" />
  <path d="M 130 142 Q 130 142 131.0 144.6 Q 132.1 147.2 134.8 147.3 Q 137.6 147.5 135.5 149.3 Q 133.3 151.1 134.0 153.8 Q 134.7 156.5 132.4 155.0 Q 130 153.5 127.6 155.0 Q 125.3 156.5 126.0 153.8 Q 126.7 151.1 124.5 149.3 Q 122.4 147.5 125.2 147.3 Z" stroke-width="5" />
  <path d="M 170 109 Q 170 109 171.2 111.9 Q 172.3 114.8 175.4 115.0 Q 178.6 115.2 176.2 117.2 Q 173.8 119.2 174.5 122.3 Q 175.3 125.3 172.6 123.6 Q 170 122 167.4 123.6 Q 164.7 125.3 165.5 122.3 Q 166.2 119.2 163.8 117.2 Q 161.4 115.2 164.6 115.0 Z" stroke-width="5" />
</svg>
