<?xml version="1.0" encoding="UTF-8"?>
<svg xmlns="http://www.w3.org/2000/svg" viewBox="0 0 256 256" fill="none" stroke="#9a8561" stroke-linecap="round" stroke-linejoin="round">
  <path d="M 105.6 111.8 C 98.8 147.2 112.5 189.7 128 196.8 C 143.5 189.7 157.2 147.2 150.4 111.8
M 116 104.8 L 140 104.8
M 128 104.8 L 128 69.4" stroke-width="5" />
  <path d="M 128 108 Q 128 108 131.6 108.2 Q 135.3 108.4 137.9 110.9 Q 140.5 113.5 142.1 116.5 Q 143.7 119.5 145.1 122.7 Q 146.5 126 146.0 129.6 Q 145.4 133.2 142.8 135.7 Q 140.2 138.2 137.4 140.1 Q 134.6 142 131.3 143.5 Q 128 144.9 124.5 144.0 Q 120.9 143 118.5 140.5 Q 116 138 113.8 135.4 Q 111.5 132.8 110.2 129.4 Q 108.9 126 110.2 122.6 Q 111.5 119.2 113.7 116.6 Q 116 114 118.5 111.5 Q 121 109 124.5 108.0 Z" stroke-width="5" />
</svg>
