<?xml version="1.0" encoding="UTF-8"?>
<svg xmlns="http://www.w3.org/2000/svg" viewBox="0 0 256 256" fill="none" stroke="#9a8561" stroke-linecap="round" stroke-linejoin="round">
  <path d="M 128 86 Q 128 86 133.4 99.5 Q 138.9 113 153.4 114.0 Q 167.9 115 156.8 124.4 Q 145.6 133.7 149.1 147.8 Q 152.7 162 140.3 154.2 Q 128 146.5 115.7 154.2 Q 103.3 162 106.9 147.8 Q 110.4 133.7 99.2 124.4 Q 88.1 115 102.6 114.0 Z" stroke-width="5" />
  <path d="M 88 144 Q 88 144 89.8 148.5 Q 91.6 153 96.5 153.3 Q 101.3 153.7 97.6 156.8 Q 93.9 159.9 95.0 164.6 Q 96.2 169.3 92.1 166.7 Q 88 164.2 83.9 166.7 Q 79.8 169.3 81.0 164.6 Q 82.1 159.9 78.4 156.8 Q 74.7 153.7 79.5 153.3 Z" stroke-width="5" />
  <path d="M 170 138 Q 170 138 171.6 141.9 Q 173.1 145.7 177.3 146.0 Q 181.4 146.3 178.2 149.0 Q 175 151.6 176.0 155.7 Q 177.1 159.7 173.5 157.5 Q 170 155.3 166.5 157.5 Q 162.9 159.7 164.0 155.7 Q 165 151.6 161.8 149.0 Q 158.6 146.3 162.7 146.0 Z" stroke-width="5" />
</svg>
