<?xml version="1.0" encoding="UTF-8"?>
<svg xmlns="http://www.w3.org/2000/svg" viewBox="0 0 256 256" fill="none" stroke="#9a8561" stroke-linecap="round" stroke-linejoin="round">
  <path d="M 128 88 Q 128 88 133.2 100.9 Q 138.3 113.8 152.2 114.7 Q 166 115.6 155.4 124.5 Q 144.7 133.4 148.1 146.9 Q 151.5 160.4 139.8 153.0 Q 128 145.6 116.2 153.0 Q 104.5 160.4 107.9 146.9 Q 111.3 133.4 100.6 124.5 Q 90 115.6 103.8 114.7 Z" stroke-width="5" />
  <path d="M 88 141 Q 88 141 89.9 145.8 Q 91.9 150.7 97.1 151.0 Q 102.3 151.4 98.3 154.7 Q 94.3 158 95.5 163.1 Q 96.8 168.1 92.4 165.4 Q 88 162.6 83.6 165.4 Q 79.2 168.1 80.5 163.1 Q 81.7 158 77.7 154.7 Q 73.7 151.4 78.9 151.0 Z" stroke-width="5" />
  <path d="M 170 139 Q 170 139 171.7 143.2 Q 173.4 147.4 177.9 147.7 Q 182.4 148 178.9 150.9 Q 175.4 153.8 176.5 158.1 Q 177.6 162.5 173.8 160.1 Q 170 157.7 166.2 160.1 Q 162.4 162.5 163.5 158.1 Q 164.6 153.8 161.1 150.9 Q 157.6 148 162.1 147.7 Z" stroke-width="5" />
</svg>
