<svg viewBox="0 0 256 256" xmlns="http://www.w3.org/2000/svg" role="img" aria-label="tornado">
  <path d="M 123 45 L 118 32 L 98 13 L 76 3 L 53 3 L 31 11 L 13 30 L 2 53 L 0 67 L 2 83 L 25 94 L 63 101 L 130 103 L 148 95 L 160 79 L 164 29 L 154 10 L 134 0 L 109 0 L 81 4 L 57 18 L 39 33 L 32 48 L 32 61 L 42 74 L 66 83 L 111 85 L 123 80 L 131 70 L 131 56 L 121 43 L 95 38 L 68 40 L 40 59 L 22 79 L 12 97 L 12 111 L 20 126 L 47 130 L 107 128 L 129 116 L 140 104 L 142 88 L 139 74 L 123 66 L 96 66 L 70 77 L 47 96 L 36 111 L 34 125 L 37 138 L 59 145 L 111 144 L 125 136 L 132 128 L 133 115 L 124 102 L 107 97 L 82 98 L 62 111 L 47 129 L 44 142 L 43 154 L 57 164 L 106 165 L 122 159 L 130 152 L 131 138 L 121 125 L 97 119 L 74 121 L 55 133 L 45 144 L 42 156 L 42 168 L 54 178 L 92 181 L 103 178 L 111 170 L 110 155 L 87 154 L 77 164 L 70 183 L 71 192 L 93 196 L 103 191 L 107 181 L 99 178 L 89 181 L 77 199 L 78 212 L 88 212 L 98 211 L 103 206 L 106 196 L 101 196 L 92 202 L 86 217 L 86 223 L 92 228 L 99 228 L 107 223 L 98 220 L 91 222 L 85 234 L 85 239 L 91 245 L 104 245 L 98 246 L 98 253 L 105 255 L 108 250 L 103 249 L 100 255" fill="none" stroke="currentColor" stroke-width="8" stroke-linecap="round" stroke-linejoin="round"/>
</svg>
