<svg viewBox="0 0 256 256" xmlns="http://www.w3.org/2000/svg" role="img" aria-label="tornado">
  <path d="M 193 12 L 192 9 L 163 5 L 116 5 L 78 14 L 68 24 L 78 28 L 158 26 L 204 22 L 227 17 L 231 15 L 218 10 L 130 10 L 83 18 L 67 24 L 81 29 L 128 30 L 182 25 L 230 17 L 143 18 L 108 25 L 84 34 L 70 47 L 74 52 L 119 54 L 170 51 L 194 45 L 151 43 L 120 48 L 96 55 L 79 65 L 115 68 L 186 60 L 146 61 L 123 66 L 107 72 L 100 78 L 106 81 L 125 83 L 191 84 L 159 85 L 139 88 L 126 94 L 121 98 L 125 102 L 194 103 L 144 109 L 122 115 L 107 124 L 120 128 L 182 131 L 129 133 L 120 139 L 117 147 L 124 152 L 138 156 L 187 156 L 127 163 L 109 169 L 101 176 L 105 179 L 117 181 L 160 181 L 153 180 L 134 186 L 113 200 L 140 199 L 167 193" fill="none" stroke="currentColor" stroke-width="8" stroke-linecap="round" stroke-linejoin="round"/>
  <path d="M 192 14 L 94 1 L 54 0 L 20 4 L 3 13 L 0 19 L 12 25 L 37 27 L 238 13 L 148 7 L 95 6 L 50 11 L 24 21 L 18 25 L 24 29 L 255 29 L 173 23 L 124 25 L 82 33 L 56 48 L 67 52 L 94 54 L 232 49 L 193 44 L 149 46 L 108 54 L 71 69 L 71 72 L 90 75 L 200 85 L 145 83 L 86 97 L 88 100 L 108 103 L 201 107 L 124 108 L 101 115 L 91 121 L 92 126 L 107 131 L 207 141 L 124 144 L 112 152 L 111 159 L 128 163 L 200 170 L 159 176 L 129 187 L 127 191 L 129 195 L 164 200 L 193 200 L 164 200 L 132 213" fill="none" stroke="currentColor" stroke-width="8" stroke-linecap="round" stroke-linejoin="round"/>
</svg>
