<svg viewBox="0 0 256 256" xmlns="http://www.w3.org/2000/svg" role="img" aria-label="tornado">
  <path d="M 77 21 L 71 16 L 77 11 L 122 2 L 156 0 L 172 9 L 175 24 L 172 32 L 162 40 L 106 55 L 68 56 L 61 50 L 57 43 L 91 30 L 119 27 L 136 29 L 153 46 L 156 56 L 154 60 L 128 74 L 60 93 L 36 93 L 31 88 L 31 80 L 64 69 L 93 68 L 106 71 L 120 88 L 119 112 L 107 127 L 89 137 L 70 143 L 51 143 L 36 137 L 28 127 L 25 119 L 28 108 L 37 99 L 50 93 L 85 92 L 102 98 L 116 107 L 124 118 L 126 129 L 122 142 L 112 149 L 90 155 L 48 155 L 24 146 L 29 143 L 66 142 L 109 147 L 131 156 L 120 170 L 71 180 L 47 183 L 8 181 L 21 178 L 59 177 L 93 189 L 105 206 L 99 215 L 83 222 L 65 225 L 23 223 L 69 220 L 92 223 L 42 236 L 15 239 L 49 243 L 65 254 L 41 255 L 38 240 L 47 232 L 53 232 L 62 240 L 60 250 L 35 242 L 27 229 L 29 220 L 62 219 L 71 229 L 52 227 L 31 207 L 30 201 L 41 192 L 66 193 L 77 206 L 65 209 L 33 206 L 23 198 L 17 189 L 27 169 L 40 165 L 56 164 L 82 175 L 76 183 L 61 190 L 10 188 L 0 167 L 2 156 L 11 148 L 63 144 L 73 160 L 42 180 L 27 177 L 18 168 L 22 131 L 35 122 L 51 117 L 84 124 L 86 138 L 81 142 L 45 118 L 52 107 L 83 92 L 116 87 L 125 95 L 114 102 L 99 106 L 55 91 L 55 82 L 65 71 L 123 54 L 129 58 L 131 63 L 95 76 L 83 69 L 77 60 L 108 15 L 136 11 L 141 28 L 122 37 L 98 43 L 54 33 L 59 23 L 72 15 L 94 9" fill="none" stroke="currentColor" stroke-width="8" stroke-linecap="round" stroke-linejoin="round"/>
</svg>
