<svg viewBox="0 0 256 256" xmlns="http://www.w3.org/2000/svg" role="img" aria-label="tornado">
  <path d="M 86 230 L 74 231 L 65 237 L 63 245 L 70 251 L 90 255 L 105 252 L 113 246 L 113 239 L 109 234 L 88 227 L 68 230 L 63 235 L 62 240 L 73 244 L 90 241 L 110 232 L 122 222 L 125 213 L 121 209 L 97 203 L 75 207 L 58 215 L 52 227 L 55 233 L 69 242 L 92 247 L 114 242 L 127 232 L 131 217 L 129 210 L 116 197 L 104 193 L 89 191 L 58 197 L 45 203 L 31 216 L 31 223 L 35 230 L 60 238 L 85 238 L 106 232 L 120 221 L 127 205 L 123 188 L 110 175 L 87 167 L 58 169 L 44 174 L 25 189 L 20 199 L 19 207 L 25 215 L 36 220 L 59 224 L 83 223 L 117 214 L 142 199 L 152 183 L 147 165 L 129 151 L 98 146 L 65 152 L 39 167 L 29 187 L 31 197 L 38 207 L 56 216 L 80 222 L 100 220 L 132 212 L 156 192 L 168 168 L 169 156 L 165 145 L 157 135 L 145 126 L 110 117 L 75 120 L 59 125 L 36 141 L 30 152 L 29 162 L 31 171 L 38 180 L 49 187 L 69 192 L 93 191 L 128 180 L 148 166 L 159 151 L 162 141 L 157 123 L 148 116 L 125 106 L 93 104 L 61 111 L 35 128 L 19 150 L 18 161 L 22 170 L 30 178 L 48 186 L 78 190 L 119 185 L 137 177 L 154 164 L 162 146 L 158 126 L 151 116 L 115 94 L 81 87 L 47 93 L 33 100 L 14 119 L 11 130 L 13 140 L 22 150 L 40 158 L 67 161 L 87 157 L 125 144 L 143 130 L 152 113 L 151 94 L 136 76 L 125 71 L 94 65 L 61 71 L 45 77 L 20 97 L 15 107 L 14 117 L 20 126 L 39 136 L 67 142 L 116 137 L 158 125 L 179 110 L 187 91 L 186 79 L 181 67 L 158 46 L 121 34 L 80 38 L 59 47 L 34 63 L 7 90 L 0 116 L 2 124 L 12 134 L 34 147 L 61 152 L 91 152 L 119 148 L 144 141 L 175 126 L 186 112 L 188 101 L 179 75 L 155 49 L 139 37 L 106 23 L 87 22 L 47 31 L 16 51 L 6 63 L 3 75 L 6 86 L 22 99 L 55 107 L 81 107 L 137 100 L 177 87 L 191 76 L 192 58 L 176 37 L 145 19 L 107 11 L 69 15 L 37 32 L 27 43 L 20 57 L 20 68 L 25 80 L 39 90 L 62 99 L 93 102 L 119 101 L 162 90 L 175 83 L 187 70 L 190 60 L 188 48 L 174 28 L 161 19 L 131 7 L 97 3 L 63 8 L 36 20 L 26 29 L 19 39 L 17 57 L 22 66 L 31 72 L 48 79 L 76 83 L 117 80 L 136 73 L 154 62 L 160 49 L 159 40 L 147 23 L 134 14 L 107 2 L 76 1 L 60 3 L 37 14 L 30 21 L 29 34" fill="none" stroke="currentColor" stroke-width="8" stroke-linecap="round" stroke-linejoin="round"/>
</svg>
