<svg viewBox="0 0 256 256" xmlns="http://www.w3.org/2000/svg" role="img" aria-label="tornado">
  <path d="M 34 26 L 114 0 L 155 1 L 227 25 L 248 36 L 255 44 L 255 54 L 241 70 L 227 78 L 211 81 L 37 83 L 30 80 L 17 67 L 15 57 L 24 48 L 52 32 L 92 20 L 131 16 L 204 16 L 203 31 L 183 55 L 118 96 L 76 114 L 39 126 L 23 124 L 21 108 L 33 95 L 58 81 L 115 65 L 146 61 L 182 61 L 212 74 L 215 84 L 205 94 L 188 103 L 139 113 L 45 115 L 24 114 L 9 109 L 1 104 L 1 94 L 17 78 L 58 58 L 82 50 L 103 45 L 145 42 L 155 43 L 164 49 L 169 63 L 169 73 L 165 82 L 152 96 L 132 108 L 48 139 L 25 141 L 22 129 L 38 108 L 51 98 L 93 80 L 132 80 L 169 96 L 168 101 L 158 109 L 133 123 L 115 130 L 99 129 L 101 125 L 122 115 L 152 114 L 163 123 L 168 131 L 165 142 L 156 151 L 141 159 L 107 166 L 70 167 L 62 159 L 65 156 L 91 146 L 119 144 L 146 149 L 153 156 L 152 161 L 102 176 L 62 180 L 58 179 L 57 173 L 58 158 L 74 138 L 105 120 L 133 119 L 158 137 L 159 141 L 146 155 L 113 180 L 94 183 L 92 180 L 96 171 L 115 156 L 125 156 L 132 160 L 136 166 L 136 174 L 130 184 L 120 190 L 88 197 L 85 192 L 85 176 L 92 169 L 116 153 L 127 151 L 133 156 L 135 167 L 134 192 L 123 217 L 110 230 L 91 239 L 77 239 L 73 235 L 83 225 L 101 221 L 111 228 L 111 238 L 81 240 L 77 230 L 92 212 L 105 203 L 126 194 L 130 197 L 131 204 L 131 218 L 126 228 L 113 236 L 101 236 L 100 232 L 102 226 L 114 215 L 129 207 L 131 219 L 122 232 L 116 234" fill="none" stroke="currentColor" stroke-width="8" stroke-linecap="round" stroke-linejoin="round"/>
</svg>
