<svg viewBox="0 0 256 256" xmlns="http://www.w3.org/2000/svg" role="img" aria-label="tornado">
  <path d="M 218 18 L 158 4 L 73 0 L 28 9 L 11 16 L 0 26 L 1 31 L 23 34 L 113 25 L 179 24 L 255 33 L 203 23 L 133 20 L 86 27 L 66 34 L 60 42 L 62 48 L 77 50 L 215 43 L 178 35 L 130 34 L 98 41 L 79 54 L 85 59 L 161 57 L 204 62 L 162 54 L 134 54 L 109 60 L 85 74 L 87 77 L 123 79 L 182 77 L 141 76 L 129 78 L 107 87 L 99 94 L 105 98 L 174 95 L 148 95 L 130 102 L 119 112 L 120 115 L 155 116 L 164 119 L 140 127 L 129 134 L 159 136 L 135 148 L 156 150 L 137 161 L 154 163 L 143 167 L 138 175 L 142 178 L 157 179 L 151 181 L 145 187 L 153 190 L 145 202 L 156 204 L 151 207 L 154 210" fill="none" stroke="currentColor" stroke-width="8" stroke-linecap="round" stroke-linejoin="round"/>
</svg>
