<svg viewBox="0 0 256 256" xmlns="http://www.w3.org/2000/svg" role="img" aria-label="tornado">
  <path d="M 101 253 L 105 255 L 114 253 L 114 248 L 109 242 L 101 240 L 99 243 L 104 249 L 116 247 L 121 240 L 122 229 L 110 220 L 101 221 L 96 224 L 95 232 L 113 231 L 125 219 L 127 203 L 112 193 L 100 193 L 87 199 L 78 210 L 74 222 L 84 229 L 106 230 L 124 224 L 137 215 L 144 202 L 146 191 L 142 181 L 104 162 L 94 160 L 71 162 L 58 169 L 49 179 L 47 196 L 59 204 L 99 212 L 124 209 L 147 199 L 176 168 L 184 150 L 180 131 L 158 114 L 122 98 L 101 91 L 71 88 L 46 92 L 22 108 L 11 123 L 10 136 L 45 163 L 70 168 L 106 168 L 117 165 L 138 157 L 161 132 L 172 105 L 170 75 L 161 59 L 143 45 L 93 25 L 42 23 L 21 30 L 8 46 L 2 67 L 10 111 L 27 128 L 63 145 L 97 146 L 124 142 L 137 139 L 158 126 L 167 118 L 178 99 L 182 66 L 180 56 L 139 16 L 92 1 L 47 1 L 27 7 L 4 27 L 0 45 L 4 62 L 10 72 L 23 83 L 32 87 L 70 93" fill="none" stroke="currentColor" stroke-width="8" stroke-linecap="round" stroke-linejoin="round"/>
</svg>
