<svg viewBox="0 0 256 256" xmlns="http://www.w3.org/2000/svg" role="img" aria-label="tornado">
  <path d="M 0 40 L 13 22 L 28 11 L 46 3 L 64 0 L 122 1 L 150 9 L 174 11 L 214 27 L 223 36 L 223 46 L 211 57 L 173 77 L 162 78 L 120 77 L 67 69 L 47 61 L 42 55 L 42 45 L 60 37 L 101 35 L 156 59 L 172 71 L 172 82 L 167 88 L 133 109 L 109 117 L 65 117 L 81 111 L 120 110 L 141 122 L 152 135 L 155 155 L 144 165 L 109 172 L 79 172 L 111 176 L 132 185 L 128 191 L 103 204 L 125 212 L 141 222 L 119 235 L 122 249 L 117 255" fill="none" stroke="currentColor" stroke-width="8" stroke-linecap="round" stroke-linejoin="round"/>
</svg>
