<svg viewBox="0 0 256 256" xmlns="http://www.w3.org/2000/svg" role="img" aria-label="tornado">
  <path d="M 49 40 L 39 74 L 40 92 L 76 110 L 69 148 L 71 153 L 92 168 L 95 174 L 103 228 L 89 255 L 108 246 L 116 230 L 116 174 L 125 152 L 136 141 L 130 122 L 131 114 L 148 88 L 183 55 L 184 48 L 178 27 L 166 12 L 158 8 L 138 2 L 115 0 L 92 2 L 22 20 L 3 29 L 0 33 L 3 37 L 20 41 L 68 43 L 146 40 L 174 31 L 153 31 L 104 40 L 88 48 L 83 55 L 82 63 L 87 76 L 104 90 L 115 94 L 135 94 L 144 89 L 157 73 L 114 124 L 98 149 L 95 154 L 98 155 L 99 149 L 97 145 L 89 144 L 71 151 L 61 159 L 61 162 L 67 166 L 117 173" fill="none" stroke="currentColor" stroke-width="8" stroke-linecap="round" stroke-linejoin="round"/>
  <path d="M 198 96 L 179 127 L 179 140 L 207 148 L 229 146 L 245 132 L 250 120 L 246 94 L 235 79" fill="none" stroke="currentColor" stroke-width="8" stroke-linecap="round" stroke-linejoin="round"/>
</svg>
