<svg viewBox="0 0 256 256" xmlns="http://www.w3.org/2000/svg" role="img" aria-label="tornado">
  <path d="M 147 0 L 119 19 L 56 52 L 35 71 L 29 90 L 32 97 L 39 102 L 62 105 L 122 94 L 148 87 L 158 81 L 189 54 L 194 40 L 182 37 L 113 36 L 87 43 L 42 70 L 11 95 L 0 108 L 18 115 L 70 122 L 98 123 L 128 118 L 154 110 L 191 92 L 206 77 L 210 65 L 207 61 L 179 53 L 157 56 L 75 113 L 55 131 L 49 142 L 54 147 L 72 151 L 113 150 L 156 143 L 165 138 L 181 123 L 186 107 L 184 100 L 162 92 L 149 92 L 134 97 L 87 140 L 75 156 L 74 163 L 90 169 L 131 172 L 173 161 L 185 150 L 183 143 L 161 140 L 143 146 L 119 165 L 108 188 L 115 198 L 121 202 L 146 208 L 163 208 L 182 202 L 195 192 L 203 181 L 204 173 L 201 169 L 181 168 L 156 178 L 142 196 L 140 210 L 142 220 L 148 226 L 159 228 L 173 221 L 182 208 L 176 224 L 177 240 L 204 255" fill="none" stroke="currentColor" stroke-width="8" stroke-linecap="round" stroke-linejoin="round"/>
</svg>
