<svg viewBox="0 0 256 256" xmlns="http://www.w3.org/2000/svg" role="img" aria-label="tornado">
  <path d="M 112 28 L 122 31 L 129 43 L 127 52 L 113 62 L 85 66 L 74 63 L 62 53 L 49 29 L 49 21 L 57 13 L 71 6 L 96 6 L 112 13 L 154 24 L 168 36 L 171 61 L 164 76 L 153 88 L 132 100 L 108 103 L 67 102 L 35 93 L 13 77 L 6 67 L 0 51 L 0 38 L 12 25 L 26 17 L 84 1 L 152 1 L 192 18 L 207 30 L 224 60 L 226 74 L 215 82 L 150 111 L 136 114 L 94 116 L 66 107 L 19 83 L 16 78" fill="none" stroke="currentColor" stroke-width="8" stroke-linecap="round" stroke-linejoin="round"/>
  <path d="M 54 99 L 102 99 L 125 106 L 128 116 L 123 120 L 68 142 L 72 145 L 131 145 L 111 148 L 69 146 L 100 150 L 139 162 L 169 179 L 190 202 L 188 211 L 180 211 L 151 200 L 126 201 L 76 176 L 54 151 L 57 149 L 79 151 L 103 160 L 149 186 L 130 188 L 90 174 L 87 178 L 91 179 L 122 186 L 120 192 L 103 204 L 100 211 L 116 228 L 139 244 L 115 243 L 91 230 L 97 232 L 98 243 L 88 255" fill="none" stroke="currentColor" stroke-width="8" stroke-linecap="round" stroke-linejoin="round"/>
</svg>
