<svg viewBox="0 0 256 256" xmlns="http://www.w3.org/2000/svg" role="img" aria-label="tornado">
  <path d="M 133 9 L 108 0 L 80 4 L 62 14 L 46 31 L 36 53 L 33 75 L 43 100 L 62 117 L 91 127 L 119 126 L 137 113 L 144 86 L 141 59 L 129 44 L 113 43 L 94 53 L 72 74 L 50 104 L 42 127 L 41 141 L 45 156 L 110 170 L 131 158 L 145 142 L 160 110 L 164 71 L 162 57 L 153 41 L 144 31 L 133 26 L 114 23 L 74 32 L 49 48 L 41 58 L 83 57 L 134 39 L 143 32 L 144 25 L 138 17 L 128 13 L 106 12 L 32 17 L 5 22 L 1 25 L 1 33 L 17 86 L 29 99 L 54 111 L 109 130 L 132 131 L 214 99" fill="none" stroke="currentColor" stroke-width="8" stroke-linecap="round" stroke-linejoin="round"/>
  <path d="M 6 13 L 9 79 L 18 111 L 61 165 L 77 199 L 81 219 L 79 231 L 76 236 L 60 243 L 109 248 L 113 242 L 113 227 L 106 215 L 99 211 L 87 207 L 77 209 L 67 215 L 62 224 L 64 232 L 74 242 L 92 244 L 113 236 L 118 226 L 120 216 L 106 203 L 84 198 L 67 198 L 66 206 L 75 227 L 99 255 L 113 248 L 118 226 L 116 210 L 110 197 L 101 190 L 91 188 L 80 194 L 73 206 L 71 222 L 76 237 L 83 246 L 98 248 L 107 243 L 113 230 L 112 217 L 107 205 L 96 192 L 86 183 L 73 178 L 67 178 L 57 189 L 55 199 L 59 208 L 68 208 L 77 197 L 79 179 L 77 166 L 62 149 L 51 149 L 46 157 L 53 169 L 65 171" fill="none" stroke="currentColor" stroke-width="8" stroke-linecap="round" stroke-linejoin="round"/>
</svg>
