<svg viewBox="0 0 256 256" xmlns="http://www.w3.org/2000/svg" role="img" aria-label="tornado">
  <path d="M 96 255 L 104 233 L 106 202 L 99 163 L 89 133 L 64 91 L 15 32 L 3 13 L 0 2 L 111 0 L 132 3 L 185 25 L 202 48 L 204 80 L 184 138 L 151 187 L 104 245" fill="none" stroke="currentColor" stroke-width="8" stroke-linecap="round" stroke-linejoin="round"/>
  <path d="M 151 169 L 141 173 L 116 199 L 152 177 L 113 204 L 135 184 L 112 194 L 115 189 L 165 134 L 121 145 L 101 155 L 163 105 L 102 138 L 130 124 L 177 88 L 101 108 L 97 105 L 171 45 L 69 79 L 137 24 L 66 37 L 113 8 L 82 4 L 55 11 L 74 1 L 24 17 L 89 1 L 106 9 L 120 25 L 122 37 L 164 37 L 115 72 L 185 70 L 138 112 L 139 125 L 151 124 L 133 135 L 156 151 L 112 200 L 110 203 L 114 207" fill="none" stroke="currentColor" stroke-width="8" stroke-linecap="round" stroke-linejoin="round"/>
</svg>
