<svg viewBox="0 0 256 256" xmlns="http://www.w3.org/2000/svg" role="img" aria-label="tornado">
  <path d="M 84 251 L 72 252 L 78 246 L 111 235 L 116 235 L 103 240 L 53 252 L 86 238 L 116 234 L 114 237 L 88 247 L 52 255 L 42 255 L 38 251 L 57 236 L 101 221 L 136 219 L 140 222 L 130 226 L 90 235 L 65 238 L 33 236 L 42 227 L 60 217 L 145 176 L 29 219 L 64 193 L 94 175 L 144 152 L 155 152 L 155 158 L 140 171 L 114 186 L 52 217 L 10 232 L 10 222 L 29 202 L 84 160 L 115 148 L 139 146 L 154 156 L 155 168 L 143 182 L 119 196 L 88 207 L 59 213 L 10 210 L 2 201 L 0 191 L 14 180 L 150 110 L 38 170 L 35 170 L 71 137 L 128 107 L 158 98 L 148 110 L 104 136 L 23 166 L 9 167 L 1 165 L 1 153 L 8 136 L 27 112 L 48 93 L 71 79 L 93 71 L 118 69 L 136 71 L 145 76 L 139 86 L 125 96 L 54 124 L 27 130 L 9 129 L 0 123 L 0 115 L 13 102 L 79 64 L 109 55 L 111 58 L 106 66 L 71 93 L 30 109 L 17 107 L 9 101 L 13 87 L 25 70 L 43 55 L 64 44 L 88 36 L 109 34 L 123 36 L 128 44 L 124 53 L 90 70 L 47 79 L 32 74 L 23 64 L 27 49 L 43 30 L 74 14 L 126 0" fill="none" stroke="currentColor" stroke-width="8" stroke-linecap="round" stroke-linejoin="round"/>
</svg>
