<svg viewBox="0 0 256 256" xmlns="http://www.w3.org/2000/svg" role="img" aria-label="tornado">
  <path d="M 67 15 L 70 11 L 92 3 L 138 0 L 167 6 L 177 14 L 182 22 L 183 37 L 177 47 L 160 60 L 145 64 L 60 77 L 22 77 L 3 71 L 0 56 L 9 47 L 20 43 L 91 33 L 143 34 L 171 39 L 187 50 L 191 61 L 189 73 L 174 88 L 151 100 L 69 116 L 48 117 L 48 114 L 56 110 L 80 106 L 135 106 L 169 111 L 183 120 L 185 132 L 182 138 L 162 152 L 107 163 L 60 165 L 81 163 L 108 167 L 156 176 L 183 188 L 184 193 L 179 198 L 163 206 L 114 215 L 141 222 L 160 232 L 156 237 L 138 241 L 157 248 L 142 253 L 153 255 L 139 253 L 132 244" fill="none" stroke="currentColor" stroke-width="8" stroke-linecap="round" stroke-linejoin="round"/>
  <path d="M 79 10 L 63 12 L 39 24 L 44 51 L 57 60 L 108 61 L 129 57 L 162 47 L 188 33 L 186 29 L 172 23 L 143 18 L 117 19 L 98 23 L 80 32 L 66 49" fill="none" stroke="currentColor" stroke-width="8" stroke-linecap="round" stroke-linejoin="round"/>
</svg>
