<svg viewBox="0 0 256 256" xmlns="http://www.w3.org/2000/svg" role="img" aria-label="tornado">
  <path d="M 181 24 L 107 21 L 42 22 L 32 26 L 24 33 L 24 49 L 32 56 L 87 56 L 149 48 L 184 35 L 203 18 L 197 14 L 152 9 L 66 0 L 48 1 L 38 9 L 13 45 L 10 61 L 15 71 L 36 77 L 103 75 L 140 69 L 157 63 L 167 57 L 168 48 L 165 42 L 148 36 L 126 32 L 88 36 L 52 53 L 33 67 L 22 77 L 17 88 L 18 93 L 93 94 L 126 91 L 162 82 L 172 75 L 176 60 L 169 50 L 149 40 L 129 40 L 107 46 L 45 72 L 14 93 L 0 107 L 12 114 L 44 117 L 138 118 L 167 112 L 172 109 L 174 98 L 169 95 L 130 95 L 106 99 L 76 111 L 61 120 L 52 130 L 52 135 L 63 139 L 100 139 L 140 134 L 145 124 L 140 120 L 130 119 L 108 133 L 93 159 L 90 174 L 96 178 L 121 176 L 150 165 L 150 160 L 122 167 L 110 177 L 107 186 L 119 190 L 145 191 L 154 183 L 150 181 L 134 188 L 124 203 L 126 208 L 147 206 L 146 211 L 150 214 L 139 222 L 136 228 L 145 230 L 157 255" fill="none" stroke="currentColor" stroke-width="8" stroke-linecap="round" stroke-linejoin="round"/>
</svg>
