<svg viewBox="0 0 256 256" xmlns="http://www.w3.org/2000/svg" role="img" aria-label="tornado">
  <path d="M 61 2 L 41 0 L 12 17 L 0 34 L 2 44 L 72 78 L 133 85 L 143 84 L 150 76 L 149 69 L 131 60 L 77 48 L 53 49 L 37 68 L 23 113 L 24 133 L 34 143 L 50 152 L 90 162 L 126 162 L 130 158 L 131 150 L 118 143 L 64 142 L 48 147 L 28 165 L 20 181 L 22 203 L 36 213 L 68 218 L 57 218 L 53 222 L 53 229 L 58 232 L 55 236 L 57 255" fill="none" stroke="currentColor" stroke-width="8" stroke-linecap="round" stroke-linejoin="round"/>
</svg>
