<svg viewBox="0 0 256 256" xmlns="http://www.w3.org/2000/svg" role="img" aria-label="tornado">
  <path d="M 56 46 L 97 71 L 115 85 L 116 90 L 109 99 L 109 105 L 123 111 L 121 132 L 126 141 L 126 156 L 134 150 L 145 125 L 165 94 L 166 86 L 177 77 L 189 44 L 190 35 L 255 21 L 246 20 L 31 51 L 78 23 L 44 33 L 23 36 L 34 27 L 0 36 L 1 45 L 29 34 L 0 47 L 1 58 L 49 51 L 185 51 L 149 66 L 96 73 L 166 64 L 255 63 L 219 73 L 181 78 L 101 79 L 157 61 L 254 46 L 186 56 L 47 55 L 77 44 L 110 37 L 189 28 L 233 27 L 174 46 L 116 53 L 0 53 L 0 48 L 23 42 L 64 41 L 86 47 L 53 61 L 6 67 L 0 66 L 0 38 L 45 30 L 127 28 L 232 43 L 254 48 L 254 76 L 229 87 L 195 93 L 136 94 L 107 89 L 172 82 L 254 82 L 254 78 L 144 73 L 0 52 L 0 31 L 27 18 L 85 3 L 110 0 L 255 0 L 212 7 L 0 8 L 4 12 L 66 18 L 209 42 L 240 52 L 252 59 L 251 65 L 239 75 L 209 86 L 187 91 L 105 91 L 37 86 L 129 91 L 255 90 L 254 79 L 111 73 L 4 59 L 43 52 L 255 47 L 255 43 L 206 51 L 24 55 L 67 64 L 137 68 L 240 69 L 254 66 L 215 71 L 142 70 L 74 61 L 94 58 L 254 58" fill="none" stroke="currentColor" stroke-width="8" stroke-linecap="round" stroke-linejoin="round"/>
</svg>
