<svg viewBox="0 0 256 256" xmlns="http://www.w3.org/2000/svg" role="img" aria-label="tornado">
  <path d="M 87 12 L 152 28 L 164 36 L 165 46 L 155 56 L 133 59 L 80 46 L 60 34 L 58 31 L 61 29 L 87 24 L 124 24 L 178 36 L 190 43 L 190 50 L 175 59 L 144 65 L 69 65 L 34 57 L 29 52 L 32 50 L 63 44 L 105 46 L 137 52 L 157 60 L 166 70 L 166 80 L 160 89 L 148 104 L 129 118 L 118 124 L 102 124 L 95 119 L 94 114 L 103 102 L 127 96 L 148 96 L 156 100 L 162 107 L 153 113 L 112 122 L 47 120 L 14 112 L 19 108 L 46 103 L 231 103 L 214 106 L 166 106 L 142 101 L 119 90 L 111 79 L 116 74 L 187 74 L 201 77 L 201 81 L 173 94 L 113 103 L 54 101 L 13 90 L 5 86 L 1 76 L 5 69 L 21 61 L 128 44 L 151 45 L 150 52 L 140 60 L 118 70 L 93 71 L 82 68 L 72 59 L 70 51 L 87 39 L 121 33 L 204 34 L 167 46 L 83 44 L 44 35 L 15 24 L 3 14 L 2 6 L 6 3 L 53 0 L 160 20 L 169 27 L 154 36 L 97 39 L 62 32 L 56 26 L 66 21 L 88 17 L 187 19 L 243 29 L 255 36 L 255 41 L 250 47 L 226 59 L 140 75 L 80 75 L 53 71 L 38 64 L 38 61 L 49 55 L 109 47 L 153 47 L 166 51 L 168 55 L 166 63 L 159 69 L 125 85 L 90 90 L 64 90 L 77 86 L 124 86 L 154 90 L 155 94 L 148 97 L 107 103 L 16 103 L 77 101 L 134 110 L 163 119 L 167 124 L 162 130 L 130 143 L 105 147 L 66 147 L 39 141 L 31 136 L 32 132 L 46 126 L 66 123 L 157 123 L 214 135 L 200 141 L 142 149 L 48 149 L 11 142 L 13 139 L 76 139 L 121 147 L 140 156 L 142 160 L 141 166 L 128 173 L 100 177 L 58 176 L 53 171 L 64 165 L 92 161 L 131 161 L 177 170 L 184 174 L 187 177 L 182 181 L 145 186 L 79 186 L 52 182 L 51 178 L 78 173 L 143 173 L 169 177 L 171 181 L 167 185 L 144 194 L 96 198 L 112 194 L 133 195 L 140 199 L 133 205 L 117 208 L 84 209 L 73 206 L 69 202 L 138 201 L 161 208 L 164 218 L 148 227 L 108 228 L 90 225 L 100 222 L 140 223 L 132 228 L 98 232 L 127 234 L 131 235 L 127 238 L 105 238 L 126 236 L 123 239 L 113 239 L 114 236" fill="none" stroke="currentColor" stroke-width="8" stroke-linecap="round" stroke-linejoin="round"/>
</svg>
