<?xml version="1.0" encoding="UTF-8"?>
<svg xmlns="http://www.w3.org/2000/svg" viewBox="0 0 256 256" fill="none" stroke="#6f8198" stroke-linecap="round" stroke-linejoin="round">
  <path d="M 42 125.7 Q 42 125.7 48.1 130.5 Q 54.3 135.2 60.4 131.5 Q 66.6 127.7 72.7 119.8 Q 78.9 111.9 85.0 108.4 Q 91.1 104.9 97.3 109.5 Q 103.4 114.1 109.6 121.7 Q 115.7 129.3 121.9 131.5 Q 128 133.7 134.1 127.6 Q 140.3 121.6 146.4 113.1 Q 152.6 104.6 158.7 102.2 Q 164.9 99.8 171.0 105.8 Q 177.1 111.8 183.3 119.8 Q 189.4 127.9 195.6 129.8 Q 201.7 131.7 207.9 125.8" stroke-width="5" />
  <path d="M 54 155.6 Q 54 155.6 59.3 148.0 Q 64.6 140.3 69.9 137.3 Q 75.1 134.2 80.4 140.5 Q 85.7 146.7 91.0 153.9 Q 96.3 161.1 101.6 159.3 Q 106.9 157.6 112.1 149.0 Q 117.4 140.3 122.7 136.3 Q 128 132.2 133.3 137.7 Q 138.6 143.2 143.9 149.9 Q 149.1 156.7 154.4 154.9 Q 159.7 153.1 165.0 145.0 Q 170.3 136.8 175.6 133.5 Q 180.9 130.3 186.1 136.7 Q 191.4 143.2 196.7 150.9" stroke-width="5" />
</svg>
