<svg viewBox="0 0 256 256" xmlns="http://www.w3.org/2000/svg" role="img" aria-label="grass">
  <path d="M 0 94 L 6 58 L 17 23 L 20 29 L 20 104 L 29 101 L 35 35 L 43 86 L 49 102 L 57 104 L 68 26 L 72 47 L 74 92 L 76 102 L 81 106 L 86 96 L 90 18 L 100 98 L 103 105 L 109 106 L 113 89 L 118 29 L 136 98 L 141 102 L 145 97 L 157 33 L 170 94 L 173 99 L 181 102 L 185 95 L 196 15 L 202 20 L 214 85 L 220 106 L 230 22 L 242 2 L 247 26 L 249 94 L 252 110" fill="none" stroke="currentColor" stroke-width="8" stroke-linecap="round" stroke-linejoin="round"/>
  <path d="M 255 0 L 255 71" fill="none" stroke="currentColor" stroke-width="8" stroke-linecap="round" stroke-linejoin="round"/>
</svg>
