<svg viewBox="0 0 256 256" xmlns="http://www.w3.org/2000/svg" role="img" aria-label="grass">
  <path d="M 1 34 L 3 23 L 22 4 L 24 8 L 21 17 L 32 7 L 44 4 L 43 16 L 38 25 L 38 20 L 43 15 L 58 10 L 54 18 L 53 13 L 59 6 L 69 0 L 71 13 L 62 31 L 66 18 L 79 6 L 87 4 L 82 20 L 84 15 L 93 10 L 96 18 L 95 9 L 105 4 L 110 7 L 109 24 L 111 15 L 117 11 L 133 8 L 133 20 L 127 33 L 131 22 L 141 13 L 151 12 L 152 17 L 147 24 L 150 17 L 162 10 L 163 22 L 173 14 L 185 12 L 188 21 L 206 16 L 207 30 L 227 20 L 228 31 L 244 35 L 255 31" fill="none" stroke="currentColor" stroke-width="8" stroke-linecap="round" stroke-linejoin="round"/>
</svg>
