<svg viewBox="0 0 256 256" xmlns="http://www.w3.org/2000/svg" role="img" aria-label="grass">
  <path d="M 3 87 L 5 34 L 8 45 L 17 57 L 18 38 L 28 6 L 32 34 L 40 56 L 43 39 L 61 0 L 68 16 L 75 56 L 83 40 L 99 75 L 117 41 L 127 67 L 137 52 L 145 46 L 153 46 L 162 78 L 162 90 L 158 98 L 146 102 L 103 91 L 0 89 L 195 90 L 255 82" fill="none" stroke="currentColor" stroke-width="8" stroke-linecap="round" stroke-linejoin="round"/>
  <path d="M 150 47 L 142 29 L 137 40 L 130 46 L 125 38 L 125 28 L 115 32 L 102 30 L 99 36" fill="none" stroke="currentColor" stroke-width="8" stroke-linecap="round" stroke-linejoin="round"/>
</svg>
