<svg viewBox="0 0 256 256" xmlns="http://www.w3.org/2000/svg" role="img" aria-label="grass">
  <path d="M 28 89 L 17 64 L 0 51 L 20 64 L 31 81 L 37 49 L 49 22 L 58 12 L 75 0 L 64 11 L 57 24 L 44 69 L 44 73 L 47 73 L 61 60 L 83 54 L 66 73 L 58 93" fill="none" stroke="currentColor" stroke-width="8" stroke-linecap="round" stroke-linejoin="round"/>
  <path d="M 182 98 L 172 78 L 160 73 L 167 72 L 180 79 L 195 97 L 192 93 L 192 82 L 201 51 L 221 16 L 230 9 L 236 7 L 213 60 L 203 99 L 225 74 L 255 72 L 235 86 L 224 103 L 222 115" fill="none" stroke="currentColor" stroke-width="8" stroke-linecap="round" stroke-linejoin="round"/>
</svg>
