<svg viewBox="0 0 256 256" xmlns="http://www.w3.org/2000/svg" role="img" aria-label="grass">
  <path d="M 115 0 L 114 126 L 104 251 L 105 200 L 102 170 L 49 29 L 43 20" fill="none" stroke="currentColor" stroke-width="8" stroke-linecap="round" stroke-linejoin="round"/>
  <path d="M 118 211 L 115 173 L 118 148 L 135 85 L 145 55 L 155 37 L 165 21 L 183 10" fill="none" stroke="currentColor" stroke-width="8" stroke-linecap="round" stroke-linejoin="round"/>
  <path d="M 104 246 L 110 218 L 140 181 L 186 138 L 216 114 L 255 94" fill="none" stroke="currentColor" stroke-width="8" stroke-linecap="round" stroke-linejoin="round"/>
  <path d="M 98 238 L 97 195 L 85 167 L 60 140 L 13 104 L 0 88" fill="none" stroke="currentColor" stroke-width="8" stroke-linecap="round" stroke-linejoin="round"/>
  <path d="M 108 206 L 115 186 L 139 146 L 184 86 L 200 76" fill="none" stroke="currentColor" stroke-width="8" stroke-linecap="round" stroke-linejoin="round"/>
  <path d="M 86 130 L 9 47" fill="none" stroke="currentColor" stroke-width="8" stroke-linecap="round" stroke-linejoin="round"/>
</svg>
