<svg viewBox="0 0 256 256" xmlns="http://www.w3.org/2000/svg" role="img" aria-label="grass">
  <path d="M 50 148 L 37 112 L 12 77 L 2 53 L 0 33 L 9 18 L 12 38 L 12 91 L 17 118 L 29 141 L 37 147 L 41 146" fill="none" stroke="currentColor" stroke-width="8" stroke-linecap="round" stroke-linejoin="round"/>
  <path d="M 49 141 L 54 135 L 60 117 L 62 82 L 68 44 L 81 14 L 95 4 L 102 4 L 104 14 L 68 94 L 61 130" fill="none" stroke="currentColor" stroke-width="8" stroke-linecap="round" stroke-linejoin="round"/>
  <path d="M 65 145 L 119 73 L 150 15" fill="none" stroke="currentColor" stroke-width="8" stroke-linecap="round" stroke-linejoin="round"/>
  <path d="M 143 143 L 172 84 L 194 21 L 193 31" fill="none" stroke="currentColor" stroke-width="8" stroke-linecap="round" stroke-linejoin="round"/>
  <path d="M 138 128 L 139 87 L 128 33 L 128 20 L 133 5" fill="none" stroke="currentColor" stroke-width="8" stroke-linecap="round" stroke-linejoin="round"/>
  <path d="M 167 131 L 244 25 L 255 0" fill="none" stroke="currentColor" stroke-width="8" stroke-linecap="round" stroke-linejoin="round"/>
</svg>
