<svg viewBox="0 0 256 256" xmlns="http://www.w3.org/2000/svg" role="img" aria-label="grass">
  <path d="M 255 28 L 249 11 L 237 0 L 234 3 L 237 20 L 212 5 L 213 17 L 200 13 L 186 3 L 197 18 L 199 27 L 158 6 L 168 18 L 118 4 L 139 20 L 118 20 L 87 12 L 108 28 L 48 12 L 60 21 L 55 21 L 13 15 L 38 28 L 0 24" fill="none" stroke="currentColor" stroke-width="8" stroke-linecap="round" stroke-linejoin="round"/>
  <path d="M 26 19 L 55 20 L 34 11 L 78 15 L 57 12 L 71 12 L 108 21 L 96 16 L 129 19 L 143 15" fill="none" stroke="currentColor" stroke-width="8" stroke-linecap="round" stroke-linejoin="round"/>
</svg>
