<svg viewBox="0 0 256 256" xmlns="http://www.w3.org/2000/svg" role="img" aria-label="squiggle">
  <path d="M 186 0 L 140 10 L 112 24 L 101 33 L 117 38 L 213 40 L 148 76 L 135 89 L 146 94 L 230 97 L 255 105 L 255 112 L 179 163 L 161 178 L 154 189 L 160 197 L 237 199" fill="none" stroke="currentColor" stroke-width="8" stroke-linecap="round" stroke-linejoin="round"/>
  <path d="M 31 88 L 3 107 L 1 114 L 15 115 L 45 101 L 52 94 L 41 97 L 34 104 L 31 111 L 35 117 L 66 119 L 86 113 L 85 121 L 92 127 L 113 133 L 131 131 L 128 132 L 128 142 L 136 146 L 160 148" fill="none" stroke="currentColor" stroke-width="8" stroke-linecap="round" stroke-linejoin="round"/>
</svg>
