<svg viewBox="0 0 256 256" xmlns="http://www.w3.org/2000/svg" role="img" aria-label="squiggle">
  <path d="M 39 147 L 32 147 L 30 139 L 36 123 L 49 107 L 65 94 L 83 86 L 99 86 L 112 93 L 120 107 L 126 129 L 122 103 L 118 92 L 112 87 L 95 89 L 61 120 L 48 124 L 36 120 L 28 106 L 26 90 L 30 70 L 45 51 L 92 16 L 122 5 L 146 0 L 161 1 L 167 7 L 167 21 L 160 38 L 127 87 L 105 109 L 84 119 L 65 117 L 68 101 L 83 81 L 106 59 L 137 37 L 195 13 L 222 11 L 221 19 L 189 67 L 164 98 L 136 118 L 109 126 L 87 125 L 74 113 L 72 96 L 78 78 L 96 57 L 151 27 L 182 18 L 208 16 L 226 20 L 234 29 L 235 40 L 227 59 L 184 104 L 157 124 L 130 137 L 108 141 L 111 131 L 147 96 L 199 68 L 225 59 L 252 59 L 255 66 L 248 83 L 205 135 L 177 164 L 148 185 L 124 194 L 110 195 L 105 187 L 109 166 L 122 143 L 143 122 L 169 107 L 193 97 L 211 94 L 223 95 L 227 104 L 222 123 L 205 144 L 164 174 L 77 203 L 55 205 L 52 193 L 54 172 L 66 148 L 83 125 L 105 107 L 126 99 L 139 100 L 142 105 L 139 121 L 126 138 L 106 155 L 53 184 L 30 191 L 14 192 L 3 188 L 0 172 L 1 143 L 13 110 L 29 79 L 52 51 L 74 29 L 100 13" fill="none" stroke="currentColor" stroke-width="8" stroke-linecap="round" stroke-linejoin="round"/>
</svg>
