<svg viewBox="0 0 256 256" xmlns="http://www.w3.org/2000/svg" role="img" aria-label="squiggle">
  <path d="M 163 196 L 164 178 L 158 151 L 139 117 L 106 84 L 36 49 L 0 44 L 0 63 L 17 104 L 47 143 L 89 167 L 122 170 L 147 162 L 152 133 L 139 84 L 106 40 L 66 11 L 28 1 L 8 1 L 3 6 L 13 38 L 46 71 L 94 95 L 140 107 L 172 110 L 142 127 L 76 179 L 73 166 L 75 87 L 91 47 L 117 17 L 139 5 L 150 0 L 116 21 L 91 43 L 80 58 L 80 70 L 87 80 L 119 83 L 201 83 L 229 98 L 239 120 L 239 144 L 196 168 L 167 172 L 163 164 L 176 146 L 204 141 L 232 144 L 251 162 L 255 187 L 246 210 L 220 225 L 179 232 L 145 233 L 96 180 L 121 141 L 158 101 L 242 37 L 246 29 L 158 45 L 90 47 L 65 42 L 53 11 L 59 18 L 34 122 L 23 247" fill="none" stroke="currentColor" stroke-width="8" stroke-linecap="round" stroke-linejoin="round"/>
</svg>
