<svg viewBox="0 0 256 256" xmlns="http://www.w3.org/2000/svg" role="img" aria-label="squiggle">
  <path d="M 220 5 L 226 16 L 227 35 L 218 54 L 203 70 L 182 81 L 150 87 L 133 77 L 124 62 L 119 42 L 122 18 L 133 11 L 156 10 L 192 17 L 197 23 L 197 30 L 189 43 L 169 53 L 158 53 L 144 41 L 133 23 L 131 9 L 134 3 L 158 0 L 188 10 L 205 21 L 207 29 L 201 36 L 189 44 L 170 50 L 156 49 L 152 46 L 150 34 L 158 26 L 171 24 L 178 28 L 181 34 L 171 36" fill="none" stroke="currentColor" stroke-width="8" stroke-linecap="round" stroke-linejoin="round"/>
  <path d="M 32 38 L 15 49 L 6 62 L 0 85 L 2 96 L 34 99 L 50 94 L 68 83 L 77 68 L 79 54 L 69 38 L 50 25 L 24 21 L 12 26 L 7 34 L 8 49 L 17 68 L 32 84 L 43 89 L 69 92 L 78 87 L 83 78 L 82 66 L 74 59 L 63 58 L 56 61 L 52 67 L 51 77 L 58 83 L 74 88 L 79 93" fill="none" stroke="currentColor" stroke-width="8" stroke-linecap="round" stroke-linejoin="round"/>
  <path d="M 255 55 L 252 69 L 235 105 L 213 131 L 195 118 L 171 87 L 179 90 L 203 110 L 211 98" fill="none" stroke="currentColor" stroke-width="8" stroke-linecap="round" stroke-linejoin="round"/>
</svg>
