<svg viewBox="0 0 256 256" xmlns="http://www.w3.org/2000/svg" role="img" aria-label="squiggle">
  <path d="M 155 19 L 134 11 L 121 9 L 100 22 L 90 37 L 72 72 L 66 93 L 68 111 L 73 124 L 85 139 L 104 148 L 118 151 L 138 148 L 163 136 L 180 120 L 185 110 L 188 84 L 182 73 L 165 59 L 139 53 L 128 56 L 121 64 L 115 90 L 116 99 L 125 103 L 145 102 L 163 95 L 168 87 L 165 78 L 159 70 L 150 66 L 135 72 L 129 89 L 132 94 L 141 96 L 159 88 L 160 85 L 146 73 L 138 70 L 130 86" fill="none" stroke="currentColor" stroke-width="8" stroke-linecap="round" stroke-linejoin="round"/>
  <path d="M 155 19 L 178 22 L 193 35 L 208 57 L 221 84 L 221 155 L 218 164 L 208 176 L 192 188 L 157 201 L 120 206 L 83 202 L 56 195 L 28 181 L 11 168 L 2 152 L 0 133 L 11 98 L 25 68 L 42 38 L 62 15 L 77 5 L 93 0 L 113 2 L 161 24 L 210 34 L 230 44 L 240 58 L 248 78 L 255 117 L 254 145" fill="none" stroke="currentColor" stroke-width="8" stroke-linecap="round" stroke-linejoin="round"/>
  <path d="M 191 84 L 153 71 L 137 70 L 122 77 L 114 84 L 101 107 L 97 139 L 100 157 L 117 190 L 128 203 L 140 209 L 161 209 L 170 201 L 175 188 L 185 154 L 185 96 L 179 65 L 161 30 L 154 26 L 139 29 L 119 50 L 102 88 L 92 133 L 92 177 L 107 219 L 118 220 L 128 209 L 139 186 L 143 168 L 148 103 L 143 35 L 132 15 L 116 16 L 105 22 L 77 49 L 62 71 L 41 118 L 36 138 L 38 166 L 53 181 L 75 188 L 87 186 L 112 170 L 130 140 L 143 83 L 140 43 L 128 16 L 109 3 L 98 2 L 74 9 L 49 33 L 38 52 L 20 101 L 18 151 L 21 169 L 34 192 L 41 198 L 61 204 L 72 204 L 109 192 L 143 158 L 155 140 L 160 123 L 156 54 L 151 41 L 135 19 L 112 13 L 99 16 L 59 59 L 39 108 L 35 134 L 67 194 L 79 194 L 104 189 L 142 161 L 154 148 L 172 97 L 179 61 L 180 34 L 172 19 L 144 19 L 123 39 L 107 71 L 102 90 L 100 109 L 103 140 L 114 164 L 131 178 L 141 178 L 161 171 L 192 146 L 209 121 L 226 71 L 230 43 L 225 24 L 220 19 L 206 20 L 175 50 L 154 97 L 151 113 L 153 142 L 161 163 L 177 176 L 184 178 L 203 172 L 221 155 L 242 113 L 252 58 L 251 30 L 246 17 L 240 10 L 219 4 L 174 27 L 156 42 L 128 80 L 108 114 L 102 128 L 100 149 L 103 159 L 115 172 L 122 176 L 140 176 L 158 164 L 166 154 L 180 123 L 188 66 L 184 37 L 173 22 L 146 19 L 120 30 L 92 48 L 78 61 L 57 89 L 48 121 L 50 155 L 64 184 L 82 201 L 103 205 L 119 198 L 128 190 L 144 149 L 145 89 L 132 35 L 118 12 L 110 6 L 91 5 L 69 16 L 45 40 L 34 57 L 19 92 L 13 129 L 14 144 L 21 166 L 35 179 L 52 183 L 61 183 L 80 173 L 97 154 L 115 102 L 124 46 L 123 20 L 121 14 L 112 9 L 100 13 L 91 21 L 60 63 L 45 104 L 39 141 L 43 166 L 48 177 L 62 190 L 69 194 L 98 192 L 107 188 L 124 171 L 143 126 L 149 89 L 150 46 L 146 33 L 140 35" fill="none" stroke="currentColor" stroke-width="8" stroke-linecap="round" stroke-linejoin="round"/>
</svg>
