<svg viewBox="0 0 256 256" xmlns="http://www.w3.org/2000/svg" role="img" aria-label="squiggle">
  <path d="M 145 45 L 132 39 L 97 35 L 50 36 L 13 46 L 0 56 L 0 62 L 7 70 L 27 77 L 101 88 L 128 94 L 134 99 L 108 111 L 39 131 L 18 141 L 18 150 L 103 179 L 126 192 L 126 200 L 51 224 L 29 235 L 20 245 L 20 255" fill="none" stroke="currentColor" stroke-width="8" stroke-linecap="round" stroke-linejoin="round"/>
  <path d="M 192 24 L 209 0 L 182 56 L 168 104 L 213 29 L 216 36 L 190 111 L 187 136 L 210 107 L 237 61 L 219 108 L 209 154 L 208 189 L 231 176 L 238 162 L 234 212 L 238 218" fill="none" stroke="currentColor" stroke-width="8" stroke-linecap="round" stroke-linejoin="round"/>
</svg>
