<svg viewBox="0 0 256 256" xmlns="http://www.w3.org/2000/svg" role="img" aria-label="squiggle">
  <path d="M 0 88 L 30 48 L 45 40 L 56 47 L 64 146 L 70 167 L 92 172 L 111 167 L 143 144 L 158 115 L 160 96 L 150 21 L 131 11 L 100 12 L 96 10 L 138 4 L 162 6 L 198 15 L 213 31 L 215 52 L 205 105 L 204 135 L 195 158 L 184 175 L 170 205 L 131 200 L 100 181 L 90 179 L 75 183 L 72 203 L 85 230 L 127 253 L 147 255 L 184 245 L 211 219 L 214 207 L 196 205 L 135 221 L 67 222 L 35 203 L 24 182 L 20 162 L 32 131 L 58 112 L 102 101 L 88 73 L 68 57 L 53 55 L 23 62 L 15 57 L 11 42 L 12 25 L 54 0" fill="none" stroke="currentColor" stroke-width="8" stroke-linecap="round" stroke-linejoin="round"/>
</svg>
