<svg viewBox="0 0 256 256" xmlns="http://www.w3.org/2000/svg" role="img" aria-label="squiggle">
  <path d="M 0 18 L 19 21 L 34 32 L 37 49 L 30 88 L 30 106 L 39 116 L 54 124 L 69 141 L 81 144 L 99 138 L 120 114 L 124 105 L 121 103 L 109 110 L 104 116 L 105 119 L 130 126 L 157 139 L 170 152 L 168 155 L 173 159 L 202 158 L 229 151 L 238 144" fill="none" stroke="currentColor" stroke-width="8" stroke-linecap="round" stroke-linejoin="round"/>
  <path d="M 128 27 L 129 33 L 132 32 L 164 3 L 171 0 L 177 6 L 187 40 L 195 42 L 214 37 L 230 57 L 242 59 L 255 55" fill="none" stroke="currentColor" stroke-width="8" stroke-linecap="round" stroke-linejoin="round"/>
</svg>
