<svg viewBox="0 0 256 256" xmlns="http://www.w3.org/2000/svg" role="img" aria-label="squiggle">
  <path d="M 0 31 L 3 19 L 9 13 L 33 10 L 40 21 L 39 25 L 35 28 L 29 25 L 32 16 L 42 9 L 56 7 L 66 9 L 72 17 L 73 29 L 67 33 L 57 24 L 51 11 L 59 3 L 68 1 L 89 3 L 102 9 L 110 26 L 107 31 L 101 32 L 90 23 L 92 10 L 104 2 L 119 0 L 131 4 L 142 18 L 145 32 L 131 34 L 123 27 L 121 14 L 129 6 L 143 3 L 153 5 L 166 13 L 172 30 L 165 35 L 158 26 L 160 15 L 172 7 L 197 1 L 210 2 L 217 10 L 220 27 L 214 33 L 208 34 L 202 29 L 205 14 L 223 6 L 246 8 L 255 26" fill="none" stroke="currentColor" stroke-width="8" stroke-linecap="round" stroke-linejoin="round"/>
</svg>
