<?xml version="1.0" encoding="UTF-8"?>
<svg xmlns="http://www.w3.org/2000/svg" viewBox="0 0 256 256" fill="none" stroke="#9a8561" stroke-linecap="round" stroke-linejoin="round">
  <path d="M 105.1 112.1 C 98.1 146.9 112.2 188.6 128 195.6 C 143.8 188.6 157.9 146.9 150.9 112.1
M 115.7 105.1 L 140.3 105.1
M 128 105.1 L 128 70.3" stroke-width="5" />
  <path d="M 128 109 Q 128 109 131.4 109.2 Q 134.9 109.4 137.4 111.8 Q 139.8 114.2 141.3 117.0 Q 142.8 119.9 144.2 122.9 Q 145.5 126 145.0 129.4 Q 144.5 132.8 142.0 135.2 Q 139.5 137.5 136.9 139.3 Q 134.3 141.1 131.1 142.5 Q 128 143.9 124.7 143.0 Q 121.3 142.1 119.0 139.7 Q 116.7 137.3 114.6 134.9 Q 112.4 132.4 111.2 129.2 Q 110 126 111.2 122.8 Q 112.4 119.5 114.5 117.1 Q 116.7 114.7 119.0 112.3 Q 121.4 110 124.7 109.0 Z" stroke-width="5" />
</svg>
