<svg viewBox="0 0 256 256" xmlns="http://www.w3.org/2000/svg" role="img" aria-label="lantern">
  <path d="M 15 100 L 27 47 L 46 22 L 62 10 L 86 1 L 113 0 L 124 6 L 133 17 L 140 40 L 150 108 L 129 111 L 49 98 L 18 98 L 10 105 L 8 115 L 11 158 L 0 205 L 1 231 L 16 242 L 101 254 L 130 255 L 146 252 L 152 250 L 160 240 L 161 224 L 155 204 L 152 177 L 153 112" fill="none" stroke="currentColor" stroke-width="8" stroke-linecap="round" stroke-linejoin="round"/>
  <path d="M 72 122 L 58 144 L 51 161 L 48 199 L 51 209 L 58 215 L 83 218 L 98 214 L 112 200 L 121 182 L 123 160 L 116 143 L 88 129" fill="none" stroke="currentColor" stroke-width="8" stroke-linecap="round" stroke-linejoin="round"/>
</svg>
