<svg viewBox="0 0 256 256" xmlns="http://www.w3.org/2000/svg" role="img" aria-label="lantern">
  <path d="M 81 99 L 73 89 L 70 80 L 69 46 L 114 48 L 142 55 L 155 63 L 139 178 L 129 198 L 82 188 L 76 183 L 72 136 L 80 86" fill="none" stroke="currentColor" stroke-width="8" stroke-linecap="round" stroke-linejoin="round"/>
  <path d="M 75 51 L 77 36 L 97 12 L 125 2 L 150 0 L 158 6 L 160 17 L 149 63" fill="none" stroke="currentColor" stroke-width="8" stroke-linecap="round" stroke-linejoin="round"/>
  <path d="M 112 85 L 100 126 L 98 148 L 101 153 L 109 154 L 121 146 L 126 110 L 124 92 L 106 80" fill="none" stroke="currentColor" stroke-width="8" stroke-linecap="round" stroke-linejoin="round"/>
  <path d="M 160 91 L 219 83" fill="none" stroke="currentColor" stroke-width="8" stroke-linecap="round" stroke-linejoin="round"/>
  <path d="M 167 108 L 164 112 L 237 111" fill="none" stroke="currentColor" stroke-width="8" stroke-linecap="round" stroke-linejoin="round"/>
  <path d="M 177 138 L 216 134 L 233 135 L 247 141" fill="none" stroke="currentColor" stroke-width="8" stroke-linecap="round" stroke-linejoin="round"/>
  <path d="M 191 164 L 255 163" fill="none" stroke="currentColor" stroke-width="8" stroke-linecap="round" stroke-linejoin="round"/>
  <path d="M 44 92 L 0 93" fill="none" stroke="currentColor" stroke-width="8" stroke-linecap="round" stroke-linejoin="round"/>
  <path d="M 68 123 L 65 124" fill="none" stroke="currentColor" stroke-width="8" stroke-linecap="round" stroke-linejoin="round"/>
</svg>
