<svg viewBox="0 0 256 256" xmlns="http://www.w3.org/2000/svg" role="img" aria-label="lantern">
  <path d="M 18 90 L 5 131 L 0 158 L 35 152 L 92 151 L 95 144 L 100 84 L 87 83 L 35 91 L 12 90" fill="none" stroke="currentColor" stroke-width="8" stroke-linecap="round" stroke-linejoin="round"/>
  <path d="M 29 152 L 26 164 L 23 210 L 15 253 L 62 255 L 66 249 L 67 186 L 72 150" fill="none" stroke="currentColor" stroke-width="8" stroke-linecap="round" stroke-linejoin="round"/>
  <path d="M 30 76 L 22 36" fill="none" stroke="currentColor" stroke-width="8" stroke-linecap="round" stroke-linejoin="round"/>
  <path d="M 82 59 L 77 49 L 75 21 L 82 9" fill="none" stroke="currentColor" stroke-width="8" stroke-linecap="round" stroke-linejoin="round"/>
  <path d="M 51 72 L 54 36 L 57 28" fill="none" stroke="currentColor" stroke-width="8" stroke-linecap="round" stroke-linejoin="round"/>
  <path d="M 110 77 L 129 0" fill="none" stroke="currentColor" stroke-width="8" stroke-linecap="round" stroke-linejoin="round"/>
  <path d="M 71 107 L 55 107 L 45 111 L 38 122 L 35 135 L 41 146 L 52 148 L 62 143 L 74 129 L 82 105" fill="none" stroke="currentColor" stroke-width="8" stroke-linecap="round" stroke-linejoin="round"/>
</svg>
