<svg viewBox="0 0 256 256" xmlns="http://www.w3.org/2000/svg" role="img" aria-label="lantern">
  <path d="M 61 85 L 125 84 L 177 111 L 187 128 L 185 195 L 171 223 L 151 243 L 141 248 L 126 251 L 93 250 L 53 240 L 22 228 L 15 218 L 0 168 L 3 137 L 18 112 L 48 88 L 70 87" fill="none" stroke="currentColor" stroke-width="8" stroke-linecap="round" stroke-linejoin="round"/>
  <path d="M 70 87 L 52 84 L 49 74 L 49 45 L 53 25 L 58 10 L 66 1 L 100 1 L 117 18 L 121 33 L 122 80" fill="none" stroke="currentColor" stroke-width="8" stroke-linecap="round" stroke-linejoin="round"/>
  <path d="M 122 80 L 135 104 L 135 153 L 123 207 L 104 245" fill="none" stroke="currentColor" stroke-width="8" stroke-linecap="round" stroke-linejoin="round"/>
  <path d="M 64 83 L 45 128 L 42 184 L 42 209 L 46 231 L 55 247 L 62 249" fill="none" stroke="currentColor" stroke-width="8" stroke-linecap="round" stroke-linejoin="round"/>
  <path d="M 89 245 L 89 240 L 68 220 L 64 202 L 75 197 L 91 169 L 90 178 L 99 182 L 111 169 L 116 169 L 120 173 L 112 187 L 114 191 L 127 195 L 129 201 L 110 229 L 76 255" fill="none" stroke="currentColor" stroke-width="8" stroke-linecap="round" stroke-linejoin="round"/>
</svg>
