<svg viewBox="0 0 256 256" xmlns="http://www.w3.org/2000/svg" role="img" aria-label="lantern">
  <path d="M 50 91 L 53 100 L 52 125 L 41 209" fill="none" stroke="currentColor" stroke-width="8" stroke-linecap="round" stroke-linejoin="round"/>
  <path d="M 136 67 L 132 93 L 132 128 L 139 159 L 154 195" fill="none" stroke="currentColor" stroke-width="8" stroke-linecap="round" stroke-linejoin="round"/>
  <path d="M 163 201 L 125 198 L 103 199 L 1 221 L 1 235 L 4 243 L 11 251 L 19 255 L 41 252 L 102 253 L 141 249 L 178 238 L 180 226 L 179 210 L 169 192" fill="none" stroke="currentColor" stroke-width="8" stroke-linecap="round" stroke-linejoin="round"/>
  <path d="M 104 184 L 101 171 L 87 150" fill="none" stroke="currentColor" stroke-width="8" stroke-linecap="round" stroke-linejoin="round"/>
  <path d="M 91 146 L 87 153 L 84 182" fill="none" stroke="currentColor" stroke-width="8" stroke-linecap="round" stroke-linejoin="round"/>
  <path d="M 52 95 L 4 81 L 0 70 L 3 65 L 14 59 L 52 53 L 58 37 L 59 9 L 65 5 L 91 5 L 125 0 L 134 35 L 174 41 L 194 51 L 194 56 L 188 60 L 156 63 L 144 67" fill="none" stroke="currentColor" stroke-width="8" stroke-linecap="round" stroke-linejoin="round"/>
</svg>
