<svg viewBox="0 0 256 256" xmlns="http://www.w3.org/2000/svg" role="img" aria-label="lantern">
  <path d="M 170 140 L 102 140 L 80 137 L 81 108 L 75 46 L 78 44 L 86 48 L 127 56 L 165 56 L 169 130 L 167 128" fill="none" stroke="currentColor" stroke-width="8" stroke-linecap="round" stroke-linejoin="round"/>
  <path d="M 162 49 L 156 38 L 140 35 L 111 35 L 73 41 L 72 45 L 74 45" fill="none" stroke="currentColor" stroke-width="8" stroke-linecap="round" stroke-linejoin="round"/>
  <path d="M 120 118 L 112 109 L 111 96 L 119 91 L 122 93 L 121 114" fill="none" stroke="currentColor" stroke-width="8" stroke-linecap="round" stroke-linejoin="round"/>
  <path d="M 111 41 L 102 6 L 91 0 L 30 10 L 15 28 L 0 141 L 1 190 L 9 250 L 12 255" fill="none" stroke="currentColor" stroke-width="8" stroke-linecap="round" stroke-linejoin="round"/>
</svg>
