<svg viewBox="0 0 256 256" xmlns="http://www.w3.org/2000/svg" role="img" aria-label="lantern">
  <path d="M 36 84 L 39 82 L 49 51 L 59 6 L 67 0 L 78 0 L 108 10 L 141 33 L 145 43 L 145 59 L 127 96" fill="none" stroke="currentColor" stroke-width="8" stroke-linecap="round" stroke-linejoin="round"/>
  <path d="M 7 91 L 34 87 L 92 86 L 122 95 L 137 103 L 155 120 L 157 182 L 140 226 L 119 246 L 107 251 L 90 255 L 62 253 L 22 239 L 2 209 L 0 162 L 7 132 L 9 96" fill="none" stroke="currentColor" stroke-width="8" stroke-linecap="round" stroke-linejoin="round"/>
  <path d="M 53 239 L 50 245 L 59 244 L 62 247 L 56 251 L 54 243 L 57 239 L 64 239 L 67 245 L 65 247 L 64 244" fill="none" stroke="currentColor" stroke-width="8" stroke-linecap="round" stroke-linejoin="round"/>
  <path d="M 54 242 L 55 215 L 63 190" fill="none" stroke="currentColor" stroke-width="8" stroke-linecap="round" stroke-linejoin="round"/>
  <path d="M 72 205 L 72 246 L 70 249" fill="none" stroke="currentColor" stroke-width="8" stroke-linecap="round" stroke-linejoin="round"/>
  <path d="M 60 200 L 55 191 L 56 178 L 59 173 L 64 189" fill="none" stroke="currentColor" stroke-width="8" stroke-linecap="round" stroke-linejoin="round"/>
</svg>
