<svg viewBox="0 0 256 256" xmlns="http://www.w3.org/2000/svg" role="img" aria-label="lantern">
  <path d="M 15 47 L 18 52 L 27 57 L 55 66 L 92 69 L 105 66 L 127 54 L 141 39 L 145 31 L 145 18 L 134 7 L 125 3 L 102 0 L 68 4 L 42 13 L 22 25 L 14 39 L 11 53 L 0 150 L 2 191 L 4 199 L 15 201" fill="none" stroke="currentColor" stroke-width="8" stroke-linecap="round" stroke-linejoin="round"/>
  <path d="M 155 25 L 155 75 L 138 196 L 138 219 L 146 232 L 146 241 L 97 254 L 31 253 L 23 248 L 12 236 L 3 210 L 4 201 L 13 189" fill="none" stroke="currentColor" stroke-width="8" stroke-linecap="round" stroke-linejoin="round"/>
  <path d="M 53 236 L 55 217 L 48 170 L 95 164 L 105 238 L 108 242 L 110 238" fill="none" stroke="currentColor" stroke-width="8" stroke-linecap="round" stroke-linejoin="round"/>
  <path d="M 63 156 L 50 125 L 48 98 L 57 89 L 68 87 L 72 90 L 76 102 L 75 122 L 66 143 L 70 157" fill="none" stroke="currentColor" stroke-width="8" stroke-linecap="round" stroke-linejoin="round"/>
</svg>
