<?xml version="1.0" encoding="UTF-8"?>
<svg xmlns="http://www.w3.org/2000/svg" viewBox="0 0 256 256" fill="none" stroke="#9a8561" stroke-linecap="round" stroke-linejoin="round">
  <path d="M 104.6 112.3 C 97.4 146.5 111.8 187.6 128 194.4 C 144.2 187.6 158.6 146.5 151.4 112.3
M 115.4 105.5 L 140.6 105.5
M 128 105.5 L 128 71.3" stroke-width="5" />
  <path d="M 128 110 Q 128 110 131.2 110.2 Q 134.5 110.3 136.8 112.6 Q 139.1 114.9 140.6 117.5 Q 142 120.2 143.2 123.1 Q 144.5 126 144.0 129.2 Q 143.5 132.4 141.2 134.6 Q 138.8 136.8 136.4 138.5 Q 133.9 140.2 130.9 141.5 Q 128 142.8 124.9 142.0 Q 121.7 141.1 119.5 138.9 Q 117.3 136.7 115.3 134.4 Q 113.4 132.1 112.2 129.0 Q 111 126 112.2 123.0 Q 113.3 119.9 115.3 117.6 Q 117.3 115.3 119.5 113.1 Q 121.7 110.9 124.9 110.0 Z" stroke-width="5" />
</svg>
