<?xml version="1.0" encoding="UTF-8"?>
<svg xmlns="http://www.w3.org/2000/svg" viewBox="0 0 256 256" fill="none" stroke="#a06f80" stroke-linecap="round" stroke-linejoin="round">
  <path d="M 128 111.7 Q 128 111.7 131.1 111.5 Q 134.1 111.2 136.0 113.7 Q 137.8 116.2 138.8 118.7 Q 139.7 121.1 141.4 123.6 Q 143.1 126 142.8 129.0 Q 142.5 132 139.9 133.6 Q 137.2 135.2 135.2 136.7 Q 133.1 138.2 130.5 140.0 Q 128 141.8 125.1 140.8 Q 122.3 139.8 120.7 137.4 Q 119.1 134.9 117.1 133.1 Q 115 131.4 113.5 128.7 Q 112 126 113.5 123.3 Q 115 120.6 117.0 118.8 Q 119.1 117.1 120.7 114.7 Q 122.3 112.2 125.1 111.2 Z
M 123 105.6 Q 123 105.6 125.5 94.8 Q 128 84 130.5 94.8 Z
M 145.9 114.9 Q 145.9 114.9 156.9 114.0 Q 167.9 113 158.4 118.7 Z
M 144 139.6 Q 144 139.6 148.4 149.8 Q 152.7 160 144.3 152.7 Z
M 120 145.4 Q 120 145.4 111.7 152.7 Q 103.3 160 107.6 149.8 Z
M 107.1 124.4 Q 107.1 124.4 97.6 118.7 Q 88.1 113 99.1 114.0 Z" stroke-width="5" />
  <path d="M 128 115 Q 128 115 130.3 115.0 Q 132.5 115 134.1 116.7 Q 135.6 118.4 136.5 120.2 Q 137.4 122.1 138.4 124.1 Q 139.4 126 139.1 128.2 Q 138.8 130.5 137.1 131.9 Q 135.3 133.3 133.7 134.5 Q 132 135.7 130.0 136.7 Q 128 137.8 125.8 137.1 Q 123.7 136.5 122.2 134.8 Q 120.8 133.2 119.4 131.7 Q 118 130.2 117.0 128.1 Q 116.1 126 117.0 123.9 Q 117.9 121.8 119.4 120.3 Q 120.8 118.8 122.2 117.2 Q 123.7 115.5 125.8 114.9 Z" stroke-width="5" />
</svg>
