<svg viewBox="0 0 256 256" xmlns="http://www.w3.org/2000/svg" role="img" aria-label="flower">
  <path d="M 99 73 L 94 84 L 95 97 L 99 103 L 119 106 L 127 95 L 128 82 L 123 76 L 108 72" fill="none" stroke="currentColor" stroke-width="8" stroke-linecap="round" stroke-linejoin="round"/>
  <path d="M 113 74 L 120 60 L 145 32 L 164 18 L 175 18 L 177 38 L 170 57 L 161 70 L 132 96" fill="none" stroke="currentColor" stroke-width="8" stroke-linecap="round" stroke-linejoin="round"/>
  <path d="M 135 105 L 162 110 L 196 128 L 202 137 L 201 144 L 195 150 L 178 157 L 156 154 L 135 141 L 114 119" fill="none" stroke="currentColor" stroke-width="8" stroke-linecap="round" stroke-linejoin="round"/>
  <path d="M 97 108 L 87 113 L 75 128 L 70 158 L 73 172 L 83 178 L 96 179 L 108 170 L 117 153 L 125 121 L 126 102" fill="none" stroke="currentColor" stroke-width="8" stroke-linecap="round" stroke-linejoin="round"/>
  <path d="M 93 96 L 68 108 L 12 122 L 1 119 L 0 109 L 18 89 L 52 71 L 81 68 L 98 76" fill="none" stroke="currentColor" stroke-width="8" stroke-linecap="round" stroke-linejoin="round"/>
  <path d="M 107 82 L 90 70 L 57 37 L 52 27 L 55 15 L 78 1 L 95 0 L 102 3 L 114 23 L 123 62" fill="none" stroke="currentColor" stroke-width="8" stroke-linecap="round" stroke-linejoin="round"/>
  <path d="M 121 105 L 125 122 L 127 255" fill="none" stroke="currentColor" stroke-width="8" stroke-linecap="round" stroke-linejoin="round"/>
</svg>
