<svg viewBox="0 0 256 256" xmlns="http://www.w3.org/2000/svg" role="img" aria-label="flower">
  <path d="M 124 36 L 113 36 L 97 58 L 93 66 L 91 85 L 101 104 L 134 105 L 159 58 L 168 32 L 169 13 L 158 3 L 145 0 L 131 1 L 122 4 L 108 21 L 106 47" fill="none" stroke="currentColor" stroke-width="8" stroke-linecap="round" stroke-linejoin="round"/>
  <path d="M 106 42 L 101 32 L 88 26 L 57 18 L 22 17 L 11 25 L 3 40 L 0 73 L 4 82 L 18 90 L 46 94 L 99 94 L 77 121 L 75 134 L 79 139 L 98 138 L 109 131 L 129 108 L 135 94 L 169 119 L 194 126 L 201 114 L 201 98 L 192 82 L 165 61 L 137 48 L 124 46 L 189 46 L 229 40 L 233 21 L 225 11 L 200 1 L 176 2" fill="none" stroke="currentColor" stroke-width="8" stroke-linecap="round" stroke-linejoin="round"/>
  <path d="M 176 2 L 172 8" fill="none" stroke="currentColor" stroke-width="8" stroke-linecap="round" stroke-linejoin="round"/>
  <path d="M 133 103 L 149 191 L 150 255" fill="none" stroke="currentColor" stroke-width="8" stroke-linecap="round" stroke-linejoin="round"/>
</svg>
