<svg viewBox="0 0 256 256" xmlns="http://www.w3.org/2000/svg" role="img" aria-label="flower">
  <path d="M 86 104 L 94 117 L 105 192 L 124 255" fill="none" stroke="currentColor" stroke-width="8" stroke-linecap="round" stroke-linejoin="round"/>
  <path d="M 79 100 L 74 104 L 56 100 L 42 80 L 43 59 L 68 42 L 79 42 L 93 47 L 109 66 L 113 92 L 94 103 L 81 104" fill="none" stroke="currentColor" stroke-width="8" stroke-linecap="round" stroke-linejoin="round"/>
  <path d="M 64 44 L 67 13 L 75 3 L 85 0 L 100 2 L 104 7 L 106 21 L 120 21 L 135 30 L 139 40 L 139 50 L 125 53 L 140 58 L 145 63 L 146 67 L 135 71 L 133 76 L 150 104 L 156 123 L 155 129 L 150 135 L 136 142 L 125 142 L 116 137 L 120 136 L 115 140 L 103 140 L 77 134 L 51 119 L 47 109 L 39 119 L 25 124 L 9 120 L 7 99 L 12 88 L 18 84 L 1 65 L 0 44 L 9 35 L 19 33 L 26 24 L 32 23 L 42 27 L 53 46" fill="none" stroke="currentColor" stroke-width="8" stroke-linecap="round" stroke-linejoin="round"/>
  <path d="M 55 46 L 55 46" fill="none" stroke="currentColor" stroke-width="8" stroke-linecap="round" stroke-linejoin="round"/>
</svg>
