<svg viewBox="0 0 256 256" xmlns="http://www.w3.org/2000/svg" role="img" aria-label="flower">
  <path d="M 71 85 L 79 209 L 83 229 L 97 255" fill="none" stroke="currentColor" stroke-width="8" stroke-linecap="round" stroke-linejoin="round"/>
  <path d="M 34 80 L 31 61 L 46 44 L 74 29 L 101 26 L 111 31 L 117 41 L 117 54 L 112 73 L 99 92 L 64 119 L 49 124 L 39 124 L 33 120 L 30 107 L 31 90 L 38 74 L 56 53" fill="none" stroke="currentColor" stroke-width="8" stroke-linecap="round" stroke-linejoin="round"/>
  <path d="M 76 25 L 86 17 L 103 13 L 120 14 L 129 24 L 128 45 L 114 66 L 128 67 L 140 73 L 143 80 L 142 98 L 128 116 L 112 125 L 99 127 L 99 116 L 79 128 L 49 132 L 44 116 L 4 116 L 0 105 L 1 98 L 10 86 L 3 77 L 3 58 L 18 34 L 33 26 L 33 16 L 39 8 L 54 2 L 73 1 L 90 11 L 103 2 L 113 0 L 117 3 L 117 11" fill="none" stroke="currentColor" stroke-width="8" stroke-linecap="round" stroke-linejoin="round"/>
</svg>
