<svg viewBox="0 0 256 256" xmlns="http://www.w3.org/2000/svg" role="img" aria-label="flower">
  <path d="M 102 103 L 132 235 L 140 255" fill="none" stroke="currentColor" stroke-width="8" stroke-linecap="round" stroke-linejoin="round"/>
  <path d="M 79 56 L 91 48 L 104 44 L 128 43 L 150 60 L 157 81 L 156 104 L 141 128 L 119 147 L 107 153 L 85 157 L 63 151 L 54 142 L 49 128 L 45 113 L 45 89 L 59 58" fill="none" stroke="currentColor" stroke-width="8" stroke-linecap="round" stroke-linejoin="round"/>
  <path d="M 70 144 L 66 147 L 54 192 L 39 197 L 27 191 L 15 172 L 8 128 L 23 114 L 45 109 L 36 115 L 28 116 L 19 116 L 7 109 L 0 97 L 2 72 L 20 50 L 39 40 L 63 37 L 74 43 L 69 41 L 69 30 L 77 13 L 90 4 L 119 0 L 132 5 L 137 17 L 137 38 L 132 44 L 147 28 L 168 18 L 199 15 L 211 19 L 215 23 L 218 30 L 218 45 L 208 64 L 181 82 L 150 89 L 173 88 L 205 101 L 217 118 L 218 137 L 213 147 L 205 155 L 186 163 L 162 163 L 138 147 L 131 136 L 130 128 L 136 137 L 138 179 L 129 192 L 121 196 L 99 198 L 89 197 L 73 186 L 64 171 L 64 153 L 83 129" fill="none" stroke="currentColor" stroke-width="8" stroke-linecap="round" stroke-linejoin="round"/>
</svg>
