<svg viewBox="0 0 256 256" xmlns="http://www.w3.org/2000/svg" role="img" aria-label="flower">
  <path d="M 84 103 L 83 89 L 98 72 L 119 68 L 129 73 L 133 81 L 134 92 L 123 101 L 134 97 L 150 97 L 159 100 L 168 110 L 168 129 L 150 144 L 158 143 L 164 146 L 169 167 L 157 183 L 138 191 L 117 192 L 107 186 L 102 173 L 110 168 L 113 176 L 102 182 L 83 183 L 68 180 L 59 173 L 57 162 L 66 152 L 72 150 L 57 153 L 45 149 L 35 137 L 35 121 L 43 104 L 54 97 L 73 95 L 89 105" fill="none" stroke="currentColor" stroke-width="8" stroke-linecap="round" stroke-linejoin="round"/>
  <path d="M 123 98 L 110 97 L 92 110 L 82 131 L 81 145 L 86 154 L 94 160 L 113 162 L 126 156 L 138 145 L 144 132 L 143 119 L 133 110 L 117 106" fill="none" stroke="currentColor" stroke-width="8" stroke-linecap="round" stroke-linejoin="round"/>
  <path d="M 107 174 L 112 222 L 107 255" fill="none" stroke="currentColor" stroke-width="8" stroke-linecap="round" stroke-linejoin="round"/>
  <path d="M 0 50 L 18 29 L 27 11 L 27 4 L 23 0 L 19 3 L 16 11 L 12 61 L 4 86 L 2 87 L 0 82 L 8 68 L 36 43 L 62 12 L 62 16" fill="none" stroke="currentColor" stroke-width="8" stroke-linecap="round" stroke-linejoin="round"/>
</svg>
