<svg viewBox="0 0 256 256" xmlns="http://www.w3.org/2000/svg" role="img" aria-label="flower">
  <path d="M 74 104 L 76 255" fill="none" stroke="currentColor" stroke-width="8" stroke-linecap="round" stroke-linejoin="round"/>
  <path d="M 73 96 L 95 111 L 102 111 L 125 101 L 136 101 L 158 126 L 167 122 L 172 115 L 176 97 L 171 89 L 144 69 L 115 67 L 112 63 L 122 41 L 122 26 L 119 22 L 92 4 L 73 0 L 64 7 L 60 24 L 75 45 L 5 37 L 0 47 L 2 64 L 10 77 L 36 79 L 44 74 L 31 81 L 17 95 L 11 111 L 12 124 L 22 129 L 55 132 L 64 121" fill="none" stroke="currentColor" stroke-width="8" stroke-linecap="round" stroke-linejoin="round"/>
</svg>
