<svg viewBox="0 0 256 256" xmlns="http://www.w3.org/2000/svg" role="img" aria-label="flower">
  <path d="M 37 255 L 26 247 L 26 196 L 40 131 L 55 93 L 59 88" fill="none" stroke="currentColor" stroke-width="8" stroke-linecap="round" stroke-linejoin="round"/>
  <path d="M 33 248 L 27 235 L 46 199 L 58 186 L 70 175 L 98 165 L 97 179 L 47 227 L 32 249" fill="none" stroke="currentColor" stroke-width="8" stroke-linecap="round" stroke-linejoin="round"/>
  <path d="M 96 55 L 85 48 L 70 50 L 51 65 L 45 75 L 47 95 L 58 99 L 69 99 L 82 96 L 91 88 L 95 76 L 95 61 L 77 58" fill="none" stroke="currentColor" stroke-width="8" stroke-linecap="round" stroke-linejoin="round"/>
  <path d="M 72 94 L 66 107 L 70 120 L 77 128 L 92 135 L 110 135 L 118 127 L 127 103 L 127 87 L 123 78 L 106 74 L 124 46 L 127 24 L 116 18 L 109 18 L 96 23 L 88 31 L 88 12 L 82 5 L 49 0 L 30 5 L 19 21 L 17 41 L 19 48 L 29 52 L 15 55 L 3 68 L 0 79 L 1 96 L 31 97 L 49 87 L 37 91 L 31 99 L 24 110 L 23 120 L 33 127 L 43 128 L 62 128 L 77 120" fill="none" stroke="currentColor" stroke-width="8" stroke-linecap="round" stroke-linejoin="round"/>
</svg>
