<svg viewBox="0 0 256 256" xmlns="http://www.w3.org/2000/svg" role="img" aria-label="flower">
  <path d="M 102 118 L 97 115 L 92 105 L 89 54 L 110 17 L 123 4 L 149 0 L 160 2 L 170 8 L 187 27 L 192 42 L 191 55 L 159 85 L 94 123" fill="none" stroke="currentColor" stroke-width="8" stroke-linecap="round" stroke-linejoin="round"/>
  <path d="M 109 113 L 116 103 L 125 98 L 207 59 L 231 59 L 244 67 L 249 74 L 255 93 L 253 121 L 246 131 L 215 150 L 164 153 L 150 150 L 112 131 L 103 117 L 158 173 L 169 201 L 169 223 L 143 228 L 96 228 L 87 224 L 82 217 L 80 178 L 85 151 L 117 102 L 118 107 L 101 130 L 79 149 L 4 189 L 0 174 L 2 133 L 7 118 L 13 112 L 37 102 L 65 101 L 83 110 L 94 123 L 89 123 L 72 113 L 35 78 L 28 61 L 28 48 L 29 44 L 40 33 L 63 28 L 74 35 L 86 58 L 98 102 L 104 109 L 100 114 L 99 110 L 104 108 L 109 108 L 109 113 L 102 117 L 101 112 L 103 101 L 108 99 L 109 116 L 95 127 L 82 129 L 79 119 L 90 105 L 105 96 L 121 97 L 121 115 L 114 123 L 100 125 L 96 117 L 96 107 L 106 99 L 118 99 L 118 111 L 114 117 L 103 121 L 101 113 L 103 106 L 116 101 L 118 119 L 114 124 L 106 126 L 104 111 L 107 105 L 112 100 L 116 101 L 116 113 L 110 119 L 96 119 L 96 111 L 109 102 L 120 102 L 123 114 L 119 119 L 100 120" fill="none" stroke="currentColor" stroke-width="8" stroke-linecap="round" stroke-linejoin="round"/>
</svg>
