<svg viewBox="0 0 256 256" xmlns="http://www.w3.org/2000/svg" role="img" aria-label="flower">
  <path d="M 107 48 L 99 44 L 74 47 L 48 70 L 46 76 L 45 101 L 62 117 L 90 129 L 101 130 L 114 112 L 127 80 L 115 60 L 98 48 L 104 49" fill="none" stroke="currentColor" stroke-width="8" stroke-linecap="round" stroke-linejoin="round"/>
  <path d="M 95 120 L 94 152 L 88 197 L 76 255" fill="none" stroke="currentColor" stroke-width="8" stroke-linecap="round" stroke-linejoin="round"/>
  <path d="M 90 191 L 94 172 L 101 167 L 130 179" fill="none" stroke="currentColor" stroke-width="8" stroke-linecap="round" stroke-linejoin="round"/>
  <path d="M 91 201 L 103 204 L 119 198 L 126 186 L 126 175" fill="none" stroke="currentColor" stroke-width="8" stroke-linecap="round" stroke-linejoin="round"/>
  <path d="M 121 58 L 147 57 L 154 60 L 157 65 L 142 95 L 131 103 L 144 110 L 144 124 L 140 134 L 121 144 L 113 143 L 105 135 L 83 145 L 52 149 L 42 137 L 47 128 L 57 123 L 18 101 L 0 79 L 19 59 L 26 58 L 36 61 L 38 31 L 43 21 L 52 17 L 64 21 L 68 26 L 68 41 L 72 20 L 89 1 L 93 1 L 107 24 L 109 32 L 106 43 L 125 39 L 134 44 L 132 57 L 128 61" fill="none" stroke="currentColor" stroke-width="8" stroke-linecap="round" stroke-linejoin="round"/>
</svg>
