<svg viewBox="0 0 256 256" xmlns="http://www.w3.org/2000/svg" role="img" aria-label="flower">
  <path d="M 85 119 L 84 155 L 70 253" fill="none" stroke="currentColor" stroke-width="8" stroke-linecap="round" stroke-linejoin="round"/>
  <path d="M 84 118 L 80 115 L 46 122 L 26 122 L 4 112 L 0 100 L 4 91 L 47 88 L 33 87 L 28 77 L 26 60 L 34 48 L 42 42 L 50 42 L 52 53 L 61 34 L 72 20 L 84 8 L 100 0 L 100 10 L 89 30 L 95 31 L 125 15 L 128 19 L 112 38 L 149 35 L 155 37 L 157 41 L 150 49 L 132 56 L 143 51 L 166 50 L 178 56 L 179 62 L 167 69 L 146 73 L 153 73 L 166 82 L 171 99 L 170 104 L 157 112 L 139 113 L 137 109 L 145 107 L 149 113 L 149 135 L 144 147 L 132 152 L 119 150 L 106 127 L 87 129 L 76 127" fill="none" stroke="currentColor" stroke-width="8" stroke-linecap="round" stroke-linejoin="round"/>
  <path d="M 100 57 L 91 53" fill="none" stroke="currentColor" stroke-width="8" stroke-linecap="round" stroke-linejoin="round"/>
</svg>
