<svg viewBox="0 0 256 256" xmlns="http://www.w3.org/2000/svg" role="img" aria-label="flower">
  <path d="M 69 255 L 69 204 L 61 148 L 57 79" fill="none" stroke="currentColor" stroke-width="8" stroke-linecap="round" stroke-linejoin="round"/>
  <path d="M 56 80 L 35 72 L 17 48 L 10 25 L 11 7 L 25 1 L 29 18 L 70 5 L 78 4 L 82 7 L 98 27 L 102 52 L 120 51 L 137 58 L 149 72 L 152 81 L 150 86 L 117 103 L 86 104 L 64 128 L 54 128 L 39 121 L 38 117 L 6 115 L 1 108 L 0 85 L 5 69 L 19 57 L 30 58" fill="none" stroke="currentColor" stroke-width="8" stroke-linecap="round" stroke-linejoin="round"/>
</svg>
