<svg viewBox="0 0 256 256" xmlns="http://www.w3.org/2000/svg" role="img" aria-label="flower">
  <path d="M 71 154 L 79 255" fill="none" stroke="currentColor" stroke-width="8" stroke-linecap="round" stroke-linejoin="round"/>
  <path d="M 117 148 L 115 173 L 122 235" fill="none" stroke="currentColor" stroke-width="8" stroke-linecap="round" stroke-linejoin="round"/>
  <path d="M 74 152 L 63 149 L 40 126 L 36 113 L 37 95 L 46 82 L 66 72 L 89 70 L 100 73 L 117 83 L 131 98 L 134 119 L 127 134 L 121 138 L 86 147 L 68 147 L 56 143" fill="none" stroke="currentColor" stroke-width="8" stroke-linecap="round" stroke-linejoin="round"/>
  <path d="M 53 75 L 52 40 L 69 11 L 79 1 L 84 2 L 90 7 L 96 23 L 98 53 L 95 71 L 105 50 L 129 21 L 144 12 L 164 12 L 180 20 L 186 27 L 189 35 L 187 52 L 174 67 L 130 90 L 148 86 L 181 86 L 211 93 L 223 109 L 223 130 L 212 139 L 179 148 L 152 146 L 130 137 L 143 190 L 142 209 L 132 219 L 115 216 L 96 201 L 87 188 L 77 148 L 48 182 L 32 194 L 15 195 L 0 178" fill="none" stroke="currentColor" stroke-width="8" stroke-linecap="round" stroke-linejoin="round"/>
</svg>
