<svg viewBox="0 0 256 256" xmlns="http://www.w3.org/2000/svg" role="img" aria-label="flower">
  <path d="M 34 80 L 30 133 L 30 199 L 34 255" fill="none" stroke="currentColor" stroke-width="8" stroke-linecap="round" stroke-linejoin="round"/>
  <path d="M 39 76 L 27 77 L 19 63 L 18 50 L 29 41 L 35 38 L 42 43 L 48 62 L 47 72" fill="none" stroke="currentColor" stroke-width="8" stroke-linecap="round" stroke-linejoin="round"/>
  <path d="M 20 53 L 1 19 L 1 6 L 7 1 L 14 2 L 25 12 L 35 33 L 35 39 L 41 20 L 53 11 L 66 13 L 69 25 L 66 39 L 53 45 L 61 40 L 76 39 L 88 45 L 93 58 L 92 65 L 74 71 L 48 64 L 61 64 L 68 72 L 69 86 L 63 91" fill="none" stroke="currentColor" stroke-width="8" stroke-linecap="round" stroke-linejoin="round"/>
</svg>
