<svg viewBox="0 0 256 256" xmlns="http://www.w3.org/2000/svg" role="img" aria-label="flower">
  <path d="M 82 114 L 57 97 L 35 68 L 30 45 L 35 20 L 42 14 L 49 12 L 66 21 L 86 49 L 106 91 L 107 58 L 117 35 L 141 11 L 164 0 L 174 3 L 181 12 L 184 26 L 184 40 L 168 77 L 144 101 L 154 88 L 179 70 L 205 58 L 227 53 L 244 57 L 253 67 L 255 80 L 250 98 L 235 118 L 214 133 L 191 141 L 159 142 L 176 162 L 184 186 L 179 195 L 170 201 L 149 205 L 120 200 L 100 187 L 93 176 L 92 165 L 95 151 L 101 143 L 102 152 L 91 163 L 54 178 L 22 178 L 7 171 L 2 165 L 0 151 L 2 133 L 8 122 L 21 107 L 40 98 L 60 94 L 76 94 L 89 100" fill="none" stroke="currentColor" stroke-width="8" stroke-linecap="round" stroke-linejoin="round"/>
  <path d="M 120 86 L 112 88 L 102 98 L 95 119 L 97 132 L 103 140 L 111 142 L 121 138 L 131 124 L 131 97 L 126 88 L 121 85 L 108 96" fill="none" stroke="currentColor" stroke-width="8" stroke-linecap="round" stroke-linejoin="round"/>
</svg>
