<svg viewBox="0 0 256 256" xmlns="http://www.w3.org/2000/svg" role="img" aria-label="flower">
  <path d="M 64 43 L 54 47 L 48 54 L 48 74 L 60 92 L 67 94 L 79 93 L 86 80 L 83 65 L 68 52 L 51 51" fill="none" stroke="currentColor" stroke-width="8" stroke-linecap="round" stroke-linejoin="round"/>
  <path d="M 59 81 L 42 73 L 21 55 L 5 26 L 3 12" fill="none" stroke="currentColor" stroke-width="8" stroke-linecap="round" stroke-linejoin="round"/>
  <path d="M 61 52 L 54 38 L 40 25 L 24 17 L 0 11" fill="none" stroke="currentColor" stroke-width="8" stroke-linecap="round" stroke-linejoin="round"/>
  <path d="M 78 53 L 81 40 L 91 24 L 103 13 L 117 10" fill="none" stroke="currentColor" stroke-width="8" stroke-linecap="round" stroke-linejoin="round"/>
  <path d="M 92 72 L 109 57 L 120 40 L 121 16 L 114 0" fill="none" stroke="currentColor" stroke-width="8" stroke-linecap="round" stroke-linejoin="round"/>
  <path d="M 93 73 L 98 66 L 110 59 L 125 60 L 147 69 L 151 78 L 150 85 L 130 106 L 112 113 L 103 112 L 92 103 L 89 90 L 92 86 L 103 87 L 111 95 L 120 113 L 118 127 L 111 133 L 94 138 L 84 138 L 75 133 L 56 113 L 50 100 L 48 80 L 52 74 L 56 75 L 63 87 L 63 95 L 58 103 L 46 108 L 32 105 L 25 100 L 11 82 L 7 69 L 6 43 L 16 25 L 29 23 L 38 28 L 56 48 L 51 27 L 59 10 L 71 8 L 101 26 L 119 17 L 122 38 L 117 58" fill="none" stroke="currentColor" stroke-width="8" stroke-linecap="round" stroke-linejoin="round"/>
  <path d="M 65 102 L 81 255" fill="none" stroke="currentColor" stroke-width="8" stroke-linecap="round" stroke-linejoin="round"/>
  <path d="M 78 194 L 97 181 L 125 150 L 74 174" fill="none" stroke="currentColor" stroke-width="8" stroke-linecap="round" stroke-linejoin="round"/>
  <path d="M 77 181 L 62 184 L 37 161 L 21 137 L 68 173 L 69 171" fill="none" stroke="currentColor" stroke-width="8" stroke-linecap="round" stroke-linejoin="round"/>
</svg>
