<svg viewBox="0 0 256 256" xmlns="http://www.w3.org/2000/svg" role="img" aria-label="flower">
  <path d="M 58 89 L 65 111 L 67 163 L 63 182 L 54 200 L 54 214 L 64 236 L 79 255" fill="none" stroke="currentColor" stroke-width="8" stroke-linecap="round" stroke-linejoin="round"/>
  <path d="M 57 74 L 53 82 L 58 88 L 67 90 L 79 85 L 82 78 L 80 73 L 70 71 L 59 74 L 55 80 L 56 87 L 62 89 L 69 80 L 63 76 L 58 78 L 58 91 L 63 92 L 65 85 L 62 79 L 58 76 L 59 78" fill="none" stroke="currentColor" stroke-width="8" stroke-linecap="round" stroke-linejoin="round"/>
  <path d="M 64 82 L 72 46 L 80 31 L 97 15 L 121 0 L 124 12 L 118 32 L 96 56 L 77 68 L 128 78 L 142 94 L 140 100 L 117 102 L 74 89" fill="none" stroke="currentColor" stroke-width="8" stroke-linecap="round" stroke-linejoin="round"/>
  <path d="M 70 80 L 22 53 L 11 52 L 5 59 L 1 70 L 0 83 L 8 95 L 14 98 L 28 96 L 54 87 L 30 130 L 28 137 L 31 143 L 39 146 L 52 146 L 76 130 L 87 111 L 86 89" fill="none" stroke="currentColor" stroke-width="8" stroke-linecap="round" stroke-linejoin="round"/>
</svg>
