<?xml version="1.0" encoding="UTF-8"?>
<svg xmlns="http://www.w3.org/2000/svg" viewBox="0 0 256 256" fill="none" stroke="#9a8561" stroke-linecap="round" stroke-linejoin="round">
  <path d="M 128 90 Q 128 90 132.9 102.2 Q 137.8 114.5 151.0 115.4 Q 164.1 116.3 154.0 124.7 Q 143.9 133.2 147.1 146.0 Q 150.3 158.7 139.2 151.7 Q 128 144.7 116.8 151.7 Q 105.7 158.7 108.9 146.0 Q 112.1 133.2 102.0 124.7 Q 91.9 116.3 105.0 115.4 Z" stroke-width="5" />
  <path d="M 88 138 Q 88 138 90.1 143.2 Q 92.1 148.3 97.7 148.7 Q 103.2 149.1 99.0 152.6 Q 94.7 156.2 96.1 161.6 Q 97.4 166.9 92.7 164.0 Q 88 161 83.3 164.0 Q 78.6 166.9 79.9 161.6 Q 81.3 156.2 77.0 152.6 Q 72.8 149.1 78.3 148.7 Z" stroke-width="5" />
  <path d="M 170 140 Q 170 140 171.8 144.5 Q 173.6 149 178.5 149.3 Q 183.3 149.7 179.6 152.8 Q 175.9 155.9 177.0 160.6 Q 178.2 165.3 174.1 162.7 Q 170 160.2 165.9 162.7 Q 161.8 165.3 163.0 160.6 Q 164.1 155.9 160.4 152.8 Q 156.7 149.7 161.5 149.3 Z" stroke-width="5" />
</svg>
