<svg viewBox="0 0 256 256" xmlns="http://www.w3.org/2000/svg" role="img" aria-label="star">
  <path d="M 161 149 L 192 143 L 227 126 L 246 121 L 244 116 L 227 109 L 169 95 L 160 71 L 156 1 L 146 1 L 121 38 L 100 61 L 86 88 L 70 90 L 38 103 L 17 116 L 0 136 L 110 136 L 106 135 L 102 140 L 95 175 L 72 223 L 80 214 L 126 183 L 127 202 L 143 233 L 153 246 L 167 255 L 170 247 L 179 183 L 179 162 L 177 157 L 170 155" fill="none" stroke="currentColor" stroke-width="8" stroke-linecap="round" stroke-linejoin="round"/>
</svg>
