<svg viewBox="0 0 256 256" xmlns="http://www.w3.org/2000/svg" role="img" aria-label="star">
  <path d="M 64 87 L 114 0 L 118 2 L 121 25 L 125 100 L 139 80 L 157 65 L 217 36 L 220 35 L 222 41 L 222 84 L 219 102 L 202 141 L 229 219 L 227 236 L 201 197 L 188 169 L 175 107 L 175 68 L 175 90 L 154 145 L 124 195 L 92 232 L 77 255 L 80 236 L 93 194 L 105 129 L 93 150 L 44 176 L 0 221 L 2 208 L 45 102 L 59 74 L 61 75" fill="none" stroke="currentColor" stroke-width="8" stroke-linecap="round" stroke-linejoin="round"/>
</svg>
