<svg viewBox="0 0 256 256" xmlns="http://www.w3.org/2000/svg" role="img" aria-label="star">
  <path d="M 107 79 L 132 6 L 137 0 L 160 36 L 178 58 L 182 67 L 182 75 L 187 77 L 235 58 L 254 45 L 253 56 L 242 79 L 197 137 L 213 157 L 241 212 L 236 212 L 195 194 L 176 181 L 152 158 L 135 132 L 129 154 L 121 170 L 87 217 L 82 221 L 74 221 L 73 195 L 79 161 L 88 143 L 105 120 L 30 114 L 9 110 L 0 104 L 8 99 L 68 88 L 100 79 L 108 73" fill="none" stroke="currentColor" stroke-width="8" stroke-linecap="round" stroke-linejoin="round"/>
</svg>
