<svg viewBox="0 0 256 256" xmlns="http://www.w3.org/2000/svg" role="img" aria-label="star">
  <path d="M 119 4 L 115 20 L 74 85 L 66 113 L 32 165 L 21 199 L 29 205 L 45 207 L 216 198 L 232 192 L 253 196 L 240 173 L 218 149 L 171 82 L 160 55 L 122 0" fill="none" stroke="currentColor" stroke-width="8" stroke-linecap="round" stroke-linejoin="round"/>
  <path d="M 0 57 L 68 61 L 136 53 L 196 56 L 241 50 L 255 56 L 225 92 L 209 119 L 173 164 L 128 246 L 121 247 L 92 219 L 67 173 L 35 135 L 23 104 L 18 75 L 6 41 L 8 37" fill="none" stroke="currentColor" stroke-width="8" stroke-linecap="round" stroke-linejoin="round"/>
</svg>
