<?xml version="1.0" encoding="UTF-8"?>
<svg xmlns="http://www.w3.org/2000/svg" viewBox="0 0 256 256" fill="none" stroke="#6487a4" stroke-linecap="round" stroke-linejoin="round">
  <path d="M 44 149.7 Q 44 149.7 50.0 145.4 Q 56 141.1 62.0 133.5 Q 68 125.9 74.0 121.6 Q 80 117.3 86.0 120.1 Q 92 122.8 98.0 130.4 Q 104 137.9 110.0 143.8 Q 116 149.7 122.0 148.7 Q 128 147.8 134.0 140.3 Q 140 132.9 146.0 124.6 Q 152 116.3 158.0 113.8 Q 164 111.2 170.0 116.2 Q 176 121.2 182.0 129.7 Q 188 138.1 194.0 143.3 Q 200 148.5 206.0 146.4" stroke-width="5" />
  <path d="M 63 146.4 Q 63 146.4 67.6 144.8 Q 72.3 143.1 76.9 146.6 Q 81.6 150.2 86.2 156.4 Q 90.9 162.7 95.5 167.1 Q 100.1 171.5 104.8 170.8 Q 109.4 170.1 114.1 164.6 Q 118.7 159.1 123.4 152.8 Q 128 146.4 132.6 143.7 Q 137.3 141 141.9 143.6 Q 146.6 146.2 151.2 152.0 Q 155.9 157.7 160.5 162.2 Q 165.1 166.6 169.8 166.4 Q 174.4 166.1 179.1 161.5 Q 183.7 156.9 188.4 151.7" stroke-width="5" />
</svg>
