<svg viewBox="0 0 256 256" xmlns="http://www.w3.org/2000/svg" role="img" aria-label="hurricane">
  <path d="M 87 0 L 42 3 L 34 5 L 35 7 L 113 20 L 50 31 L 24 39 L 165 35 L 84 45 L 0 69 L 48 52 L 71 47 L 179 38 L 120 37 L 93 40 L 16 59 L 39 50 L 105 33 L 172 27 L 198 29 L 180 38 L 112 56 L 87 67 L 17 103 L 30 102 L 122 83 L 208 76 L 108 100 L 58 121 L 16 145 L 107 125 L 188 120 L 90 152 L 65 166 L 156 146 L 190 144 L 119 172 L 205 161 L 160 170 L 112 188 L 173 169 L 254 162 L 180 165 L 225 156" fill="none" stroke="currentColor" stroke-width="8" stroke-linecap="round" stroke-linejoin="round"/>
</svg>
