<svg viewBox="0 0 256 256" xmlns="http://www.w3.org/2000/svg" role="img" aria-label="hurricane">
  <path d="M 129 44 L 129 21 L 123 10 L 103 5 L 72 18 L 62 26 L 19 82 L 7 116 L 3 139 L 29 202 L 36 206 L 71 215 L 109 207 L 128 201 L 150 189 L 166 176 L 207 106 L 204 80 L 166 25 L 102 22 L 81 34 L 60 56 L 44 83 L 36 129 L 40 146 L 50 163 L 70 177 L 134 181 L 154 175 L 176 163 L 197 131 L 196 114 L 191 100 L 171 75 L 137 58 L 116 56 L 98 59 L 78 68 L 62 84 L 47 117 L 46 132 L 50 146 L 88 179 L 104 180 L 117 176 L 141 158 L 158 121 L 158 85 L 151 70 L 131 54 L 117 52 L 102 57 L 86 72 L 74 100 L 74 116 L 86 139 L 106 146 L 121 142 L 140 121 L 145 95 L 144 83 L 129 70 L 110 73 L 95 84 L 89 96 L 89 124 L 98 141 L 108 149 L 120 152 L 147 147 L 159 139 L 172 114 L 170 90 L 165 78 L 153 64 L 120 56 L 70 72 L 56 85 L 31 121 L 43 191 L 61 202 L 89 210 L 136 204 L 160 195 L 178 181 L 195 159 L 205 134 L 207 110 L 206 87 L 196 56 L 183 36 L 160 14 L 141 4 L 106 0 L 79 5 L 49 18 L 30 33 L 18 50 L 8 79 L 9 111 L 21 147 L 45 174 L 79 193 L 101 194 L 136 184 L 172 160 L 189 134 L 198 104 L 200 82 L 195 61 L 177 36 L 157 23 L 125 14 L 87 16 L 29 48 L 8 77 L 0 121 L 11 164 L 37 197 L 67 216 L 95 225 L 161 215 L 211 184 L 231 163 L 249 139 L 255 114 L 251 97 L 239 76 L 211 44 L 183 30 L 154 27 L 104 38 L 73 63" fill="none" stroke="currentColor" stroke-width="8" stroke-linecap="round" stroke-linejoin="round"/>
</svg>
