<svg viewBox="0 0 256 256" xmlns="http://www.w3.org/2000/svg" role="img" aria-label="hurricane">
  <path d="M 59 15 L 32 27 L 20 35 L 24 37 L 92 16 L 146 4 L 222 0 L 254 5 L 255 9 L 245 10 L 173 12 L 109 21 L 45 42 L 0 66 L 77 37 L 135 22 L 188 14 L 239 14 L 232 19 L 128 45 L 85 63 L 73 73 L 103 73 L 179 59 L 245 55 L 144 76 L 111 86 L 75 103 L 168 84 L 236 80 L 236 84 L 149 111 L 102 135 L 110 137 L 175 120 L 192 119 L 155 141 L 182 145 L 178 157" fill="none" stroke="currentColor" stroke-width="8" stroke-linecap="round" stroke-linejoin="round"/>
</svg>
