<svg viewBox="0 0 256 256" xmlns="http://www.w3.org/2000/svg" role="img" aria-label="hurricane">
  <path d="M 33 8 L 122 1 L 177 0 L 225 6 L 240 10 L 254 19 L 255 24 L 249 29 L 173 31 L 43 25 L 10 21 L 5 19 L 4 15 L 71 9 L 158 9 L 207 14 L 243 23 L 246 30 L 240 35 L 221 38 L 14 38 L 0 36 L 8 31 L 53 26 L 136 25 L 188 31 L 233 44 L 238 52 L 228 57 L 156 58 L 16 54 L 3 50 L 12 44 L 53 40 L 126 41 L 174 48 L 233 63 L 215 70 L 140 72 L 7 67 L 3 66 L 16 62 L 123 62 L 165 69 L 176 73 L 173 77 L 164 79 L 88 79 L 39 74 L 34 73 L 36 69 L 117 68 L 151 71 L 154 75 L 149 77 L 50 78 L 71 74" fill="none" stroke="currentColor" stroke-width="8" stroke-linecap="round" stroke-linejoin="round"/>
</svg>
