<svg viewBox="0 0 256 256" xmlns="http://www.w3.org/2000/svg" role="img" aria-label="hurricane">
  <path d="M 214 35 L 196 29 L 168 28 L 154 37 L 148 51 L 148 60 L 172 83 L 187 87 L 200 87 L 255 67 L 253 109 L 250 117 L 238 136 L 226 144 L 204 150 L 177 149 L 149 138 L 123 111 L 118 90 L 124 77 L 132 76 L 135 116 L 138 123 L 152 139 L 179 150 L 190 150 L 202 145 L 226 115 L 232 96 L 234 79 L 233 57 L 230 49 L 217 39 L 202 35 L 171 37 L 159 45 L 152 53 L 147 71 L 148 93 L 158 115 L 173 134 L 240 124 L 249 100 L 237 46 L 223 24 L 190 0 L 174 2 L 153 39 L 149 63 L 150 103 L 159 117 L 195 104 L 208 80 L 220 23 L 225 93 L 219 124 L 202 162 L 176 157 L 140 106 L 129 76 L 125 51 L 161 16 L 181 16 L 207 38 L 215 57 L 209 126 L 196 143 L 182 151 L 167 149 L 154 132 L 145 109 L 167 10 L 181 5 L 194 7 L 219 75 L 207 103 L 191 125 L 139 136 L 134 120 L 133 100 L 190 11 L 203 15 L 223 59 L 220 84 L 208 109 L 147 116 L 151 92 L 164 64 L 199 20 L 207 26 L 213 37 L 185 126 L 171 136 L 158 138 L 131 83 L 138 59 L 153 37 L 201 42 L 208 59 L 212 80 L 165 132 L 155 121 L 185 54 L 224 48 L 250 105 L 243 127 L 228 148 L 214 161 L 249 72 L 248 95 L 242 121 L 235 142 L 224 156 L 212 161 L 169 153 L 171 115 L 179 95 L 168 139 L 162 124" fill="none" stroke="currentColor" stroke-width="8" stroke-linecap="round" stroke-linejoin="round"/>
  <path d="M 92 92 L 82 104 L 35 105 L 32 98 L 31 68 L 34 89 L 21 99 L 0 95" fill="none" stroke="currentColor" stroke-width="8" stroke-linecap="round" stroke-linejoin="round"/>
</svg>
