<svg viewBox="0 0 256 256" xmlns="http://www.w3.org/2000/svg" role="img" aria-label="hurricane">
  <path d="M 125 90 L 124 82 L 127 71 L 135 61 L 146 56 L 153 59 L 162 72 L 161 89 L 148 104 L 129 111 L 106 107 L 97 94 L 100 74 L 111 52 L 131 39 L 152 35 L 179 39 L 202 52 L 216 70 L 217 86 L 212 101 L 194 129 L 180 141 L 159 153 L 101 168 L 65 171 L 43 166 L 35 153 L 35 112 L 38 97 L 49 78 L 76 40 L 92 23 L 104 22 L 135 28" fill="none" stroke="currentColor" stroke-width="8" stroke-linecap="round" stroke-linejoin="round"/>
  <path d="M 129 25 L 150 20 L 188 19" fill="none" stroke="currentColor" stroke-width="8" stroke-linecap="round" stroke-linejoin="round"/>
  <path d="M 233 50 L 242 74 L 246 92 L 247 121 L 244 134 L 226 155 L 189 171" fill="none" stroke="currentColor" stroke-width="8" stroke-linecap="round" stroke-linejoin="round"/>
  <path d="M 221 138 L 190 155 L 107 180" fill="none" stroke="currentColor" stroke-width="8" stroke-linecap="round" stroke-linejoin="round"/>
  <path d="M 174 20 L 200 26 L 211 33 L 237 69 L 244 88 L 245 113 L 239 131 L 223 150 L 201 165 L 174 176 L 143 182 L 115 182 L 88 179 L 66 168 L 26 140 L 12 125 L 5 106 L 10 75 L 20 56 L 41 36 L 75 15 L 109 5 L 140 2 L 187 3 L 208 9 L 232 26 L 246 42 L 254 70 L 254 94 L 249 110 L 231 134 L 174 184 L 136 199 L 116 200 L 103 195 L 79 158 L 12 88 L 2 70 L 0 59 L 3 43 L 11 34 L 48 16 L 100 5 L 172 0" fill="none" stroke="currentColor" stroke-width="8" stroke-linecap="round" stroke-linejoin="round"/>
</svg>
