<svg viewBox="0 0 256 256" xmlns="http://www.w3.org/2000/svg" role="img" aria-label="hurricane">
  <path d="M 203 105 L 176 107 L 143 104 L 111 89 L 110 84 L 128 68 L 154 58 L 193 57 L 207 66 L 212 76 L 212 88 L 204 99 L 190 106 L 164 113" fill="none" stroke="currentColor" stroke-width="8" stroke-linecap="round" stroke-linejoin="round"/>
  <path d="M 112 80 L 103 79 L 98 82 L 70 119 L 57 142 L 56 159 L 68 166 L 89 172 L 144 177 L 160 173 L 173 166 L 189 152 L 199 136 L 200 108 L 199 102 L 194 99" fill="none" stroke="currentColor" stroke-width="8" stroke-linecap="round" stroke-linejoin="round"/>
  <path d="M 124 87 L 121 77 L 122 25 L 138 5 L 159 0 L 174 5 L 214 34 L 223 51 L 222 72 L 206 100 L 197 108 L 187 109 L 181 104" fill="none" stroke="currentColor" stroke-width="8" stroke-linecap="round" stroke-linejoin="round"/>
  <path d="M 118 78 L 109 73 L 82 44 L 67 36 L 43 44 L 35 52 L 30 65 L 29 85 L 41 102 L 101 140" fill="none" stroke="currentColor" stroke-width="8" stroke-linecap="round" stroke-linejoin="round"/>
  <path d="M 183 122 L 199 114 L 222 112 L 238 112 L 252 119 L 255 129 L 253 148 L 244 163 L 227 179 L 199 193 L 168 195 L 161 191 L 150 174 L 145 151" fill="none" stroke="currentColor" stroke-width="8" stroke-linecap="round" stroke-linejoin="round"/>
  <path d="M 88 167 L 74 169 L 32 159 L 7 142 L 0 116 L 0 82 L 3 72 L 8 61 L 24 41 L 51 26 L 86 25" fill="none" stroke="currentColor" stroke-width="8" stroke-linecap="round" stroke-linejoin="round"/>
</svg>
