<svg viewBox="0 0 256 256" xmlns="http://www.w3.org/2000/svg" role="img" aria-label="hurricane">
  <path d="M 147 6 L 109 0 L 61 9 L 39 20 L 15 39 L 11 47 L 11 57 L 15 64 L 24 69 L 60 73 L 120 71 L 156 62 L 172 50 L 176 39 L 173 31 L 158 20 L 139 11 L 105 6 L 75 8 L 41 20 L 14 39 L 2 57 L 2 72 L 14 82 L 41 91 L 80 94 L 107 92 L 143 81 L 157 66 L 156 52 L 150 44 L 133 36 L 111 32 L 95 33 L 73 39 L 52 50 L 37 61 L 25 78 L 23 94 L 30 106 L 62 126 L 86 132 L 101 133 L 122 126 L 127 118 L 124 111 L 117 106 L 103 100 L 90 99 L 55 107 L 35 124 L 36 135 L 46 145 L 79 157 L 102 156 L 115 149 L 117 142 L 104 129 L 73 127 L 51 144 L 40 162 L 40 173 L 47 183 L 55 188 L 73 191 L 107 181 L 114 173 L 114 167 L 108 162 L 98 158 L 73 161 L 52 175 L 39 191 L 35 205 L 38 212 L 54 225 L 69 227 L 89 225 L 102 219 L 107 213 L 95 205 L 83 206 L 70 212 L 60 225 L 57 236 L 60 243 L 68 251 L 78 255" fill="none" stroke="currentColor" stroke-width="8" stroke-linecap="round" stroke-linejoin="round"/>
</svg>
