<svg viewBox="0 0 256 256" xmlns="http://www.w3.org/2000/svg" role="img" aria-label="hurricane">
  <path d="M 246 17 L 225 9 L 192 2 L 150 0 L 126 2 L 82 15 L 66 26 L 54 38 L 54 50 L 69 60 L 95 64 L 122 62 L 197 54 L 237 46 L 251 36 L 250 30 L 245 24 L 230 16 L 206 10 L 155 10 L 106 25 L 84 37 L 69 50 L 70 59 L 89 65 L 152 68 L 229 60 L 252 52 L 255 48 L 253 43 L 242 37 L 220 31 L 192 30 L 163 34 L 136 44 L 112 60 L 104 72 L 110 85 L 124 91 L 153 91 L 190 84 L 211 75 L 217 66 L 210 59 L 192 53 L 166 51 L 119 62 L 100 72 L 91 80 L 87 90 L 94 97 L 111 101 L 136 102 L 172 96 L 197 88 L 208 79 L 207 73 L 189 67 L 160 69 L 140 78 L 124 93 L 125 106 L 139 113 L 171 115 L 192 109 L 179 108 L 169 111 L 156 119 L 150 127 L 153 134 L 166 137 L 185 134 L 190 128 L 183 125 L 177 127 L 164 138 L 163 145 L 170 151 L 180 150 L 185 144 L 178 143 L 170 149 L 168 155 L 177 159 L 180 156 L 175 155" fill="none" stroke="currentColor" stroke-width="8" stroke-linecap="round" stroke-linejoin="round"/>
  <path d="M 0 154 L 23 159 L 40 155 L 68 129 L 84 147 L 95 152 L 103 150 L 124 135 L 149 154 L 162 150 L 177 140" fill="none" stroke="currentColor" stroke-width="8" stroke-linecap="round" stroke-linejoin="round"/>
</svg>
