<svg viewBox="0 0 256 256" xmlns="http://www.w3.org/2000/svg" role="img" aria-label="hurricane">
  <path d="M 154 12 L 106 3 L 69 0 L 29 3 L 11 10 L 7 15 L 7 27 L 16 39 L 47 48 L 123 46 L 211 31 L 249 18 L 252 14 L 242 7 L 206 2 L 107 0 L 72 6" fill="none" stroke="currentColor" stroke-width="8" stroke-linecap="round" stroke-linejoin="round"/>
  <path d="M 9 42 L 0 60 L 15 79 L 73 97 L 117 98 L 198 81 L 217 71 L 217 66 L 206 59 L 188 59 L 142 64 L 132 67 L 96 95 L 92 106 L 102 117 L 114 123 L 157 133 L 95 136 L 72 142 L 56 155 L 54 173 L 64 195 L 88 198 L 114 198 L 109 193 L 84 192 L 67 195 L 62 199 L 69 211 L 84 216 L 71 222 L 71 228 L 94 241 L 107 255" fill="none" stroke="currentColor" stroke-width="8" stroke-linecap="round" stroke-linejoin="round"/>
</svg>
