<svg viewBox="0 0 256 256" xmlns="http://www.w3.org/2000/svg" role="img" aria-label="hurricane">
  <path d="M 214 0 L 53 26 L 13 38 L 1 49 L 2 68 L 9 77 L 18 83 L 45 89 L 95 90 L 171 79 L 219 66 L 250 50 L 255 43 L 251 35 L 239 31 L 216 29 L 121 34 L 42 48 L 23 56 L 15 63 L 13 79 L 26 95 L 54 105 L 82 108 L 134 106 L 186 96 L 236 79 L 247 73 L 246 71 L 195 71 L 93 84 L 45 94 L 14 106 L 4 113 L 3 118 L 9 125 L 36 140 L 77 147 L 115 147 L 168 141 L 220 129 L 238 119 L 240 112 L 236 107 L 224 102 L 202 101 L 147 106 L 33 126 L 13 131 L 7 135 L 17 144 L 39 151 L 76 157 L 116 159 L 156 158 L 212 148 L 241 140 L 250 135 L 248 132 L 202 129 L 177 132 L 145 139 L 117 151 L 123 160 L 148 167 L 184 168 L 213 161 L 174 162 L 146 173 L 153 179 L 163 181 L 214 184 L 164 192 L 168 199 L 181 207 L 163 211 L 177 219 L 175 223" fill="none" stroke="currentColor" stroke-width="8" stroke-linecap="round" stroke-linejoin="round"/>
</svg>
