<svg viewBox="0 0 256 256" xmlns="http://www.w3.org/2000/svg" role="img" aria-label="hurricane">
  <path d="M 40 0 L 25 8 L 16 22 L 7 42 L 3 69 L 5 92 L 14 108 L 26 116 L 44 117 L 63 114 L 82 102 L 95 87 L 104 66 L 109 44 L 110 27 L 106 13 L 95 4 L 53 1 L 31 7 L 13 24 L 2 49 L 1 100 L 11 115 L 26 129 L 46 134 L 69 134 L 93 125 L 118 105 L 135 82 L 146 58 L 149 41 L 146 28 L 130 19 L 82 17 L 59 28 L 40 53 L 28 80 L 27 104 L 31 126 L 44 141 L 65 152 L 90 154 L 118 150 L 144 132 L 165 106 L 177 83 L 178 62 L 171 44 L 149 30 L 120 24 L 93 24 L 70 35 L 53 55 L 43 77 L 44 102 L 63 127 L 92 149 L 118 160 L 141 161 L 161 158 L 178 141 L 191 113 L 203 72 L 209 31 L 201 22 L 159 21 L 132 38 L 112 64 L 96 97 L 92 132 L 92 158 L 101 176 L 118 185 L 139 187 L 164 179 L 187 160 L 215 119 L 220 88 L 213 80 L 197 78 L 178 81 L 158 98 L 143 124 L 139 168 L 145 184 L 159 193 L 176 198 L 199 195 L 223 178 L 252 142 L 255 127 L 242 125" fill="none" stroke="currentColor" stroke-width="8" stroke-linecap="round" stroke-linejoin="round"/>
</svg>
