<svg viewBox="0 0 256 256" xmlns="http://www.w3.org/2000/svg" role="img" aria-label="hurricane">
  <path d="M 77 180 L 50 177 L 35 167 L 27 158 L 11 125 L 11 98 L 14 83 L 22 72 L 44 54 L 71 47 L 102 49" fill="none" stroke="currentColor" stroke-width="8" stroke-linecap="round" stroke-linejoin="round"/>
  <path d="M 83 177 L 53 175 L 29 160 L 11 141 L 2 122 L 0 111 L 2 90 L 8 77 L 18 67 L 43 49 L 73 39 L 117 38 L 145 44 L 159 51" fill="none" stroke="currentColor" stroke-width="8" stroke-linecap="round" stroke-linejoin="round"/>
  <path d="M 166 167 L 154 177 L 139 183 L 124 187 L 93 187 L 77 181 L 49 163 L 31 139 L 27 124 L 25 96 L 30 82 L 38 69 L 50 58 L 77 46 L 123 44 L 137 49 L 160 66 L 170 77 L 176 90 L 179 104 L 177 133 L 158 162 L 145 173 L 117 186 L 87 187 L 61 176 L 38 158 L 29 147 L 16 121 L 15 97 L 19 83 L 27 72 L 48 54 L 59 48 L 80 46" fill="none" stroke="currentColor" stroke-width="8" stroke-linecap="round" stroke-linejoin="round"/>
  <path d="M 95 177 L 71 173 L 49 164 L 30 148 L 18 126 L 16 114 L 18 84 L 32 55 L 57 31 L 71 22 L 87 18 L 116 15 L 131 17 L 144 25" fill="none" stroke="currentColor" stroke-width="8" stroke-linecap="round" stroke-linejoin="round"/>
  <path d="M 125 176 L 97 183 L 71 184 L 58 182 L 35 170 L 20 149 L 16 136 L 14 107 L 18 91 L 26 75 L 49 49 L 65 38 L 97 24 L 113 22 L 145 24 L 159 29 L 184 46" fill="none" stroke="currentColor" stroke-width="8" stroke-linecap="round" stroke-linejoin="round"/>
  <path d="M 135 191 L 118 194 L 89 192 L 77 186 L 58 168 L 51 156 L 43 127 L 42 100 L 48 72 L 61 50 L 77 31 L 96 19 L 108 16 L 131 15 L 156 20 L 180 31 L 200 45 L 208 55" fill="none" stroke="currentColor" stroke-width="8" stroke-linecap="round" stroke-linejoin="round"/>
  <path d="M 171 170 L 142 177 L 115 179 L 102 177 L 79 167 L 62 151 L 49 130 L 42 100 L 44 76 L 56 53 L 65 43 L 86 28 L 109 21 L 133 21 L 167 35 L 186 54 L 197 76" fill="none" stroke="currentColor" stroke-width="8" stroke-linecap="round" stroke-linejoin="round"/>
  <path d="M 130 174 L 87 171 L 63 158 L 45 140 L 34 117 L 30 103 L 29 74 L 32 60 L 47 34 L 57 21 L 81 5 L 94 1 L 121 0 L 147 8" fill="none" stroke="currentColor" stroke-width="8" stroke-linecap="round" stroke-linejoin="round"/>
  <path d="M 136 214 L 65 197 L 36 186 L 24 177 L 16 164 L 9 133 L 9 116 L 18 85 L 26 70 L 45 48 L 63 37 L 81 32 L 114 32 L 129 36 L 168 51 L 188 64 L 197 79 L 203 113 L 203 132 L 198 149 L 185 168 L 166 188 L 149 200 L 129 206 L 98 206 L 79 203 L 70 198 L 56 182 L 43 154 L 34 117 L 35 70 L 39 56 L 55 37 L 70 27 L 89 19 L 116 18 L 141 22 L 165 31 L 190 48 L 200 60 L 222 101 L 226 131 L 224 160 L 215 178 L 180 217 L 163 227 L 136 231 L 122 223 L 100 201 L 60 180 L 35 176 L 16 167 L 6 146 L 5 106 L 17 67 L 32 48 L 55 28 L 89 12 L 124 11 L 153 17 L 194 34 L 217 56 L 233 83 L 238 98 L 239 140 L 234 153 L 223 166 L 169 206 L 150 212 L 132 213 L 101 204 L 86 194 L 30 137 L 16 110 L 11 82 L 10 59 L 15 41 L 30 26 L 53 15 L 77 12 L 105 14 L 147 31 L 171 48 L 202 82" fill="none" stroke="currentColor" stroke-width="8" stroke-linecap="round" stroke-linejoin="round"/>
  <path d="M 79 203 L 146 202 L 179 187 L 188 180 L 209 99 L 208 79 L 195 57 L 181 45 L 149 34 L 165 42 L 179 55 L 191 73 L 199 91 L 200 111 L 170 179 L 137 207 L 136 200 L 145 190 L 194 154 L 221 119 L 224 106 L 223 89 L 217 71 L 207 48 L 197 37 L 217 81 L 223 111 L 207 176 L 198 184 L 173 198 L 125 208 L 171 188 L 188 176 L 228 133 L 221 102 L 214 87 L 181 48 L 165 35 L 138 20 L 107 14 L 82 14 L 46 24 L 28 40 L 22 50 L 10 87 L 6 119 L 8 167 L 16 188 L 24 196 L 45 206 L 114 221 L 155 224 L 198 213 L 219 198 L 244 167 L 250 152 L 255 110 L 251 79 L 237 54 L 206 23 L 180 8" fill="none" stroke="currentColor" stroke-width="8" stroke-linecap="round" stroke-linejoin="round"/>
</svg>
