<svg viewBox="0 0 256 256" xmlns="http://www.w3.org/2000/svg" role="img" aria-label="hurricane">
  <path d="M 127 5 L 76 2 L 55 6 L 36 14 L 22 28 L 9 49 L 7 68 L 11 83 L 23 95 L 52 108 L 84 110 L 121 101 L 157 87 L 187 69 L 204 54 L 213 39 L 213 26 L 205 17 L 186 8 L 161 6 L 137 9 L 112 19 L 86 36 L 64 62 L 49 84 L 42 102 L 43 114 L 51 122 L 74 127 L 102 121 L 133 107 L 153 92 L 163 81 L 168 70 L 166 65 L 155 58 L 134 56 L 111 61 L 86 73 L 65 91 L 47 111 L 37 132 L 35 150 L 40 159 L 52 166 L 76 166 L 100 156 L 127 137 L 145 120 L 155 103 L 157 90 L 154 84 L 144 79 L 128 78 L 112 86 L 95 100 L 77 122 L 68 142 L 64 157 L 65 167 L 70 172 L 83 175 L 99 171 L 111 164 L 119 149 L 118 143 L 109 138 L 98 140 L 86 150 L 69 177 L 68 196 L 78 201 L 94 188 L 102 177 L 98 175 L 91 182 L 79 209 L 79 219 L 87 226 L 95 225 L 99 217 L 95 216 L 89 223 L 86 237" fill="none" stroke="currentColor" stroke-width="8" stroke-linecap="round" stroke-linejoin="round"/>
  <path d="M 38 123 L 17 111 L 9 102 L 3 83 L 0 61 L 2 46 L 9 34 L 23 25 L 47 18 L 106 9 L 160 8 L 178 12 L 183 18 L 182 26 L 174 34 L 158 47 L 122 64 L 90 69 L 73 65 L 58 55 L 43 33 L 43 23 L 49 14 L 63 6 L 86 0 L 112 2 L 135 9 L 149 19 L 156 27 L 156 39 L 152 49 L 142 58 L 121 71 L 95 81 L 43 87 L 29 83 L 27 76 L 30 66 L 44 52 L 67 40 L 89 36 L 106 39 L 116 46 L 121 58 L 119 72 L 111 85 L 99 96 L 81 106 L 68 109 L 58 108 L 60 93 L 76 86 L 88 85 L 99 89 L 104 96 L 106 108 L 102 122 L 93 134 L 81 144 L 62 149 L 59 147 L 61 142 L 83 125 L 110 124 L 116 129 L 118 138 L 114 150 L 92 169 L 67 177 L 62 176 L 60 169 L 65 161 L 87 151 L 98 154 L 103 160 L 107 172 L 106 184 L 101 195 L 93 204 L 73 214 L 89 207 L 104 210 L 108 224 L 105 232 L 92 244 L 80 247 L 86 239 L 101 234 L 106 243 L 104 255" fill="none" stroke="currentColor" stroke-width="8" stroke-linecap="round" stroke-linejoin="round"/>
</svg>
