<svg viewBox="0 0 256 256" xmlns="http://www.w3.org/2000/svg" role="img" aria-label="hurricane">
  <path d="M 208 79 L 193 91 L 183 104 L 180 125 L 186 129 L 205 130 L 222 122 L 228 116 L 234 102 L 232 84 L 216 91 L 188 113 L 185 118 L 184 132 L 188 137 L 204 143 L 221 143 L 235 136 L 239 122 L 231 120 L 147 144 L 105 161 L 86 177 L 80 187 L 81 197 L 89 204 L 114 210 L 154 211 L 189 203 L 207 195 L 214 184 L 160 211 L 132 232 L 121 255 L 144 254 L 180 241 L 208 224 L 227 207 L 238 193 L 237 182 L 219 187 L 153 225 L 127 241 L 112 255 L 102 255 L 137 253 L 157 248 L 192 231 L 212 214 L 221 199 L 222 189 L 219 182 L 210 178 L 189 178 L 140 193 L 103 215 L 81 236 L 81 245 L 93 244 L 158 214 L 178 201 L 191 188 L 195 178 L 196 160 L 188 149 L 180 145 L 160 142 L 139 147 L 88 174 L 72 188 L 59 205 L 59 209 L 65 212 L 86 211 L 136 188 L 159 174 L 194 142 L 210 123 L 222 93 L 216 75 L 204 65 L 183 61 L 154 67 L 112 88 L 80 116 L 73 127 L 72 136 L 79 145 L 108 147 L 158 129 L 180 116 L 196 100 L 209 71 L 210 46 L 202 27 L 188 19 L 171 19 L 136 38 L 98 68 L 85 83 L 78 98 L 78 119 L 92 129 L 113 125 L 147 103 L 160 91 L 168 77 L 173 62 L 173 34 L 169 24 L 156 6 L 143 0 L 125 1 L 109 7 L 62 34 L 39 51 L 19 71 L 7 89 L 1 105 L 3 125 L 8 130 L 24 135 L 47 129 L 74 109 L 95 84 L 108 55 L 112 28 L 111 17 L 102 5 L 96 4 L 92 7 L 51 60 L 34 88 L 21 116 L 15 139 L 16 156 L 30 180 L 39 187 L 50 189 L 60 186 L 92 156 L 119 117 L 126 93 L 126 85 L 122 77 L 112 77 L 95 91 L 58 140 L 48 176 L 53 199 L 61 207 L 79 213 L 102 210 L 114 205 L 167 163 L 184 143 L 188 135 L 187 130 L 179 134 L 153 168 L 145 183 L 141 211 L 145 234 L 154 246 L 159 248 L 163 248 L 181 233 L 191 213 L 185 214 L 159 251 L 153 255 L 166 255 L 175 250 L 185 239 L 189 228" fill="none" stroke="currentColor" stroke-width="8" stroke-linecap="round" stroke-linejoin="round"/>
</svg>
