<svg viewBox="0 0 256 256" xmlns="http://www.w3.org/2000/svg" role="img" aria-label="hurricane">
  <path d="M 135 3 L 117 0 L 97 3 L 45 26 L 14 55 L 0 86 L 0 107 L 15 125 L 43 134 L 76 133 L 114 111 L 139 87 L 149 65 L 149 54 L 144 46 L 129 37 L 84 33 L 59 44 L 39 59 L 25 76 L 17 94 L 17 108 L 21 121 L 35 131 L 57 137 L 79 136 L 103 125 L 124 107 L 138 85 L 145 65 L 145 50 L 130 40 L 102 40 L 71 49 L 45 68 L 26 93 L 21 110 L 24 127 L 39 136 L 64 137 L 91 130 L 117 112 L 138 90 L 146 73 L 146 62 L 136 53 L 112 54 L 85 67 L 60 91 L 44 115 L 39 137 L 41 150 L 53 162 L 74 165 L 95 163 L 121 147 L 142 123 L 150 102 L 150 88 L 139 80 L 113 82 L 82 96 L 56 118 L 40 142 L 37 157 L 42 170 L 64 174 L 87 169 L 115 146 L 137 118 L 147 97 L 147 85 L 136 77 L 108 79 L 80 91 L 55 108 L 39 127 L 34 142 L 36 156 L 48 165 L 70 167 L 96 161 L 125 142 L 145 119 L 152 102 L 151 90 L 139 82 L 114 85 L 87 99 L 62 120 L 46 143 L 42 157 L 43 167 L 59 175 L 84 175 L 112 162 L 140 143 L 157 126 L 159 117 L 152 114 L 126 118 L 98 134 L 73 154 L 54 182 L 54 190 L 68 195 L 94 192 L 121 179 L 144 162 L 156 146 L 158 135 L 149 130 L 127 130 L 101 144 L 78 161 L 63 177 L 60 187 L 61 195 L 75 199 L 97 199 L 135 180 L 144 171 L 145 165 L 138 161 L 115 164 L 95 173 L 69 197 L 66 212 L 74 216 L 90 216 L 110 209 L 135 187 L 117 193 L 101 206 L 84 226 L 85 234 L 97 234 L 114 229 L 131 216 L 117 221 L 90 249 L 88 252 L 110 251 L 106 255" fill="none" stroke="currentColor" stroke-width="8" stroke-linecap="round" stroke-linejoin="round"/>
</svg>
