<svg viewBox="0 0 256 256" xmlns="http://www.w3.org/2000/svg" role="img" aria-label="hurricane">
  <path d="M 107 37 L 130 35 L 139 39 L 147 53 L 148 66 L 143 72 L 133 75 L 98 74 L 80 66 L 77 61 L 80 49 L 90 40 L 100 36 L 146 35 L 156 37 L 161 43 L 160 75 L 140 112 L 121 131 L 96 147 L 67 159 L 29 163 L 14 159 L 0 138 L 10 95 L 20 80 L 36 63 L 68 42 L 91 35 L 127 28 L 163 28 L 183 36 L 200 51 L 208 65 L 209 78 L 203 87 L 198 90 L 147 104 L 104 97 L 16 66 L 6 55 L 9 41 L 24 22 L 48 8 L 119 0 L 161 4 L 217 32 L 226 43 L 229 57 L 221 78 L 208 92 L 165 108 L 135 112 L 101 108 L 76 103 L 45 90 L 30 81 L 27 73 L 43 44 L 55 34 L 86 21 L 176 8 L 203 13 L 232 26 L 242 37 L 250 56 L 255 110 L 248 121 L 233 130 L 165 149 L 70 151 L 31 143 L 21 128 L 20 107 L 27 93 L 64 59 L 85 48 L 102 45 L 139 40 L 177 39 L 223 46 L 231 53 L 240 79 L 241 96 L 236 105" fill="none" stroke="currentColor" stroke-width="8" stroke-linecap="round" stroke-linejoin="round"/>
</svg>
