<svg viewBox="0 0 256 256" xmlns="http://www.w3.org/2000/svg" role="img" aria-label="hurricane">
  <path d="M 205 155 L 190 157 L 189 152 L 196 147 L 211 143 L 227 144 L 228 146 L 220 149 L 193 150 L 177 147 L 175 143 L 197 132 L 227 128 L 228 132 L 220 135 L 194 136 L 173 133 L 168 127 L 181 118 L 204 110 L 220 108 L 232 111 L 235 117 L 231 126 L 213 132 L 177 132 L 160 127 L 160 123 L 210 102 L 227 99 L 223 105 L 215 109 L 185 115 L 154 109 L 145 99 L 151 91 L 170 81 L 201 79 L 219 85 L 219 89 L 214 93 L 175 94 L 154 86 L 150 78 L 165 66 L 188 57 L 219 53 L 233 58 L 231 63 L 216 69 L 181 72 L 150 64 L 134 51 L 144 41 L 178 32 L 207 32 L 232 39 L 231 43 L 222 46 L 187 50 L 145 47 L 135 45 L 128 40 L 135 32 L 151 24 L 183 17 L 222 20 L 238 25 L 253 35 L 254 48 L 246 55 L 231 59 L 210 58 L 175 50 L 130 34 L 107 22 L 100 12 L 122 3 L 179 0 L 222 5 L 246 14 L 246 20 L 231 25 L 162 30 L 131 29 L 120 24 L 115 19" fill="none" stroke="currentColor" stroke-width="8" stroke-linecap="round" stroke-linejoin="round"/>
  <path d="M 232 169 L 248 157 L 254 147 L 221 169 L 216 157 L 198 170 L 188 160 L 173 167 L 159 157 L 148 165 L 133 159 L 120 168 L 109 162 L 102 165 L 90 161 L 78 167 L 60 147 L 50 157 L 38 154 L 24 161 L 10 157 L 0 167" fill="none" stroke="currentColor" stroke-width="8" stroke-linecap="round" stroke-linejoin="round"/>
</svg>
