<svg viewBox="0 0 256 256" xmlns="http://www.w3.org/2000/svg" role="img" aria-label="hurricane">
  <path d="M 110 93 L 111 83 L 119 80 L 132 86 L 135 93 L 129 98 L 113 101 L 87 100 L 80 84 L 87 62 L 108 45 L 133 34 L 153 31 L 174 34 L 187 43 L 194 63 L 196 81 L 192 101 L 181 120 L 168 133 L 148 144 L 122 154 L 96 158 L 76 154 L 65 145 L 49 119 L 42 94 L 42 74 L 48 58 L 55 49 L 74 36 L 110 19 L 157 12 L 189 16 L 214 32 L 233 60 L 238 79 L 240 104 L 236 121 L 221 147 L 208 159 L 192 169 L 168 175 L 131 178 L 54 179 L 29 175 L 22 169 L 16 157 L 3 118 L 0 86 L 4 70 L 20 50 L 54 25 L 81 11 L 113 2 L 150 0 L 221 8 L 235 14 L 255 36" fill="none" stroke="currentColor" stroke-width="8" stroke-linecap="round" stroke-linejoin="round"/>
</svg>
