<?xml version="1.0" encoding="UTF-8"?>
<svg xmlns="http://www.w3.org/2000/svg" viewBox="0 0 256 256" fill="none" stroke="#9a8561" stroke-linecap="round" stroke-linejoin="round">
  <path d="M 128 92 Q 128 92 133.7 92.3 Q 139.4 92.6 143.4 96.5 Q 147.5 100.5 150.0 105.2 Q 152.4 109.9 154.6 114.9 Q 156.8 120 156.0 125.6 Q 155.1 131.2 151.0 135.1 Q 147 139 142.6 141.9 Q 138.3 144.9 133.2 147.2 Q 128 149.4 122.5 148.0 Q 117 146.5 113.2 142.6 Q 109.3 138.7 105.9 134.6 Q 102.4 130.6 100.3 125.3 Q 98.3 120 100.3 114.7 Q 102.3 109.4 105.8 105.4 Q 109.4 101.4 113.2 97.5 Q 117.1 93.6 122.5 92.0 Z" stroke-width="5" />
  <path d="M 194.2 120 L 220 120 M 174.8 166.8 L 193.1 185.1 M 128 186.2 L 128 212 M 81.2 166.8 L 62.9 185.1 M 61.8 120 L 36 120 M 81.2 73.2 L 62.9 54.9 M 128 53.8 L 128 28 M 174.8 73.2 L 193.1 54.9" stroke-width="5" />
</svg>
