<?xml version="1.0" encoding="UTF-8"?>
<svg xmlns="http://www.w3.org/2000/svg" viewBox="0 0 256 256" fill="none" stroke="#9a8561" stroke-linecap="round" stroke-linejoin="round">
  <path d="M 128 93 Q 128 93 133.5 93.3 Q 138.9 93.6 142.9 97.4 Q 146.8 101.2 149.2 105.7 Q 151.6 110.2 153.7 115.1 Q 155.8 120 155.0 125.4 Q 154.1 130.8 150.2 134.6 Q 146.3 138.3 142.1 141.2 Q 137.9 144 133.0 146.2 Q 128 148.4 122.7 147.0 Q 117.4 145.5 113.7 141.8 Q 110 138 106.6 134.1 Q 103.3 130.2 101.3 125.1 Q 99.4 120 101.3 114.9 Q 103.2 109.7 106.6 105.9 Q 110 102 113.7 98.3 Q 117.4 94.5 122.7 93.0 Z" stroke-width="5" />
  <path d="M 194.2 120 L 220 120 M 174.8 166.8 L 193.1 185.1 M 128 186.2 L 128 212 M 81.2 166.8 L 62.9 185.1 M 61.8 120 L 36 120 M 81.2 73.2 L 62.9 54.9 M 128 53.8 L 128 28 M 174.8 73.2 L 193.1 54.9" stroke-width="5" />
</svg>
