<svg viewBox="0 0 256 256" xmlns="http://www.w3.org/2000/svg" role="img" aria-label="sun">
  <path d="M 101 19 L 89 15 L 66 16 L 56 22 L 37 46 L 21 78 L 16 97 L 14 136 L 17 153 L 23 167 L 31 179 L 42 187 L 55 192 L 72 193 L 93 191 L 111 184 L 138 162 L 154 130 L 158 110 L 155 63 L 147 40 L 136 21 L 114 2 L 90 0 L 78 4 L 64 18 L 62 40" fill="none" stroke="currentColor" stroke-width="8" stroke-linecap="round" stroke-linejoin="round"/>
  <path d="M 131 156 L 129 164 L 135 178 L 177 225 L 181 235 L 182 255" fill="none" stroke="currentColor" stroke-width="8" stroke-linecap="round" stroke-linejoin="round"/>
  <path d="M 64 173 L 45 196 L 4 237 L 1 254" fill="none" stroke="currentColor" stroke-width="8" stroke-linecap="round" stroke-linejoin="round"/>
  <path d="M 168 85 L 180 76 L 182 47" fill="none" stroke="currentColor" stroke-width="8" stroke-linecap="round" stroke-linejoin="round"/>
  <path d="M 25 22 L 5 19 L 0 10" fill="none" stroke="currentColor" stroke-width="8" stroke-linecap="round" stroke-linejoin="round"/>
  <path d="M 46 87 L 47 76 L 52 67 L 65 64 L 72 73 L 75 92" fill="none" stroke="currentColor" stroke-width="8" stroke-linecap="round" stroke-linejoin="round"/>
</svg>
