<svg viewBox="0 0 256 256" xmlns="http://www.w3.org/2000/svg" role="img" aria-label="sun">
  <path d="M 120 72 L 113 66 L 96 65 L 72 85 L 54 113 L 51 147 L 61 170 L 73 183 L 103 200 L 129 207 L 143 207 L 149 203 L 166 182 L 174 159 L 172 120 L 164 98 L 155 90 L 130 75 L 102 70" fill="none" stroke="currentColor" stroke-width="8" stroke-linecap="round" stroke-linejoin="round"/>
  <path d="M 58 53 L 76 47 L 84 36 L 87 25 L 86 0 L 106 33 L 112 53 L 126 57 L 152 57 L 216 44 L 242 36 L 224 50 L 181 98 L 181 103 L 196 121 L 202 144 L 202 155 L 194 161 L 191 175 L 187 209 L 178 203 L 168 206 L 155 222 L 139 254 L 135 255 L 104 233 L 58 208 L 45 219 L 21 233 L 12 231 L 6 226 L 3 214 L 8 205 L 36 166 L 43 152 L 43 148 L 0 114 L 38 97 L 39 92 L 32 87 L 10 75 L 11 71 L 26 67" fill="none" stroke="currentColor" stroke-width="8" stroke-linecap="round" stroke-linejoin="round"/>
</svg>
