<svg viewBox="0 0 256 256" xmlns="http://www.w3.org/2000/svg" role="img" aria-label="sun">
  <path d="M 128 54 L 89 72 L 77 82 L 69 98 L 68 127 L 96 162 L 113 172 L 130 177 L 166 176 L 195 164 L 215 148 L 218 141 L 217 128 L 212 115 L 187 86 L 156 69 L 121 63 L 116 29 L 116 0 L 128 47" fill="none" stroke="currentColor" stroke-width="8" stroke-linecap="round" stroke-linejoin="round"/>
  <path d="M 166 69 L 178 57 L 219 30 L 232 15" fill="none" stroke="currentColor" stroke-width="8" stroke-linecap="round" stroke-linejoin="round"/>
  <path d="M 220 121 L 244 102 L 255 85" fill="none" stroke="currentColor" stroke-width="8" stroke-linecap="round" stroke-linejoin="round"/>
  <path d="M 136 168 L 103 219 L 99 217" fill="none" stroke="currentColor" stroke-width="8" stroke-linecap="round" stroke-linejoin="round"/>
  <path d="M 76 137 L 0 136" fill="none" stroke="currentColor" stroke-width="8" stroke-linecap="round" stroke-linejoin="round"/>
  <path d="M 74 85 L 65 75 L 52 67 L 22 55 L 8 52" fill="none" stroke="currentColor" stroke-width="8" stroke-linecap="round" stroke-linejoin="round"/>
  <path d="M 217 170 L 230 181" fill="none" stroke="currentColor" stroke-width="8" stroke-linecap="round" stroke-linejoin="round"/>
</svg>
