<svg viewBox="0 0 256 256" xmlns="http://www.w3.org/2000/svg" role="img" aria-label="sun">
  <path d="M 170 88 L 161 77 L 131 66 L 111 65 L 91 73 L 77 86 L 68 108 L 70 122 L 83 143 L 105 155 L 129 160 L 149 159 L 164 152 L 179 137 L 184 118 L 179 97 L 163 82 L 193 73 L 234 54 L 158 85 L 131 67 L 109 64 L 109 42 L 92 0 L 115 62 L 102 64 L 84 72 L 74 79 L 70 88 L 36 69 L 0 62 L 76 98 L 71 100 L 68 116 L 70 132 L 75 136 L 36 155 L 14 173 L 3 186 L 14 184 L 50 164 L 82 135 L 83 140 L 114 156 L 127 160 L 141 160 L 127 193 L 117 255 L 141 158 L 167 159 L 172 153 L 181 129 L 190 156 L 228 201" fill="none" stroke="currentColor" stroke-width="8" stroke-linecap="round" stroke-linejoin="round"/>
</svg>
