<svg viewBox="0 0 256 256" xmlns="http://www.w3.org/2000/svg" role="img" aria-label="sun">
  <path d="M 143 60 L 140 57 L 121 53 L 96 54 L 79 60 L 62 75 L 46 105 L 40 125 L 41 160 L 49 182 L 63 202 L 85 211 L 128 211 L 152 208 L 176 196 L 183 189 L 191 160 L 191 125 L 188 113 L 165 72 L 148 64 L 131 61 L 134 45 L 140 32 L 149 75 L 212 62 L 188 90 L 185 100 L 232 115 L 218 127 L 191 132 L 233 164 L 224 168 L 195 172 L 218 217 L 199 217 L 178 199 L 165 244 L 159 248 L 151 242 L 136 215 L 124 244 L 113 255 L 102 242 L 95 217 L 58 245 L 55 239 L 54 210 L 0 208 L 7 192 L 18 182 L 48 169 L 47 162 L 18 133 L 17 122 L 53 110 L 63 97 L 64 71 L 53 44 L 25 0 L 70 32 L 94 45 L 106 16" fill="none" stroke="currentColor" stroke-width="8" stroke-linecap="round" stroke-linejoin="round"/>
</svg>
