<svg viewBox="0 0 256 256" xmlns="http://www.w3.org/2000/svg" role="img" aria-label="sun">
  <path d="M 84 249 L 68 243 L 53 218 L 47 191 L 47 147 L 60 122 L 72 112 L 99 102 L 127 101 L 151 113 L 161 122 L 175 145 L 179 161 L 178 191 L 171 206 L 149 231 L 123 248 L 109 253 L 71 255 L 60 250 L 47 236" fill="none" stroke="currentColor" stroke-width="8" stroke-linecap="round" stroke-linejoin="round"/>
  <path d="M 20 96 L 2 57 L 0 39 L 6 34" fill="none" stroke="currentColor" stroke-width="8" stroke-linecap="round" stroke-linejoin="round"/>
  <path d="M 98 70 L 97 53 L 104 15 L 107 4 L 114 0" fill="none" stroke="currentColor" stroke-width="8" stroke-linecap="round" stroke-linejoin="round"/>
  <path d="M 145 78 L 185 40 L 196 35 L 205 35" fill="none" stroke="currentColor" stroke-width="8" stroke-linecap="round" stroke-linejoin="round"/>
  <path d="M 193 120 L 224 126 L 240 131 L 248 137" fill="none" stroke="currentColor" stroke-width="8" stroke-linecap="round" stroke-linejoin="round"/>
  <path d="M 200 228 L 200 228" fill="none" stroke="currentColor" stroke-width="8" stroke-linecap="round" stroke-linejoin="round"/>
</svg>
