<svg viewBox="0 0 256 256" xmlns="http://www.w3.org/2000/svg" role="img" aria-label="sun">
  <path d="M 123 116 L 109 115 L 98 122 L 89 141 L 94 154 L 111 168 L 124 174 L 157 169 L 174 158 L 178 150 L 167 119 L 133 101 L 117 100 L 98 120 L 99 124" fill="none" stroke="currentColor" stroke-width="8" stroke-linecap="round" stroke-linejoin="round"/>
  <path d="M 166 94 L 182 87" fill="none" stroke="currentColor" stroke-width="8" stroke-linecap="round" stroke-linejoin="round"/>
  <path d="M 181 119 L 232 120" fill="none" stroke="currentColor" stroke-width="8" stroke-linecap="round" stroke-linejoin="round"/>
  <path d="M 188 167 L 208 228" fill="none" stroke="currentColor" stroke-width="8" stroke-linecap="round" stroke-linejoin="round"/>
  <path d="M 112 190 L 111 199 L 100 214 L 76 233 L 52 248 L 36 254 L 20 255 L 14 245 L 13 233" fill="none" stroke="currentColor" stroke-width="8" stroke-linecap="round" stroke-linejoin="round"/>
  <path d="M 56 159 L 31 117 L 0 86" fill="none" stroke="currentColor" stroke-width="8" stroke-linecap="round" stroke-linejoin="round"/>
  <path d="M 103 65 L 110 0" fill="none" stroke="currentColor" stroke-width="8" stroke-linecap="round" stroke-linejoin="round"/>
  <path d="M 146 78 L 166 50" fill="none" stroke="currentColor" stroke-width="8" stroke-linecap="round" stroke-linejoin="round"/>
</svg>
