<svg viewBox="0 0 256 256" xmlns="http://www.w3.org/2000/svg" role="img" aria-label="cloud">
  <path d="M 62 67 L 45 21 L 45 12 L 51 5 L 66 0 L 73 1 L 83 19 L 101 7 L 116 1 L 146 1 L 163 9 L 183 32 L 212 50" fill="none" stroke="currentColor" stroke-width="8" stroke-linecap="round" stroke-linejoin="round"/>
  <path d="M 184 34 L 206 31 L 224 41 L 243 59 L 254 83 L 254 93 L 234 127 L 239 138 L 220 149 L 183 152 L 158 148 L 142 160 L 120 165 L 100 165 L 79 159 L 58 145 L 23 145 L 9 142 L 1 131 L 1 113 L 5 111 L 22 111 L 17 97 L 17 81 L 23 61 L 30 56 L 41 61 L 52 73 L 54 62 L 51 55 L 56 54 L 61 59" fill="none" stroke="currentColor" stroke-width="8" stroke-linecap="round" stroke-linejoin="round"/>
</svg>
