<svg viewBox="0 0 256 256" xmlns="http://www.w3.org/2000/svg" role="img" aria-label="cloud">
  <path d="M 104 107 L 86 118 L 70 124 L 41 126 L 11 117 L 3 112 L 0 104 L 4 85 L 23 65 L 48 66 L 63 80 L 61 33 L 81 7 L 96 0 L 115 0 L 120 4 L 126 17 L 126 37 L 141 21 L 169 6 L 201 3 L 222 10 L 234 22 L 240 40 L 217 60 L 233 64 L 248 73 L 254 80 L 255 94 L 242 109 L 194 118 L 181 117 L 172 129 L 152 139 L 130 139 L 100 132" fill="none" stroke="currentColor" stroke-width="8" stroke-linecap="round" stroke-linejoin="round"/>
</svg>
