<svg viewBox="0 0 256 256" xmlns="http://www.w3.org/2000/svg" role="img" aria-label="cloud">
  <path d="M 112 226 L 102 237 L 84 247 L 62 251 L 43 250 L 33 238 L 30 208 L 33 197 L 41 186 L 57 183 L 41 185 L 23 183 L 10 174 L 2 160 L 1 126 L 10 107 L 23 99 L 35 98 L 41 102 L 39 67 L 48 39 L 63 30 L 78 29 L 90 38 L 97 54 L 142 7 L 152 2 L 167 0 L 172 2 L 180 11 L 182 38 L 229 19 L 246 19 L 254 29 L 255 43 L 253 56 L 247 63" fill="none" stroke="currentColor" stroke-width="8" stroke-linecap="round" stroke-linejoin="round"/>
  <path d="M 116 222 L 119 226 L 128 228 L 152 223 L 168 204 L 170 179 L 166 172 L 194 175 L 204 170 L 207 153 L 199 141 L 193 138 L 220 137 L 239 129 L 241 121 L 238 114 L 214 93 L 233 87" fill="none" stroke="currentColor" stroke-width="8" stroke-linecap="round" stroke-linejoin="round"/>
</svg>
