<svg viewBox="0 0 256 256" xmlns="http://www.w3.org/2000/svg" role="img" aria-label="cloud">
  <path d="M 19 112 L 7 130 L 0 169 L 2 180 L 10 187 L 23 191 L 52 191 L 64 184 L 84 153 L 113 162 L 129 162 L 145 154 L 168 131 L 185 138 L 212 136 L 235 114 L 244 97 L 245 86 L 241 82 L 253 52 L 255 36 L 255 24 L 251 14 L 241 6 L 217 0 L 183 1 L 169 5 L 158 12 L 144 24 L 140 33 L 118 21 L 86 19 L 49 43 L 34 57 L 21 61 L 14 74 L 14 102" fill="none" stroke="currentColor" stroke-width="8" stroke-linecap="round" stroke-linejoin="round"/>
</svg>
