<svg viewBox="0 0 256 256" xmlns="http://www.w3.org/2000/svg" role="img" aria-label="cloud">
  <path d="M 66 65 L 66 49 L 72 35 L 82 24 L 101 14 L 111 13 L 126 18 L 141 30 L 158 51 L 161 48 L 171 14 L 185 1 L 195 0 L 204 5 L 226 29 L 236 52 L 236 72 L 249 79 L 254 92 L 254 117 L 246 135 L 237 143 L 224 145 L 211 138 L 191 121 L 184 120 L 173 130 L 151 162 L 135 172 L 122 167 L 101 134 L 94 129 L 87 131 L 65 158 L 52 164 L 40 159 L 28 143 L 0 73 L 5 90 L 17 67 L 32 55 L 54 53 L 80 65" fill="none" stroke="currentColor" stroke-width="8" stroke-linecap="round" stroke-linejoin="round"/>
</svg>
