<svg viewBox="0 0 256 256" xmlns="http://www.w3.org/2000/svg" role="img" aria-label="cloud">
  <path d="M 109 39 L 112 35 L 110 18 L 120 11 L 130 10 L 134 13 L 147 35 L 148 45 L 161 28 L 172 19 L 186 14 L 198 17 L 211 31 L 216 49 L 212 69 L 202 77 L 221 73 L 250 83 L 255 91 L 255 98 L 250 106 L 243 113 L 219 119 L 188 120 L 175 114 L 172 101 L 170 115 L 162 122 L 136 124 L 97 115 L 94 112 L 96 101 L 82 109 L 60 110 L 40 102 L 26 88 L 17 70 L 17 58 L 20 52 L 28 46 L 38 44 L 45 47 L 48 53 L 45 56 L 30 53 L 13 45 L 1 34 L 1 25 L 5 19 L 23 5 L 37 0 L 50 0 L 63 10 L 72 27 L 77 16 L 86 15 L 111 32 L 114 46" fill="none" stroke="currentColor" stroke-width="8" stroke-linecap="round" stroke-linejoin="round"/>
</svg>
