<svg viewBox="0 0 256 256" xmlns="http://www.w3.org/2000/svg" role="img" aria-label="cloud">
  <path d="M 203 165 L 193 168 L 130 168 L 49 146 L 7 119 L 0 102 L 1 83 L 13 69 L 25 63 L 35 62 L 40 66 L 43 74 L 67 39 L 80 27 L 108 6 L 122 2 L 143 0 L 162 18 L 166 31 L 200 22 L 221 22 L 235 28 L 241 38 L 242 51 L 234 74 L 233 107 L 235 115 L 252 134 L 254 153 L 240 163 L 221 170 L 192 169 L 179 165 L 176 157" fill="none" stroke="currentColor" stroke-width="8" stroke-linecap="round" stroke-linejoin="round"/>
</svg>
