<svg viewBox="0 0 256 256" xmlns="http://www.w3.org/2000/svg" role="img" aria-label="cloud">
  <path d="M 42 31 L 44 24 L 55 12 L 72 0 L 79 2 L 83 7 L 86 22 L 98 12 L 114 9 L 125 11 L 141 23 L 161 2 L 172 4" fill="none" stroke="currentColor" stroke-width="8" stroke-linecap="round" stroke-linejoin="round"/>
  <path d="M 217 8 L 224 17 L 225 26 L 220 40 L 211 50 L 241 34 L 246 41 L 242 55 L 253 57 L 255 62 L 248 78 L 252 89 L 243 107 L 235 117 L 231 116 L 221 133 L 214 139 L 210 140 L 189 132 L 178 146 L 172 149 L 153 143 L 143 143 L 124 162 L 94 152 L 79 159 L 58 143 L 53 142 L 46 149 L 41 148 L 19 131 L 18 134 L 9 114 L 13 113 L 11 109 L 1 94 L 5 75 L 2 56 L 14 39 L 24 37 L 32 43 L 33 32 L 41 32" fill="none" stroke="currentColor" stroke-width="8" stroke-linecap="round" stroke-linejoin="round"/>
</svg>
