<svg viewBox="0 0 256 256" xmlns="http://www.w3.org/2000/svg" role="img" aria-label="cloud">
  <path d="M 39 204 L 117 203 L 152 197 L 185 187 L 211 176 L 232 162 L 241 150 L 250 130 L 255 108 L 255 86 L 251 76 L 240 68 L 209 66 L 193 76 L 178 93 L 183 89 L 190 67 L 189 33 L 182 15 L 168 5 L 137 0 L 117 8 L 83 44 L 74 62 L 71 83 L 77 100 L 88 105 L 95 104 L 97 97 L 88 85 L 58 70 L 41 78 L 27 89 L 9 114 L 0 140 L 1 169 L 6 182 L 29 207 L 47 209" fill="none" stroke="currentColor" stroke-width="8" stroke-linecap="round" stroke-linejoin="round"/>
</svg>
