<svg viewBox="0 0 256 256" xmlns="http://www.w3.org/2000/svg" role="img" aria-label="cloud">
  <path d="M 2 39 L 3 29 L 10 17 L 30 9 L 43 12 L 77 0 L 108 2 L 116 11 L 139 4 L 172 3 L 193 8 L 196 19 L 213 10 L 237 11 L 246 22 L 246 34 L 253 44 L 254 62 L 242 76 L 217 82 L 201 83 L 175 94 L 157 94 L 136 84 L 130 76 L 105 82 L 70 83 L 48 67 L 13 66 L 6 63 L 0 55 L 3 35" fill="none" stroke="currentColor" stroke-width="8" stroke-linecap="round" stroke-linejoin="round"/>
  <path d="M 22 117 L 19 142 L 9 166" fill="none" stroke="currentColor" stroke-width="8" stroke-linecap="round" stroke-linejoin="round"/>
  <path d="M 105 139 L 112 159" fill="none" stroke="currentColor" stroke-width="8" stroke-linecap="round" stroke-linejoin="round"/>
  <path d="M 140 161 L 157 160 L 187 148 L 207 149" fill="none" stroke="currentColor" stroke-width="8" stroke-linecap="round" stroke-linejoin="round"/>
</svg>
