<svg viewBox="0 0 256 256" xmlns="http://www.w3.org/2000/svg" role="img" aria-label="cloud">
  <path d="M 65 108 L 47 113 L 20 111 L 2 89 L 0 58 L 10 52 L 41 51 L 50 55 L 55 63 L 52 37 L 58 18 L 68 7 L 80 2 L 122 0 L 132 6 L 139 21 L 139 32 L 123 61 L 123 56 L 127 46 L 146 29 L 197 7 L 211 8 L 220 19 L 226 38 L 226 58 L 218 67 L 191 81 L 245 99 L 252 109 L 255 123 L 251 130 L 245 134 L 193 151 L 152 149 L 134 144 L 127 139 L 122 154 L 109 161 L 91 163 L 73 157 L 49 139 L 44 125 L 47 110" fill="none" stroke="currentColor" stroke-width="8" stroke-linecap="round" stroke-linejoin="round"/>
</svg>
