<svg viewBox="0 0 256 256" xmlns="http://www.w3.org/2000/svg" role="img" aria-label="cloud">
  <path d="M 18 67 L 16 63 L 16 47 L 25 37 L 53 35 L 71 50 L 76 16 L 85 1 L 138 0 L 159 4 L 173 12 L 185 30 L 204 9 L 219 5 L 240 18 L 249 31 L 255 51 L 246 58 L 234 62 L 235 80 L 222 97 L 199 110 L 182 113 L 165 113 L 148 104 L 142 115 L 126 124 L 104 129 L 86 129 L 72 124 L 58 111 L 20 115 L 7 109 L 1 102 L 0 95 L 9 77" fill="none" stroke="currentColor" stroke-width="8" stroke-linecap="round" stroke-linejoin="round"/>
</svg>
