<svg viewBox="0 0 256 256" xmlns="http://www.w3.org/2000/svg" role="img" aria-label="cloud">
  <path d="M 112 39 L 110 24 L 105 18 L 86 11 L 58 9 L 34 18 L 19 31 L 2 57 L 0 79 L 4 102 L 16 121 L 31 132 L 54 135 L 69 129 L 88 114 L 95 101" fill="none" stroke="currentColor" stroke-width="8" stroke-linecap="round" stroke-linejoin="round"/>
  <path d="M 116 36 L 117 11 L 125 4 L 139 0 L 149 3 L 163 17 L 169 27 L 172 40" fill="none" stroke="currentColor" stroke-width="8" stroke-linecap="round" stroke-linejoin="round"/>
  <path d="M 162 34 L 174 22 L 193 25 L 207 40 L 212 62 L 219 67 L 231 66 L 254 55 L 252 76 L 238 104 L 221 108 L 130 109 L 113 116 L 94 131 L 78 123 L 73 114 L 74 108" fill="none" stroke="currentColor" stroke-width="8" stroke-linecap="round" stroke-linejoin="round"/>
</svg>
