<svg viewBox="0 0 256 256" xmlns="http://www.w3.org/2000/svg" role="img" aria-label="cloud">
  <path d="M 15 34 L 32 13 L 45 4 L 55 1 L 66 2 L 77 8 L 82 15 L 82 25 L 84 5 L 95 0 L 130 0 L 150 3 L 156 8 L 159 18 L 161 12 L 186 3 L 213 3 L 224 7 L 243 26 L 244 40 L 236 49 L 243 45 L 246 47 L 255 68 L 252 96 L 244 103 L 235 106 L 237 127 L 231 140 L 219 153 L 196 154 L 186 162 L 161 172 L 115 176 L 96 170 L 92 153 L 67 150 L 20 133 L 14 126 L 17 113 L 1 95 L 0 67 L 5 24 L 11 16 L 27 11" fill="none" stroke="currentColor" stroke-width="8" stroke-linecap="round" stroke-linejoin="round"/>
</svg>
