<svg viewBox="0 0 256 256" xmlns="http://www.w3.org/2000/svg" role="img" aria-label="cloud">
  <path d="M 180 37 L 177 15 L 145 1 L 129 0 L 111 5 L 96 21 L 94 33 L 80 10 L 73 4 L 64 4 L 47 8 L 34 15 L 26 26 L 29 33 L 10 39 L 0 62 L 10 84 L 25 93 L 41 94 L 60 87 L 59 91 L 65 97 L 89 106 L 170 116 L 177 108 L 182 92 L 175 81 L 193 87 L 233 90 L 249 81 L 255 64 L 255 54 L 247 33 L 237 26 L 206 19 L 199 21 L 183 36" fill="none" stroke="currentColor" stroke-width="8" stroke-linecap="round" stroke-linejoin="round"/>
</svg>
