<?xml version="1.0" encoding="UTF-8"?>
<svg xmlns="http://www.w3.org/2000/svg" viewBox="0 0 256 256" fill="none" stroke="#a06f80" stroke-linecap="round" stroke-linejoin="round">
  <path d="M 128 114.4 Q 128 114.4 130.9 114.2 Q 133.8 113.9 135.6 116.3 Q 137.3 118.7 138.2 121.0 Q 139.2 123.4 140.8 125.7 Q 142.4 128 142.1 130.9 Q 141.8 133.7 139.3 135.3 Q 136.8 136.8 134.8 138.2 Q 132.8 139.6 130.4 141.3 Q 128 143 125.3 142.1 Q 122.5 141.2 121.0 138.8 Q 119.5 136.5 117.6 134.8 Q 115.7 133.1 114.2 130.6 Q 112.8 128 114.2 125.4 Q 115.6 122.9 117.6 121.2 Q 119.5 119.5 121.0 117.2 Q 122.6 114.9 125.3 113.9 Z
M 123.2 108.6 Q 123.2 108.6 125.6 98.3 Q 128 88 130.4 98.3 Z
M 145 117.5 Q 145 117.5 155.5 116.6 Q 166 115.6 157.0 121.1 Z
M 143.3 140.9 Q 143.3 140.9 147.4 150.6 Q 151.5 160.4 143.5 153.4 Z
M 120.4 146.5 Q 120.4 146.5 112.5 153.4 Q 104.5 160.4 108.6 150.6 Z
M 108.1 126.5 Q 108.1 126.5 99.0 121.1 Q 90 115.6 100.5 116.6 Z" stroke-width="5" />
  <path d="M 128 117 Q 128 117 130.3 117.0 Q 132.5 117 134.1 118.7 Q 135.6 120.4 136.5 122.2 Q 137.4 124.1 138.4 126.1 Q 139.4 128 139.1 130.2 Q 138.8 132.5 137.1 133.9 Q 135.3 135.3 133.7 136.5 Q 132 137.7 130.0 138.7 Q 128 139.8 125.8 139.1 Q 123.7 138.5 122.2 136.8 Q 120.8 135.2 119.4 133.7 Q 118 132.2 117.0 130.1 Q 116.1 128 117.0 125.9 Q 117.9 123.8 119.4 122.3 Q 120.8 120.8 122.2 119.2 Q 123.7 117.5 125.8 116.9 Z" stroke-width="5" />
</svg>
