<svg viewBox="0 0 256 256" xmlns="http://www.w3.org/2000/svg" role="img" aria-label="pond">
  <path d="M 94 46 L 104 53 L 133 43 L 141 47 L 154 59 L 176 48 L 194 53 L 214 35 L 221 33 L 227 35 L 229 47 L 243 42 L 247 43" fill="none" stroke="currentColor" stroke-width="8" stroke-linecap="round" stroke-linejoin="round"/>
  <path d="M 254 45 L 254 45" fill="none" stroke="currentColor" stroke-width="8" stroke-linecap="round" stroke-linejoin="round"/>
  <path d="M 255 39 L 254 21 L 245 18" fill="none" stroke="currentColor" stroke-width="8" stroke-linecap="round" stroke-linejoin="round"/>
  <path d="M 236 20 L 226 16 L 220 4 L 198 9 L 181 0 L 167 12" fill="none" stroke="currentColor" stroke-width="8" stroke-linecap="round" stroke-linejoin="round"/>
  <path d="M 159 17 L 159 17" fill="none" stroke="currentColor" stroke-width="8" stroke-linecap="round" stroke-linejoin="round"/>
  <path d="M 154 17 L 133 8 L 119 17 L 108 17 L 89 7 L 74 18 L 62 21 L 52 17 L 42 6 L 39 7 L 21 31 L 15 30 L 9 42 L 6 43 L 1 39 L 5 50 L 29 59 L 61 59 L 82 44 L 92 56" fill="none" stroke="currentColor" stroke-width="8" stroke-linecap="round" stroke-linejoin="round"/>
</svg>
