<svg viewBox="0 0 256 256" xmlns="http://www.w3.org/2000/svg" role="img" aria-label="pond">
  <path d="M 120 19 L 95 8 L 74 9 L 54 20 L 40 35 L 35 46 L 34 72 L 31 79 L 23 91 L 1 110 L 0 115 L 8 127 L 37 147 L 51 150 L 89 149 L 123 119 L 130 118 L 161 136 L 183 139 L 198 136 L 231 123 L 248 107 L 253 82 L 255 46 L 243 23 L 233 13 L 206 1 L 182 0 L 141 14 L 122 17 L 111 16" fill="none" stroke="currentColor" stroke-width="8" stroke-linecap="round" stroke-linejoin="round"/>
  <path d="M 81 85 L 95 71" fill="none" stroke="currentColor" stroke-width="8" stroke-linecap="round" stroke-linejoin="round"/>
</svg>
