<svg viewBox="0 0 256 256" xmlns="http://www.w3.org/2000/svg" role="img" aria-label="pond">
  <path d="M 85 13 L 60 21 L 39 38 L 35 52 L 54 66 L 54 75 L 38 92 L 3 114 L 0 120 L 1 132 L 12 158 L 25 171 L 52 184 L 84 189 L 105 189 L 139 179 L 159 169 L 173 155 L 205 117 L 246 77 L 254 58 L 255 37 L 247 26 L 230 14 L 182 1 L 134 1 L 77 14" fill="none" stroke="currentColor" stroke-width="8" stroke-linecap="round" stroke-linejoin="round"/>
  <path d="M 98 39 L 92 38 L 90 41 L 94 64 L 111 78 L 123 83 L 142 80 L 151 71 L 153 55 L 144 40" fill="none" stroke="currentColor" stroke-width="8" stroke-linecap="round" stroke-linejoin="round"/>
</svg>
