<svg viewBox="0 0 256 256" xmlns="http://www.w3.org/2000/svg" role="img" aria-label="rainbow">
  <path d="M 19 188 L 21 170 L 28 141 L 54 87 L 76 67 L 91 61 L 108 59 L 174 74 L 205 87 L 228 103 L 236 113 L 244 134 L 244 189 L 251 162 L 255 127 L 249 93 L 236 69 L 214 48 L 191 33 L 163 23 L 121 18 L 81 27 L 61 39 L 53 48 L 37 75 L 27 102 L 12 153 L 7 196 L 1 161 L 1 133 L 4 101 L 14 76 L 36 48 L 66 21 L 92 5 L 106 1 L 120 0 L 154 10 L 196 29 L 212 45 L 226 76 L 235 123 L 237 152 L 242 168" fill="none" stroke="currentColor" stroke-width="8" stroke-linecap="round" stroke-linejoin="round"/>
</svg>
