<svg viewBox="0 0 256 256" xmlns="http://www.w3.org/2000/svg" role="img" aria-label="rainbow">
  <path d="M 0 203 L 0 174 L 9 134 L 46 66 L 64 44 L 83 27 L 110 13 L 137 5 L 197 0 L 228 9 L 248 25 L 255 34" fill="none" stroke="currentColor" stroke-width="8" stroke-linecap="round" stroke-linejoin="round"/>
  <path d="M 249 56 L 242 45 L 228 36 L 201 31 L 183 31 L 163 36 L 143 46 L 120 63 L 90 92 L 65 119 L 54 147 L 52 167 L 66 235" fill="none" stroke="currentColor" stroke-width="8" stroke-linecap="round" stroke-linejoin="round"/>
  <path d="M 93 235 L 96 187 L 105 151 L 120 119 L 140 94 L 155 85" fill="none" stroke="currentColor" stroke-width="8" stroke-linecap="round" stroke-linejoin="round"/>
</svg>
