<?xml version="1.0" encoding="UTF-8"?>
<svg xmlns="http://www.w3.org/2000/svg" viewBox="0 0 256 256" fill="none" stroke="#a06f80" stroke-linecap="round" stroke-linejoin="round">
  <path d="M 128 117.1 Q 128 117.1 130.8 116.9 Q 133.5 116.6 135.2 118.9 Q 136.9 121.1 137.7 123.4 Q 138.6 125.6 140.1 127.8 Q 141.7 130 141.4 132.7 Q 141.1 135.4 138.7 136.9 Q 136.4 138.4 134.5 139.7 Q 132.6 141.1 130.3 142.7 Q 128 144.3 125.4 143.4 Q 122.8 142.5 121.4 140.3 Q 119.9 138.1 118.1 136.5 Q 116.3 134.9 114.9 132.4 Q 113.5 130 114.9 127.6 Q 116.2 125.1 118.1 123.5 Q 119.9 121.9 121.4 119.7 Q 122.8 117.5 125.4 116.6 Z
M 123.5 111.5 Q 123.5 111.5 125.7 101.8 Q 128 92 130.3 101.8 Z
M 144.2 120 Q 144.2 120 154.1 119.1 Q 164.1 118.3 155.5 123.4 Z
M 142.5 142.3 Q 142.5 142.3 146.4 151.5 Q 150.3 160.7 142.8 154.2 Z
M 120.8 147.6 Q 120.8 147.6 113.2 154.2 Q 105.7 160.7 109.6 151.5 Z
M 109.1 128.6 Q 109.1 128.6 100.5 123.4 Q 91.9 118.3 101.9 119.1 Z" stroke-width="5" />
  <path d="M 128 119 Q 128 119 130.3 119.0 Q 132.5 119 134.1 120.7 Q 135.6 122.4 136.5 124.2 Q 137.4 126.1 138.4 128.1 Q 139.4 130 139.1 132.2 Q 138.8 134.5 137.1 135.9 Q 135.3 137.3 133.7 138.5 Q 132 139.7 130.0 140.7 Q 128 141.8 125.8 141.1 Q 123.7 140.5 122.2 138.8 Q 120.8 137.2 119.4 135.7 Q 118 134.2 117.0 132.1 Q 116.1 130 117.0 127.9 Q 117.9 125.8 119.4 124.3 Q 120.8 122.8 122.2 121.2 Q 123.7 119.5 125.8 118.9 Z" stroke-width="5" />
</svg>
