<svg viewBox="0 0 256 256" xmlns="http://www.w3.org/2000/svg" role="img" aria-label="river">
  <path d="M 195 5 L 178 33 L 156 98 L 107 165 L 98 202 L 89 222 L 68 247" fill="none" stroke="currentColor" stroke-width="8" stroke-linecap="round" stroke-linejoin="round"/>
  <path d="M 115 0 L 85 21 L 47 60 L 46 63 L 85 55 L 92 59 L 91 66 L 63 116 L 41 138 L 24 148 L 18 158 L 14 213 L 0 255" fill="none" stroke="currentColor" stroke-width="8" stroke-linecap="round" stroke-linejoin="round"/>
  <path d="M 177 5 L 134 27 L 105 51 L 93 67 L 93 72 L 121 74 L 130 80 L 133 89 L 125 135 L 111 162 L 117 199" fill="none" stroke="currentColor" stroke-width="8" stroke-linecap="round" stroke-linejoin="round"/>
  <path d="M 226 46 L 182 67 L 127 106 L 119 116 L 116 122 L 156 112 L 170 116 L 156 165 L 115 241 L 162 188 L 165 199 L 127 246" fill="none" stroke="currentColor" stroke-width="8" stroke-linecap="round" stroke-linejoin="round"/>
  <path d="M 170 1 L 109 65 L 91 88 L 56 144 L 60 132 L 63 201 L 71 201 L 117 175 L 123 180 L 102 211 L 60 237 L 52 239" fill="none" stroke="currentColor" stroke-width="8" stroke-linecap="round" stroke-linejoin="round"/>
</svg>
