<svg viewBox="0 0 256 256" xmlns="http://www.w3.org/2000/svg" role="img" aria-label="river">
  <path d="M 0 25 L 36 4 L 50 0 L 65 5 L 87 31 L 106 41 L 124 38 L 163 15 L 182 10 L 198 9 L 255 19" fill="none" stroke="currentColor" stroke-width="8" stroke-linecap="round" stroke-linejoin="round"/>
  <path d="M 0 43 L 14 36 L 28 35 L 50 59 L 61 64 L 78 67 L 105 63 L 150 45 L 172 41 L 208 40 L 254 46" fill="none" stroke="currentColor" stroke-width="8" stroke-linecap="round" stroke-linejoin="round"/>
  <path d="M 11 35 L 27 25 L 52 25 L 70 33 L 89 54 L 103 56 L 154 48 L 252 27" fill="none" stroke="currentColor" stroke-width="8" stroke-linecap="round" stroke-linejoin="round"/>
</svg>
