<?xml version="1.0" encoding="UTF-8"?>
<svg xmlns="http://www.w3.org/2000/svg" viewBox="0 0 256 256" fill="none" stroke="#a06f80" stroke-linecap="round" stroke-linejoin="round">
  <path d="M 90 120 C 101.4 85.8 154.6 85.8 166 120
M 107.1 122 C 118.1 148.8 137.9 148.8 148.9 122
M 128 120 L 128 192" stroke-width="5" />
  <path d="M 99 163.6 Q 99 163.6 101.1 163.6 Q 103.1 163.7 105.2 161.5 Q 107.3 159.3 109.4 156.3 Q 111.4 153.3 113.5 151.5 Q 115.6 149.6 117.6 150.0 Q 119.7 150.4 121.8 152.8 Q 123.9 155.2 125.9 157.9 Q 128 160.7 130.1 162.0 Q 132.1 163.3 134.2 162.2 Q 136.3 161.1 138.4 158.2 Q 140.4 155.3 142.5 152.3 Q 144.6 149.3 146.6 148.1 Q 148.7 146.9 150.8 148.2 Q 152.9 149.6 154.9 152.8" stroke-width="5" />
</svg>
