<?xml version="1.0" encoding="UTF-8"?>
<svg xmlns="http://www.w3.org/2000/svg" viewBox="0 0 256 256" fill="none" stroke="#a06f80" stroke-linecap="round" stroke-linejoin="round">
  <path d="M 88 122 C 100 86 156 86 168 122
M 106 124 C 117.6 150 138.4 150 150 124
M 128 122 L 128 192" stroke-width="5" />
  <path d="M 99 164 Q 99 164 101.1 163.1 Q 103.1 162.2 105.2 159.5 Q 107.3 156.8 109.4 154.1 Q 111.4 151.4 113.5 150.4 Q 115.6 149.4 117.6 150.8 Q 119.7 152.1 121.8 154.9 Q 123.9 157.7 125.9 160.1 Q 128 162.5 130.1 162.9 Q 132.1 163.2 134.2 161.3 Q 136.3 159.3 138.4 156.0 Q 140.4 152.8 142.5 150.3 Q 144.6 147.7 146.6 147.4 Q 148.7 147.2 150.8 149.4 Q 152.9 151.6 154.9 155.0" stroke-width="5" />
</svg>
