<?xml version="1.0" encoding="UTF-8"?>
<svg xmlns="http://www.w3.org/2000/svg" viewBox="0 0 256 256" fill="none" stroke="#a06f80" stroke-linecap="round" stroke-linejoin="round">
  <path d="M 86 124 C 98.6 86.2 157.4 86.2 170 124
M 104.9 126 C 117.1 151.2 138.9 151.2 151.1 126
M 128 124 L 128 192" stroke-width="5" />
  <path d="M 99 163.6 Q 99 163.6 101.1 161.9 Q 103.1 160.1 105.2 157.2 Q 107.3 154.3 109.4 152.2 Q 111.4 150 113.5 150.0 Q 115.6 150 117.6 152.2 Q 119.7 154.3 121.8 157.2 Q 123.9 160.1 125.9 161.9 Q 128 163.6 130.1 163.0 Q 132.1 162.4 134.2 159.7 Q 136.3 157 138.4 153.7 Q 140.4 150.5 142.5 148.6 Q 144.6 146.8 146.6 147.5 Q 148.7 148.2 150.8 151.1 Q 152.9 153.9 154.9 157.3" stroke-width="5" />
</svg>
