<svg viewBox="0 0 256 256" xmlns="http://www.w3.org/2000/svg" role="img" aria-label="mushroom">
  <path d="M 26 115 L 2 101 L 0 83 L 6 69 L 39 37 L 77 13 L 102 1 L 131 0 L 144 2 L 199 25 L 222 45 L 250 82 L 255 108 L 252 144 L 246 150 L 207 151 L 189 157 L 185 167 L 188 231 L 182 238 L 170 240 L 120 240 L 99 236 L 87 208 L 82 163 L 60 143 L 31 131 L 17 107 L 16 90" fill="none" stroke="currentColor" stroke-width="8" stroke-linecap="round" stroke-linejoin="round"/>
  <path d="M 125 54 L 107 56 L 73 99 L 77 101 L 94 98" fill="none" stroke="currentColor" stroke-width="8" stroke-linecap="round" stroke-linejoin="round"/>
</svg>
