<svg viewBox="0 0 256 256" xmlns="http://www.w3.org/2000/svg" role="img" aria-label="mushroom">
  <path d="M 37 26 L 57 3 L 66 0 L 179 21 L 220 25 L 233 32 L 254 66 L 254 132 L 252 150 L 213 112 L 187 94 L 165 84 L 123 71 L 75 67 L 31 77 L 14 84 L 3 94 L 1 109 L 6 126 L 14 137 L 29 147 L 66 155 L 206 164 L 241 157 L 243 146 L 239 139" fill="none" stroke="currentColor" stroke-width="8" stroke-linecap="round" stroke-linejoin="round"/>
  <path d="M 40 13 L 2 59 L 0 70 L 8 72" fill="none" stroke="currentColor" stroke-width="8" stroke-linecap="round" stroke-linejoin="round"/>
  <path d="M 109 97 L 80 132 L 61 162 L 54 204 L 55 216 L 127 225 L 113 190 L 108 125 L 109 114 L 112 112 L 129 112" fill="none" stroke="currentColor" stroke-width="8" stroke-linecap="round" stroke-linejoin="round"/>
  <path d="M 159 53 L 176 55 L 187 65 L 188 68 L 179 63 L 160 64 L 160 54" fill="none" stroke="currentColor" stroke-width="8" stroke-linecap="round" stroke-linejoin="round"/>
  <path d="M 78 36 L 58 40 L 48 50" fill="none" stroke="currentColor" stroke-width="8" stroke-linecap="round" stroke-linejoin="round"/>
</svg>
