<svg viewBox="0 0 256 256" xmlns="http://www.w3.org/2000/svg" role="img" aria-label="mushroom">
  <path d="M 135 133 L 197 142 L 232 132 L 244 120 L 254 97 L 254 75 L 244 51 L 223 32 L 191 13 L 161 3 L 139 0 L 121 0 L 83 9 L 61 17 L 41 29 L 16 64 L 0 106 L 0 118 L 13 134 L 31 142 L 75 145 L 111 140 L 115 136 L 111 134 L 108 141 L 108 175 L 100 212 L 101 234 L 107 237 L 135 236 L 149 233 L 152 228 L 152 200 L 147 172 L 146 141 L 142 124 L 140 130" fill="none" stroke="currentColor" stroke-width="8" stroke-linecap="round" stroke-linejoin="round"/>
</svg>
