<svg viewBox="0 0 256 256" xmlns="http://www.w3.org/2000/svg" role="img" aria-label="mushroom">
  <path d="M 0 103 L 11 54 L 26 30 L 43 17 L 61 8 L 108 0 L 134 1 L 159 7 L 179 16 L 194 28 L 212 52 L 222 80 L 226 103 L 154 97 L 42 101 L 21 101 L 11 98" fill="none" stroke="currentColor" stroke-width="8" stroke-linecap="round" stroke-linejoin="round"/>
  <path d="M 222 81 L 213 76 L 203 78 L 192 88 L 191 96" fill="none" stroke="currentColor" stroke-width="8" stroke-linecap="round" stroke-linejoin="round"/>
  <path d="M 149 15 L 154 12 L 156 15 L 157 26 L 149 34 L 138 37 L 124 29 L 121 15" fill="none" stroke="currentColor" stroke-width="8" stroke-linecap="round" stroke-linejoin="round"/>
  <path d="M 25 44 L 29 37 L 41 39 L 50 48 L 50 58 L 42 71 L 25 73 L 18 71" fill="none" stroke="currentColor" stroke-width="8" stroke-linecap="round" stroke-linejoin="round"/>
  <path d="M 77 93 L 87 77 L 97 74 L 108 86 L 106 98" fill="none" stroke="currentColor" stroke-width="8" stroke-linecap="round" stroke-linejoin="round"/>
  <path d="M 133 92 L 129 138 L 121 171 L 117 206 L 100 199 L 74 193 L 70 176 L 72 157 L 89 119 L 90 111 L 87 106" fill="none" stroke="currentColor" stroke-width="8" stroke-linecap="round" stroke-linejoin="round"/>
  <path d="M 123 203 L 131 192 L 138 172 L 134 195 L 147 172 L 152 196 L 155 191 L 159 174 L 157 187 L 159 197 L 162 198 L 175 182 L 175 194 L 180 199 L 192 190 L 199 176 L 197 189 L 200 197 L 204 201 L 212 194 L 222 178 L 233 148 L 226 193 L 229 210 L 235 203 L 255 163" fill="none" stroke="currentColor" stroke-width="8" stroke-linecap="round" stroke-linejoin="round"/>
</svg>
