<svg viewBox="0 0 256 256" xmlns="http://www.w3.org/2000/svg" role="img" aria-label="mushroom">
  <path d="M 8 128 L 72 124 L 196 123 L 224 119 L 249 107 L 255 97 L 254 79 L 249 60 L 237 41 L 206 17 L 187 9 L 155 1 L 112 0 L 85 6 L 69 17 L 14 67 L 0 98 L 1 132 L 14 136 L 44 133" fill="none" stroke="currentColor" stroke-width="8" stroke-linecap="round" stroke-linejoin="round"/>
  <path d="M 93 128 L 90 151 L 93 216 L 105 235 L 112 240 L 120 242 L 144 241 L 160 237 L 165 234 L 170 227 L 170 213 L 161 179 L 162 154 L 155 130" fill="none" stroke="currentColor" stroke-width="8" stroke-linecap="round" stroke-linejoin="round"/>
</svg>
