<svg viewBox="0 0 256 256" xmlns="http://www.w3.org/2000/svg" role="img" aria-label="tree">
  <path d="M 0 239 L 5 241 L 38 236 L 111 181 L 117 169 L 107 135 L 105 113" fill="none" stroke="currentColor" stroke-width="8" stroke-linecap="round" stroke-linejoin="round"/>
  <path d="M 174 243 L 170 253 L 156 255 L 140 242 L 134 228 L 142 130 L 135 94 L 152 100 L 162 101 L 182 95 L 186 89 L 183 81 L 175 72 L 163 64 L 155 64 L 168 37 L 156 5 L 145 0 L 129 4 L 116 15 L 107 36 L 110 35 L 110 26 L 98 19 L 75 18 L 51 24 L 46 47 L 47 65 L 50 76 L 57 80 L 60 77 L 59 71 L 53 68 L 33 82 L 29 90 L 35 98 L 55 112 L 87 114" fill="none" stroke="currentColor" stroke-width="8" stroke-linecap="round" stroke-linejoin="round"/>
</svg>
