<svg viewBox="0 0 256 256" xmlns="http://www.w3.org/2000/svg" role="img" aria-label="tree">
  <path d="M 102 98 L 111 185 L 128 186 L 156 184 L 152 167 L 151 117 L 148 97 L 84 94 L 65 103 L 42 110 L 18 108 L 8 101 L 0 86 L 1 67 L 10 56 L 21 49 L 45 44 L 32 45 L 22 39 L 18 33 L 19 24 L 39 14 L 79 11 L 99 19 L 111 29 L 117 17 L 127 7 L 156 0 L 184 11 L 194 19 L 201 34 L 200 45 L 222 33 L 232 33 L 240 42 L 242 50 L 238 65 L 227 73 L 236 66 L 248 64 L 254 68 L 255 77 L 248 93 L 226 105 L 188 108 L 157 105" fill="none" stroke="currentColor" stroke-width="8" stroke-linecap="round" stroke-linejoin="round"/>
</svg>
