<svg viewBox="0 0 256 256" xmlns="http://www.w3.org/2000/svg" role="img" aria-label="tree">
  <path d="M 88 153 L 64 166 L 46 169 L 17 166 L 0 157 L 2 144 L 12 122 L 27 107 L 33 56 L 42 43 L 54 38 L 68 56 L 87 35 L 109 21 L 120 21 L 129 32 L 132 32 L 160 6 L 179 0 L 193 17 L 193 28 L 221 27 L 227 30 L 236 44 L 238 53 L 237 59 L 232 61 L 246 76 L 255 105 L 245 113 L 230 113 L 227 116 L 225 155 L 217 167 L 207 173 L 203 169 L 197 154 L 190 175 L 183 181 L 171 185 L 165 183 L 151 159 L 147 178 L 135 179 L 131 176 L 119 156" fill="none" stroke="currentColor" stroke-width="8" stroke-linecap="round" stroke-linejoin="round"/>
  <path d="M 95 74 L 94 107 L 83 163 L 83 187 L 89 207 L 87 217 L 61 254 L 61 243" fill="none" stroke="currentColor" stroke-width="8" stroke-linecap="round" stroke-linejoin="round"/>
  <path d="M 123 90 L 119 138 L 131 179 L 133 198 L 148 234" fill="none" stroke="currentColor" stroke-width="8" stroke-linecap="round" stroke-linejoin="round"/>
</svg>
