<svg viewBox="0 0 256 256" xmlns="http://www.w3.org/2000/svg" role="img" aria-label="tree">
  <path d="M 89 115 L 104 195 L 103 237 L 100 245 L 91 249" fill="none" stroke="currentColor" stroke-width="8" stroke-linecap="round" stroke-linejoin="round"/>
  <path d="M 136 116 L 136 191 L 139 216 L 147 234 L 167 255" fill="none" stroke="currentColor" stroke-width="8" stroke-linecap="round" stroke-linejoin="round"/>
  <path d="M 86 114 L 31 112 L 2 92 L 0 75 L 11 59 L 38 33 L 59 21 L 72 20 L 84 38 L 80 24 L 89 13 L 108 1 L 125 0 L 132 11 L 137 29 L 169 26 L 195 43 L 207 59 L 203 67 L 186 74 L 196 83 L 209 103 L 211 109 L 207 116 L 178 126 L 146 126" fill="none" stroke="currentColor" stroke-width="8" stroke-linecap="round" stroke-linejoin="round"/>
</svg>
