<svg viewBox="0 0 256 256" xmlns="http://www.w3.org/2000/svg" role="img" aria-label="tree">
  <path d="M 0 255 L 22 236 L 50 199 L 70 153 L 78 122 L 78 108" fill="none" stroke="currentColor" stroke-width="8" stroke-linecap="round" stroke-linejoin="round"/>
  <path d="M 164 249 L 144 249 L 131 230 L 118 170 L 113 112 L 146 122 L 159 122 L 165 113 L 163 98 L 143 87 L 163 88 L 171 80 L 171 72 L 168 64 L 160 58 L 150 54 L 129 54 L 132 55 L 134 51 L 130 37 L 123 31 L 111 27" fill="none" stroke="currentColor" stroke-width="8" stroke-linecap="round" stroke-linejoin="round"/>
  <path d="M 110 27 L 117 20 L 118 8" fill="none" stroke="currentColor" stroke-width="8" stroke-linecap="round" stroke-linejoin="round"/>
  <path d="M 101 11 L 100 2 L 90 0 L 51 18" fill="none" stroke="currentColor" stroke-width="8" stroke-linecap="round" stroke-linejoin="round"/>
</svg>
