<svg viewBox="0 0 256 256" xmlns="http://www.w3.org/2000/svg" role="img" aria-label="tree">
  <path d="M 72 255 L 73 141 L 53 138 L 13 120 L 9 113 L 8 101 L 17 96 L 32 100 L 28 101 L 11 92 L 3 87 L 0 81 L 5 74 L 17 72 L 4 51 L 1 32 L 3 29 L 16 29 L 35 38 L 34 12 L 35 7 L 42 5 L 57 10 L 73 28 L 99 5 L 118 0 L 121 7 L 121 25 L 109 45 L 142 35 L 156 36 L 160 39 L 157 55 L 150 64 L 126 80 L 154 82 L 171 89 L 173 96 L 153 108 L 177 122 L 184 130 L 185 140 L 180 143 L 154 146 L 124 155 L 108 154 L 105 246" fill="none" stroke="currentColor" stroke-width="8" stroke-linecap="round" stroke-linejoin="round"/>
</svg>
