<svg viewBox="0 0 256 256" xmlns="http://www.w3.org/2000/svg" role="img" aria-label="tree">
  <path d="M 115 255 L 110 234 L 116 145 L 113 115" fill="none" stroke="currentColor" stroke-width="8" stroke-linecap="round" stroke-linejoin="round"/>
  <path d="M 113 116 L 82 113 L 26 117 L 6 114 L 0 110 L 3 89 L 18 64 L 38 46 L 59 45 L 54 29 L 60 17 L 75 4 L 88 1 L 114 1 L 147 22 L 162 21 L 177 26 L 189 35 L 214 74 L 214 80 L 222 91 L 203 121 L 198 123 L 187 120 L 181 132 L 165 198 L 165 245" fill="none" stroke="currentColor" stroke-width="8" stroke-linecap="round" stroke-linejoin="round"/>
</svg>
