<svg viewBox="0 0 256 256" xmlns="http://www.w3.org/2000/svg" role="img" aria-label="tree">
  <path d="M 81 199 L 83 205 L 100 205 L 125 199 L 136 192 L 140 176 L 140 141 L 132 102" fill="none" stroke="currentColor" stroke-width="8" stroke-linecap="round" stroke-linejoin="round"/>
  <path d="M 201 192 L 193 211 L 187 215 L 173 170 L 165 99 L 177 102 L 179 91 L 178 73 L 172 59 L 162 46 L 100 5 L 85 1 L 68 32 L 65 51 L 63 47 L 46 45 L 27 48 L 17 55 L 4 75 L 0 99 L 12 113 L 57 113 L 71 108 L 74 104 L 63 106 L 62 118 L 113 125 L 147 118 L 189 102 L 214 100 L 253 74 L 255 64 L 185 10 L 147 16 L 120 35 L 106 54" fill="none" stroke="currentColor" stroke-width="8" stroke-linecap="round" stroke-linejoin="round"/>
</svg>
