<svg viewBox="0 0 256 256" xmlns="http://www.w3.org/2000/svg" role="img" aria-label="tree">
  <path d="M 71 107 L 73 140 L 68 157 L 37 208 L 0 255" fill="none" stroke="currentColor" stroke-width="8" stroke-linecap="round" stroke-linejoin="round"/>
  <path d="M 72 109 L 33 82 L 19 64 L 15 49 L 16 35 L 26 31 L 47 33 L 54 37 L 57 42 L 50 39 L 48 30 L 54 20 L 62 16 L 79 16 L 107 25 L 113 11 L 125 2 L 138 0 L 151 5 L 154 16 L 150 20 L 168 23 L 180 31 L 187 39 L 184 49 L 145 54 L 194 67 L 201 74 L 201 83 L 180 92 L 140 92" fill="none" stroke="currentColor" stroke-width="8" stroke-linecap="round" stroke-linejoin="round"/>
</svg>
