<svg viewBox="0 0 256 256" xmlns="http://www.w3.org/2000/svg" role="img" aria-label="tree">
  <path d="M 18 255 L 28 241 L 43 185 L 50 143 L 55 74" fill="none" stroke="currentColor" stroke-width="8" stroke-linecap="round" stroke-linejoin="round"/>
  <path d="M 144 255 L 138 251 L 113 196 L 97 138 L 89 82 L 99 87 L 108 87 L 116 80 L 120 70 L 134 78 L 147 78 L 155 62 L 154 48 L 164 47 L 167 43 L 163 26 L 152 15 L 140 14 L 129 21 L 124 12 L 111 5 L 93 6 L 69 17 L 63 13 L 53 12 L 43 22 L 37 39 L 50 77" fill="none" stroke="currentColor" stroke-width="8" stroke-linecap="round" stroke-linejoin="round"/>
  <path d="M 54 83 L 29 97 L 16 98 L 5 93 L 0 83 L 0 72 L 7 61 L 25 60 L 33 68 L 38 81 L 24 81 L 10 71 L 6 61 L 7 47 L 17 34 L 32 26 L 57 25 L 64 26 L 71 33 L 81 8 L 93 0 L 109 2 L 124 16 L 133 31 L 146 23 L 161 21 L 169 32 L 171 54 L 161 68 L 146 76 L 127 77 L 105 70 L 106 67 L 140 58 L 156 44 L 154 33 L 147 30 L 125 31 L 108 46 L 104 56 L 104 73 L 111 78 L 130 79 L 140 72 L 148 59 L 151 26 L 146 17 L 138 13 L 126 13 L 113 20 L 100 32 L 93 43 L 92 63 L 107 73 L 127 71 L 136 65 L 140 55 L 141 43 L 136 29 L 128 23 L 108 23 L 95 29 L 87 39 L 83 55 L 82 70 L 87 79 L 94 84 L 111 84 L 118 76 L 127 49 L 127 34 L 122 23 L 114 18 L 102 19 L 90 25 L 72 44 L 69 56 L 69 73 L 81 79" fill="none" stroke="currentColor" stroke-width="8" stroke-linecap="round" stroke-linejoin="round"/>
</svg>
