<svg viewBox="0 0 256 256" xmlns="http://www.w3.org/2000/svg" role="img" aria-label="tree">
  <path d="M 99 115 L 106 247" fill="none" stroke="currentColor" stroke-width="8" stroke-linecap="round" stroke-linejoin="round"/>
  <path d="M 138 114 L 139 255" fill="none" stroke="currentColor" stroke-width="8" stroke-linecap="round" stroke-linejoin="round"/>
  <path d="M 99 122 L 84 149 L 73 159 L 62 162 L 47 157 L 32 134 L 24 114 L 24 104 L 3 79 L 0 62 L 7 50 L 36 25 L 48 22 L 60 25 L 79 56 L 84 29 L 95 12 L 111 0 L 121 1 L 131 9 L 135 22 L 134 46 L 163 23 L 176 17 L 190 14 L 203 17 L 210 35 L 206 56 L 198 70 L 173 88 L 190 93 L 201 103 L 208 117 L 208 130 L 194 148 L 161 147 L 149 141" fill="none" stroke="currentColor" stroke-width="8" stroke-linecap="round" stroke-linejoin="round"/>
</svg>
