<svg viewBox="0 0 256 256" xmlns="http://www.w3.org/2000/svg" role="img" aria-label="tree">
  <path d="M 19 243 L 60 218 L 83 192 L 95 172 L 102 153 L 104 134 L 103 114 L 97 97" fill="none" stroke="currentColor" stroke-width="8" stroke-linecap="round" stroke-linejoin="round"/>
  <path d="M 229 238 L 186 213 L 161 187 L 150 154 L 150 85" fill="none" stroke="currentColor" stroke-width="8" stroke-linecap="round" stroke-linejoin="round"/>
  <path d="M 98 98 L 46 99 L 20 88 L 10 77 L 8 62 L 20 58 L 5 53 L 0 44 L 10 36 L 35 35 L 30 28 L 31 15 L 37 9 L 51 4 L 61 4 L 76 17 L 82 7 L 94 2 L 107 3 L 127 18 L 139 6 L 154 0 L 163 3 L 171 21 L 187 12 L 200 12 L 211 21 L 211 37 L 233 36 L 253 49 L 255 64 L 243 81" fill="none" stroke="currentColor" stroke-width="8" stroke-linecap="round" stroke-linejoin="round"/>
  <path d="M 150 86 L 160 104 L 181 116 L 196 114 L 203 117 L 212 116 L 220 106 L 221 98" fill="none" stroke="currentColor" stroke-width="8" stroke-linecap="round" stroke-linejoin="round"/>
</svg>
