<svg viewBox="0 0 256 256" xmlns="http://www.w3.org/2000/svg" role="img" aria-label="tree">
  <path d="M 0 255 L 7 252 L 21 235 L 59 162 L 68 128 L 69 84" fill="none" stroke="currentColor" stroke-width="8" stroke-linecap="round" stroke-linejoin="round"/>
  <path d="M 104 87 L 93 158 L 93 194 L 98 216 L 111 237 L 123 247 L 154 254 L 162 253 L 168 248" fill="none" stroke="currentColor" stroke-width="8" stroke-linecap="round" stroke-linejoin="round"/>
  <path d="M 67 80 L 53 84 L 36 84 L 29 79 L 27 59 L 31 48 L 37 43 L 47 43 L 53 52 L 48 34 L 50 20 L 63 14 L 65 24 L 73 12 L 86 6 L 99 9 L 101 19 L 111 3 L 126 1 L 134 8 L 138 26 L 155 47 L 133 51 L 132 61 L 134 75 L 128 81 L 114 85 L 109 91 L 97 91" fill="none" stroke="currentColor" stroke-width="8" stroke-linecap="round" stroke-linejoin="round"/>
</svg>
