<svg viewBox="0 0 256 256" xmlns="http://www.w3.org/2000/svg" role="img" aria-label="tree">
  <path d="M 57 254 L 57 218 L 70 143 L 146 138 L 151 144 L 154 160 L 158 254 L 141 247 L 129 245 L 57 243" fill="none" stroke="currentColor" stroke-width="8" stroke-linecap="round" stroke-linejoin="round"/>
  <path d="M 69 146 L 35 128 L 20 115 L 1 81 L 1 68 L 14 26 L 24 22 L 53 35 L 64 35 L 86 4 L 101 0 L 114 4 L 152 6 L 156 15 L 152 36 L 155 40 L 191 27 L 208 26 L 213 30 L 216 82 L 224 82 L 237 76 L 240 82 L 226 106 L 202 130 L 178 146 L 156 150" fill="none" stroke="currentColor" stroke-width="8" stroke-linecap="round" stroke-linejoin="round"/>
</svg>
