<?xml version="1.0" encoding="UTF-8"?>
<svg xmlns="http://www.w3.org/2000/svg" viewBox="0 0 256 256" fill="none" stroke="#5f836a" stroke-linecap="round" stroke-linejoin="round">
  <path d="M 124 100 Q 124 100 129.4 100.0 Q 134.7 100.1 138.4 104.0 Q 142 108 144.1 112.4 Q 146.2 116.8 148.6 121.4 Q 151 126 150.3 131.3 Q 149.6 136.6 145.5 140.0 Q 141.4 143.4 137.4 146.1 Q 133.5 148.8 128.7 151.3 Q 124 153.8 118.9 152.3 Q 113.7 150.8 110.4 146.9 Q 107 143 103.6 139.4 Q 100.3 135.8 98.1 130.9 Q 95.9 126 98.1 121.1 Q 100.2 116.1 103.6 112.6 Q 107 109 110.4 105.2 Q 113.8 101.3 118.9 99.7 Z" stroke-width="5" />
  <path d="M 140 118 Q 140 118 142.6 117.8 Q 145.1 117.6 146.7 119.7 Q 148.2 121.8 149.0 123.8 Q 149.9 125.9 151.3 128.0 Q 152.7 130 152.4 132.5 Q 152.1 135 150.0 136.4 Q 147.8 137.8 146.0 139.0 Q 144.3 140.3 142.1 141.8 Q 140 143.2 137.6 142.4 Q 135.2 141.6 133.8 139.6 Q 132.5 137.5 130.8 136.0 Q 129.1 134.5 127.8 132.3 Q 126.6 130 127.8 127.7 Q 129.1 125.5 130.8 124.0 Q 132.5 122.5 133.9 120.5 Q 135.2 118.4 137.6 117.6 Z" stroke-width="5" />
  <path d="M 132 135 Q 132 135 134.0 134.8 Q 135.9 134.5 137.0 136.2 Q 138.1 137.9 138.7 139.4 Q 139.2 141 140.4 142.5 Q 141.6 144 141.4 145.9 Q 141.2 147.8 139.5 148.8 Q 137.7 149.7 136.4 150.7 Q 135.1 151.6 133.6 152.8 Q 132 154.1 130.2 153.4 Q 128.4 152.8 127.4 151.1 Q 126.5 149.5 125.2 148.4 Q 123.9 147.4 122.8 145.7 Q 121.7 144 122.8 142.3 Q 123.8 140.6 125.2 139.6 Q 126.5 138.5 127.4 136.9 Q 128.4 135.3 130.2 134.6 Z" stroke-width="5" />
</svg>
