<svg viewBox="0 0 256 256" xmlns="http://www.w3.org/2000/svg" role="img" aria-label="leaf">
  <path d="M 56 67 L 56 67" fill="none" stroke="currentColor" stroke-width="8" stroke-linecap="round" stroke-linejoin="round"/>
  <path d="M 49 255 L 51 221 L 44 184 L 44 181 L 48 184 L 43 192 L 30 193 L 6 173 L 0 155 L 0 127 L 9 105 L 41 52 L 60 1 L 66 14 L 79 73 L 99 120 L 104 143 L 105 170 L 96 180 L 81 185 L 58 186 L 50 185 L 40 179" fill="none" stroke="currentColor" stroke-width="8" stroke-linecap="round" stroke-linejoin="round"/>
  <path d="M 65 21 L 60 15 L 57 5 L 60 131 L 55 186 L 51 198" fill="none" stroke="currentColor" stroke-width="8" stroke-linecap="round" stroke-linejoin="round"/>
  <path d="M 97 148 L 62 164" fill="none" stroke="currentColor" stroke-width="8" stroke-linecap="round" stroke-linejoin="round"/>
  <path d="M 19 151 L 21 156 L 32 161 L 64 167" fill="none" stroke="currentColor" stroke-width="8" stroke-linecap="round" stroke-linejoin="round"/>
  <path d="M 88 122 L 65 135" fill="none" stroke="currentColor" stroke-width="8" stroke-linecap="round" stroke-linejoin="round"/>
  <path d="M 39 126 L 39 126" fill="none" stroke="currentColor" stroke-width="8" stroke-linecap="round" stroke-linejoin="round"/>
</svg>
