<svg viewBox="0 0 256 256" xmlns="http://www.w3.org/2000/svg" role="img" aria-label="leaf">
  <path d="M 7 213 L 78 184 L 137 143 L 151 129 L 223 31 L 254 0 L 251 38 L 233 93 L 208 131 L 161 189 L 140 202 L 98 212 L 20 213 L 0 211 L 0 209 L 46 176 L 99 133 L 185 38 L 208 21 L 243 6" fill="none" stroke="currentColor" stroke-width="8" stroke-linecap="round" stroke-linejoin="round"/>
  <path d="M 154 81 L 183 85" fill="none" stroke="currentColor" stroke-width="8" stroke-linecap="round" stroke-linejoin="round"/>
  <path d="M 130 116 L 162 126 L 161 128" fill="none" stroke="currentColor" stroke-width="8" stroke-linecap="round" stroke-linejoin="round"/>
  <path d="M 96 153 L 114 155" fill="none" stroke="currentColor" stroke-width="8" stroke-linecap="round" stroke-linejoin="round"/>
  <path d="M 125 150 L 168 144" fill="none" stroke="currentColor" stroke-width="8" stroke-linecap="round" stroke-linejoin="round"/>
  <path d="M 169 111 L 207 97" fill="none" stroke="currentColor" stroke-width="8" stroke-linecap="round" stroke-linejoin="round"/>
</svg>
