<svg viewBox="0 0 256 256" xmlns="http://www.w3.org/2000/svg" role="img" aria-label="leaf">
  <path d="M 104 255 L 106 244 L 100 237 L 42 218 L 24 206 L 8 189 L 0 167 L 1 123 L 31 71 L 38 54 L 42 32 L 41 0 L 41 20 L 51 40 L 64 47 L 107 62 L 123 73 L 150 100 L 155 131 L 151 174 L 130 206 L 122 222 L 102 249 L 102 209 L 90 155 L 79 138 L 68 108 L 60 102 L 56 108" fill="none" stroke="currentColor" stroke-width="8" stroke-linecap="round" stroke-linejoin="round"/>
  <path d="M 90 170 L 50 170 L 46 176" fill="none" stroke="currentColor" stroke-width="8" stroke-linecap="round" stroke-linejoin="round"/>
  <path d="M 75 131 L 51 132 L 40 138 L 36 146" fill="none" stroke="currentColor" stroke-width="8" stroke-linecap="round" stroke-linejoin="round"/>
</svg>
