<svg viewBox="0 0 256 256" xmlns="http://www.w3.org/2000/svg" role="img" aria-label="leaf">
  <path d="M 106 178 L 106 234 L 111 255" fill="none" stroke="currentColor" stroke-width="8" stroke-linecap="round" stroke-linejoin="round"/>
  <path d="M 8 86 L 36 124 L 64 146 L 82 166 L 114 175 L 136 172 L 155 145 L 169 102 L 170 41 L 163 7 L 158 0 L 150 0 L 112 61 L 71 8 L 66 18 L 58 64 L 46 58 L 22 31 L 14 31 L 4 42 L 0 56 L 1 71 L 8 84" fill="none" stroke="currentColor" stroke-width="8" stroke-linecap="round" stroke-linejoin="round"/>
  <path d="M 72 22 L 74 40 L 84 85 L 96 121 L 112 154 L 114 167" fill="none" stroke="currentColor" stroke-width="8" stroke-linecap="round" stroke-linejoin="round"/>
  <path d="M 94 85 L 117 64 L 135 56" fill="none" stroke="currentColor" stroke-width="8" stroke-linecap="round" stroke-linejoin="round"/>
  <path d="M 33 71 L 42 76 L 86 81" fill="none" stroke="currentColor" stroke-width="8" stroke-linecap="round" stroke-linejoin="round"/>
  <path d="M 98 115 L 75 114" fill="none" stroke="currentColor" stroke-width="8" stroke-linecap="round" stroke-linejoin="round"/>
</svg>
