<svg viewBox="0 0 256 256" xmlns="http://www.w3.org/2000/svg" role="img" aria-label="leaf">
  <path d="M 50 248 L 43 249 L 29 235 L 5 191 L 0 154 L 1 113 L 7 100 L 23 79 L 95 15 L 126 0 L 161 7 L 176 16 L 209 61 L 229 93 L 232 107 L 229 137 L 210 161 L 180 182 L 142 225 L 82 252 L 37 254" fill="none" stroke="currentColor" stroke-width="8" stroke-linecap="round" stroke-linejoin="round"/>
  <path d="M 43 252 L 44 236 L 55 204 L 73 165 L 90 140 L 102 106 L 118 84 L 125 62 L 125 44 L 132 30 L 138 6 L 139 18" fill="none" stroke="currentColor" stroke-width="8" stroke-linecap="round" stroke-linejoin="round"/>
  <path d="M 85 138 L 80 96 L 66 50 L 66 61" fill="none" stroke="currentColor" stroke-width="8" stroke-linecap="round" stroke-linejoin="round"/>
  <path d="M 70 153 L 62 167 L 51 143 L 41 112 L 35 101 L 34 110 L 39 116" fill="none" stroke="currentColor" stroke-width="8" stroke-linecap="round" stroke-linejoin="round"/>
  <path d="M 76 192 L 86 185 L 115 177 L 198 164 L 194 160" fill="none" stroke="currentColor" stroke-width="8" stroke-linecap="round" stroke-linejoin="round"/>
  <path d="M 94 131 L 166 109 L 165 105" fill="none" stroke="currentColor" stroke-width="8" stroke-linecap="round" stroke-linejoin="round"/>
  <path d="M 112 72 L 120 74 L 132 68" fill="none" stroke="currentColor" stroke-width="8" stroke-linecap="round" stroke-linejoin="round"/>
</svg>
