<svg viewBox="0 0 256 256" xmlns="http://www.w3.org/2000/svg" role="img" aria-label="leaf">
  <path d="M 85 255 L 82 249 L 78 222 L 77 164" fill="none" stroke="currentColor" stroke-width="8" stroke-linecap="round" stroke-linejoin="round"/>
  <path d="M 78 172 L 50 170 L 27 158 L 8 131 L 0 96 L 0 70 L 3 62 L 21 45 L 43 33 L 67 0 L 75 6 L 94 43 L 127 60 L 136 68 L 148 91 L 148 110 L 142 122 L 93 161" fill="none" stroke="currentColor" stroke-width="8" stroke-linecap="round" stroke-linejoin="round"/>
  <path d="M 52 9 L 55 33 L 62 59 L 71 145 L 81 189" fill="none" stroke="currentColor" stroke-width="8" stroke-linecap="round" stroke-linejoin="round"/>
  <path d="M 56 94 L 31 78 L 15 75" fill="none" stroke="currentColor" stroke-width="8" stroke-linecap="round" stroke-linejoin="round"/>
  <path d="M 93 93 L 89 81 L 96 71 L 114 56 L 129 51" fill="none" stroke="currentColor" stroke-width="8" stroke-linecap="round" stroke-linejoin="round"/>
  <path d="M 72 135 L 52 135 L 31 128" fill="none" stroke="currentColor" stroke-width="8" stroke-linecap="round" stroke-linejoin="round"/>
  <path d="M 97 135 L 100 121 L 122 103" fill="none" stroke="currentColor" stroke-width="8" stroke-linecap="round" stroke-linejoin="round"/>
</svg>
