<svg viewBox="0 0 256 256" xmlns="http://www.w3.org/2000/svg" role="img" aria-label="leaf">
  <path d="M 58 185 L 55 255" fill="none" stroke="currentColor" stroke-width="8" stroke-linecap="round" stroke-linejoin="round"/>
  <path d="M 72 182 L 80 182 L 96 172 L 129 123 L 144 77 L 146 50 L 134 35 L 107 13 L 88 6 L 82 0 L 67 26 L 62 41 L 12 87 L 1 106 L 0 141 L 7 168 L 39 230 L 48 237 L 70 242 L 84 237 L 87 232" fill="none" stroke="currentColor" stroke-width="8" stroke-linecap="round" stroke-linejoin="round"/>
  <path d="M 66 209 L 66 151 L 78 90 L 80 53 L 89 19 L 88 12 L 86 10 L 85 15" fill="none" stroke="currentColor" stroke-width="8" stroke-linecap="round" stroke-linejoin="round"/>
  <path d="M 81 76 L 102 52 L 158 13" fill="none" stroke="currentColor" stroke-width="8" stroke-linecap="round" stroke-linejoin="round"/>
  <path d="M 87 132 L 137 66" fill="none" stroke="currentColor" stroke-width="8" stroke-linecap="round" stroke-linejoin="round"/>
  <path d="M 64 194 L 67 186 L 73 181 L 111 159" fill="none" stroke="currentColor" stroke-width="8" stroke-linecap="round" stroke-linejoin="round"/>
</svg>
