<svg viewBox="0 0 256 256" xmlns="http://www.w3.org/2000/svg" role="img" aria-label="leaf">
  <path d="M 84 43 L 97 30 L 138 7 L 172 0 L 207 1 L 224 9 L 239 21 L 248 39 L 249 82 L 241 106 L 215 152 L 193 168 L 115 190 L 9 198" fill="none" stroke="currentColor" stroke-width="8" stroke-linecap="round" stroke-linejoin="round"/>
  <path d="M 102 34 L 47 66 L 24 89 L 10 122 L 2 163 L 0 208" fill="none" stroke="currentColor" stroke-width="8" stroke-linecap="round" stroke-linejoin="round"/>
  <path d="M 238 19 L 228 21 L 194 40 L 112 103 L 66 143 L 15 198" fill="none" stroke="currentColor" stroke-width="8" stroke-linecap="round" stroke-linejoin="round"/>
  <path d="M 136 65 L 163 24 L 172 14 L 191 1" fill="none" stroke="currentColor" stroke-width="8" stroke-linecap="round" stroke-linejoin="round"/>
  <path d="M 156 90 L 214 84 L 255 86" fill="none" stroke="currentColor" stroke-width="8" stroke-linecap="round" stroke-linejoin="round"/>
  <path d="M 91 127 L 86 117 L 89 72 L 95 53 L 110 27" fill="none" stroke="currentColor" stroke-width="8" stroke-linecap="round" stroke-linejoin="round"/>
  <path d="M 100 132 L 141 136 L 205 159" fill="none" stroke="currentColor" stroke-width="8" stroke-linecap="round" stroke-linejoin="round"/>
  <path d="M 58 149 L 47 123 L 47 97 L 53 82 L 61 71" fill="none" stroke="currentColor" stroke-width="8" stroke-linecap="round" stroke-linejoin="round"/>
  <path d="M 41 159 L 63 177 L 110 193" fill="none" stroke="currentColor" stroke-width="8" stroke-linecap="round" stroke-linejoin="round"/>
</svg>
