<svg viewBox="0 0 256 256" xmlns="http://www.w3.org/2000/svg" role="img" aria-label="leaf">
  <path d="M 54 0 L 58 50 L 30 72 L 12 95 L 7 123 L 7 151 L 13 171 L 32 202 L 49 251 L 58 255 L 74 235 L 95 182 L 110 125 L 113 101 L 110 85 L 101 70 L 64 51" fill="none" stroke="currentColor" stroke-width="8" stroke-linecap="round" stroke-linejoin="round"/>
  <path d="M 64 55 L 55 53" fill="none" stroke="currentColor" stroke-width="8" stroke-linecap="round" stroke-linejoin="round"/>
  <path d="M 59 55 L 54 251" fill="none" stroke="currentColor" stroke-width="8" stroke-linecap="round" stroke-linejoin="round"/>
  <path d="M 54 151 L 88 191" fill="none" stroke="currentColor" stroke-width="8" stroke-linecap="round" stroke-linejoin="round"/>
  <path d="M 47 152 L 27 162 L 18 178" fill="none" stroke="currentColor" stroke-width="8" stroke-linecap="round" stroke-linejoin="round"/>
  <path d="M 61 99 L 70 102 L 81 114 L 99 116" fill="none" stroke="currentColor" stroke-width="8" stroke-linecap="round" stroke-linejoin="round"/>
  <path d="M 60 110 L 47 110 L 27 122 L 10 122 L 0 132" fill="none" stroke="currentColor" stroke-width="8" stroke-linecap="round" stroke-linejoin="round"/>
</svg>
