<?xml version="1.0" encoding="UTF-8"?>
<svg xmlns="http://www.w3.org/2000/svg" viewBox="0 0 256 256" fill="none" stroke="#6487a4" stroke-linecap="round" stroke-linejoin="round">
  <path d="M 44 141.7 Q 44 141.7 50.0 145.5 Q 56 149.4 62.0 144.9 Q 68 140.4 74.0 131.7 Q 80 123 86.0 117.4 Q 92 111.9 98.0 114.0 Q 104 116.2 110.0 124.2 Q 116 132.1 122.0 138.8 Q 128 145.5 134.0 145.0 Q 140 144.5 146.0 136.7 Q 152 128.9 158.0 119.9 Q 164 110.8 170.0 107.7 Q 176 104.6 182.0 110.1 Q 188 115.6 194.0 125.3 Q 200 135 206.0 141.3" stroke-width="5" />
  <path d="M 57 150.2 Q 57 150.2 62.1 145.7 Q 67.1 141.1 72.2 141.0 Q 77.3 140.8 82.4 145.4 Q 87.4 150 92.5 156.0 Q 97.6 162.1 102.6 165.0 Q 107.7 167.9 112.8 165.4 Q 117.9 162.9 122.9 156.6 Q 128 150.2 133.1 144.6 Q 138.1 139 143.2 137.9 Q 148.3 136.9 153.4 141.0 Q 158.4 145.1 163.5 151.1 Q 168.6 157.2 173.6 160.6 Q 178.7 164 183.8 162.3 Q 188.9 160.7 193.9 155.5" stroke-width="5" />
</svg>
