<svg viewBox="0 0 256 256" xmlns="http://www.w3.org/2000/svg" role="img" aria-label="bush">
  <path d="M 62 137 L 50 141 L 39 140 L 26 133 L 10 119 L 0 96 L 4 64 L 7 57 L 20 47 L 41 43 L 56 47 L 54 60 L 40 64 L 34 61 L 34 58 L 41 44 L 55 30 L 80 18 L 104 16 L 134 27 L 151 41 L 162 61 L 150 72 L 139 73 L 130 66 L 127 34 L 136 16 L 152 6 L 171 0 L 194 3 L 224 18 L 244 44 L 255 80 L 254 87 L 246 99 L 234 108 L 209 116 L 179 120 L 162 116 L 160 110 L 165 99 L 195 74 L 209 68 L 220 68 L 233 74 L 234 82 L 231 90 L 215 109 L 165 144 L 97 174 L 87 174 L 72 168 L 72 161 L 100 131 L 111 128 L 125 130 L 126 134 L 122 137 L 95 155 L 68 161 L 58 158 L 51 133 L 44 131" fill="none" stroke="currentColor" stroke-width="8" stroke-linecap="round" stroke-linejoin="round"/>
  <path d="M 50 94 L 20 93 L 34 52 L 34 46 L 13 77 L 26 78 L 54 68 L 62 68 L 66 73 L 67 89 L 72 94 L 104 79 L 151 67 L 154 69 L 155 79 L 150 113 L 137 46 L 165 46 L 180 36 L 167 53 L 146 71 L 135 76 L 124 76 L 122 33 L 116 17 L 66 50 L 61 49 L 59 46 L 63 30 L 59 47 L 51 57 L 39 69 L 28 74 L 63 57 L 84 56 L 110 64 L 134 82 L 143 85 L 214 43 L 211 49 L 193 67 L 171 71 L 159 63 L 139 39 L 86 75 L 36 99 L 32 113 L 37 119 L 82 122 L 136 135 L 147 118 L 170 99 L 220 83" fill="none" stroke="currentColor" stroke-width="8" stroke-linecap="round" stroke-linejoin="round"/>
</svg>
