<svg viewBox="0 0 256 256" xmlns="http://www.w3.org/2000/svg" role="img" aria-label="bush">
  <path d="M 55 237 L 47 184 L 28 145 L 10 122 L 6 110 L 0 56 L 2 30 L 6 23 L 16 29 L 21 40 L 32 82 L 30 67 L 32 45 L 41 61 L 58 143 L 58 164 L 50 148 L 43 63 L 49 58 L 58 63 L 65 74 L 70 91 L 71 126 L 64 142 L 56 150 L 51 151 L 45 146 L 37 129 L 31 96 L 30 58 L 31 26 L 36 7 L 43 0 L 49 0 L 59 8 L 71 27 L 80 51 L 84 76 L 82 99 L 77 102 L 66 100 L 54 84 L 43 55 L 36 2 L 42 0 L 51 6 L 62 19 L 73 42 L 85 89 L 86 114 L 83 119 L 78 101 L 75 48 L 84 16 L 93 11 L 99 15 L 104 31 L 105 81 L 92 121 L 88 126 L 82 121 L 78 101 L 78 59 L 82 43 L 88 34 L 98 29 L 111 28 L 115 36 L 117 50 L 116 90 L 111 104 L 105 110 L 98 111 L 95 83 L 100 59 L 119 36 L 125 33 L 137 36 L 142 46 L 138 83 L 114 127 L 110 118 L 110 96 L 122 50 L 132 37 L 143 31 L 148 31 L 155 42 L 154 72 L 147 87 L 135 100 L 129 98 L 131 60 L 143 36 L 157 21 L 173 11 L 195 11 L 201 20 L 200 38 L 176 86 L 155 113 L 135 128 L 121 135 L 111 136 L 105 133 L 103 123 L 107 107 L 116 88 L 147 61 L 162 57 L 170 57 L 174 72 L 168 88 L 150 112 L 129 131 L 111 142 L 90 147 L 70 146 L 68 133 L 73 120 L 107 87 L 151 66 L 176 64 L 174 78 L 167 89 L 151 98 L 135 142 L 97 225 L 88 242 L 76 253 L 70 255" fill="none" stroke="currentColor" stroke-width="8" stroke-linecap="round" stroke-linejoin="round"/>
</svg>
