<svg viewBox="0 0 256 256" xmlns="http://www.w3.org/2000/svg" role="img" aria-label="bush">
  <path d="M 20 199 L 7 197 L 1 190 L 0 183 L 1 166 L 8 159 L 21 160 L 13 161 L 10 157 L 3 133 L 4 113 L 12 97 L 18 94 L 29 96 L 22 98 L 17 90 L 19 60 L 23 52 L 37 41 L 65 38 L 68 24 L 74 16 L 93 2 L 105 0 L 123 2 L 129 10 L 130 17 L 124 30 L 156 21 L 175 31 L 182 49 L 187 52 L 202 45 L 213 43 L 222 45 L 230 53 L 231 60 L 230 72 L 224 85 L 245 85 L 251 88 L 255 98 L 253 111 L 243 131 L 236 136 L 245 148 L 244 155 L 237 168 L 223 181 L 225 186 L 232 188 L 227 193 L 214 196" fill="none" stroke="currentColor" stroke-width="8" stroke-linecap="round" stroke-linejoin="round"/>
  <path d="M 9 215 L 20 226 L 54 218 L 62 210 L 68 209 L 81 216 L 115 217 L 138 210 L 149 200 L 151 206 L 163 206 L 204 196 L 198 195" fill="none" stroke="currentColor" stroke-width="8" stroke-linecap="round" stroke-linejoin="round"/>
</svg>
