<svg viewBox="0 0 256 256" xmlns="http://www.w3.org/2000/svg" role="img" aria-label="bush">
  <path d="M 80 88 L 28 79 L 6 71 L 1 62 L 0 49 L 2 42 L 11 34 L 31 26 L 50 28 L 57 34 L 62 47 L 66 72 L 58 65 L 52 52 L 52 37 L 56 29 L 82 13 L 106 11 L 112 15 L 111 31 L 99 49 L 92 53 L 70 54 L 56 47 L 51 36 L 52 18 L 64 6 L 78 1 L 104 0 L 134 13 L 142 25 L 142 44 L 134 58 L 126 61 L 123 56 L 124 45 L 142 20 L 163 10 L 192 9 L 196 15 L 195 32 L 189 43 L 181 49 L 183 45 L 193 40 L 213 38 L 225 43 L 233 53 L 231 62 L 219 73 L 206 76 L 194 74 L 200 72 L 211 74 L 212 86 L 206 93 L 183 94 L 127 76 L 16 72" fill="none" stroke="currentColor" stroke-width="8" stroke-linecap="round" stroke-linejoin="round"/>
  <path d="M 19 74 L 69 77 L 128 91 L 180 99 L 225 97 L 244 90 L 250 84 L 255 65 L 254 56 L 246 51 L 210 44 L 197 45 L 177 58 L 172 69 L 198 49 L 207 38 L 208 26 L 197 14 L 157 9 L 142 18 L 137 30 L 137 43 L 144 51 L 161 51 L 174 39 L 174 28 L 166 18 L 138 22 L 116 30 L 112 35 L 110 46 L 120 59 L 121 47 L 108 22" fill="none" stroke="currentColor" stroke-width="8" stroke-linecap="round" stroke-linejoin="round"/>
</svg>
