<svg viewBox="0 0 256 256" xmlns="http://www.w3.org/2000/svg" role="img" aria-label="bush">
  <path d="M 100 88 L 90 89 L 73 75 L 63 62 L 63 58 L 72 55 L 101 27 L 125 27 L 127 8 L 157 0 L 162 0 L 173 18 L 174 8 L 195 2 L 239 2 L 244 23 L 241 27 L 234 29 L 245 30 L 252 37 L 255 68 L 235 83 L 199 96 L 191 96 L 189 91 L 184 119 L 169 129 L 137 130 L 102 103 L 91 89" fill="none" stroke="currentColor" stroke-width="8" stroke-linecap="round" stroke-linejoin="round"/>
  <path d="M 88 38 L 84 37 L 78 24 L 56 18 L 45 18 L 32 47 L 13 50 L 4 58 L 0 68 L 1 100 L 41 145 L 49 149 L 60 149 L 91 139 L 112 127 L 120 117" fill="none" stroke="currentColor" stroke-width="8" stroke-linecap="round" stroke-linejoin="round"/>
</svg>
