<svg viewBox="0 0 256 256" xmlns="http://www.w3.org/2000/svg" role="img" aria-label="bush">
  <path d="M 50 164 L 59 143 L 60 132 L 63 137 L 75 145 L 62 164" fill="none" stroke="currentColor" stroke-width="8" stroke-linecap="round" stroke-linejoin="round"/>
  <path d="M 50 48 L 35 96 L 38 124 L 44 133 L 62 133 L 63 127 L 62 135 L 72 149 L 88 156 L 102 156 L 135 144 L 163 124" fill="none" stroke="currentColor" stroke-width="8" stroke-linecap="round" stroke-linejoin="round"/>
  <path d="M 187 177 L 197 181 L 209 180 L 219 175 L 228 165 L 236 150 L 237 135 L 227 132 L 214 135 L 206 142 L 204 152 L 208 159 L 218 164 L 233 164 L 245 158 L 255 138 L 255 128 L 248 110 L 241 104 L 229 101 L 214 108 L 202 118 L 198 128 L 198 142 L 200 145 L 205 142 L 222 127 L 228 117 L 231 103 L 228 84 L 219 69 L 208 64 L 197 71 L 212 44 L 213 36 L 210 32 L 190 29 L 157 40 L 150 46 L 149 56 L 154 63 L 160 65 L 177 56 L 183 40 L 170 24 L 151 20 L 133 23 L 106 37 L 98 46 L 92 61 L 110 56 L 121 44 L 125 22 L 121 13 L 113 9 L 91 13 L 67 22 L 55 31 L 50 43 L 56 46 L 67 45 L 84 35 L 92 20 L 91 7 L 83 0 L 62 3 L 44 11 L 22 31 L 12 50 L 11 59 L 15 63 L 25 60 L 39 40 L 41 36 L 36 36 L 15 55 L 2 78 L 0 91 L 9 98 L 18 98 L 34 81 L 23 90 L 18 102 L 20 115 L 27 121 L 39 115 L 45 105 L 39 107 L 32 116 L 30 130 L 33 137 L 50 134 L 79 115 L 83 123 L 85 142 L 89 148 L 97 151 L 112 146 L 132 130 L 136 127 L 137 129" fill="none" stroke="currentColor" stroke-width="8" stroke-linecap="round" stroke-linejoin="round"/>
</svg>
