<svg viewBox="0 0 256 256" xmlns="http://www.w3.org/2000/svg" role="img" aria-label="bush">
  <path d="M 0 96 L 1 57 L 10 11 L 23 10 L 29 15 L 37 33 L 38 45 L 38 16 L 47 7 L 55 7 L 63 15 L 68 25 L 70 38 L 72 23 L 80 10 L 90 6 L 98 8 L 105 18 L 106 33 L 109 12 L 115 4 L 125 0 L 133 0 L 138 7 L 143 36 L 152 15 L 167 5 L 177 5 L 184 9 L 192 32 L 196 11 L 205 4 L 221 6 L 233 27 L 241 17 L 246 15 L 251 27 L 255 57 L 246 122 L 243 117 L 232 113 L 198 109 L 15 106" fill="none" stroke="currentColor" stroke-width="8" stroke-linecap="round" stroke-linejoin="round"/>
</svg>
