<svg viewBox="0 0 256 256" xmlns="http://www.w3.org/2000/svg" role="img" aria-label="bush">
  <path d="M 38 135 L 70 138 L 190 138" fill="none" stroke="currentColor" stroke-width="8" stroke-linecap="round" stroke-linejoin="round"/>
  <path d="M 44 139 L 25 130 L 5 107 L 0 87 L 3 70 L 14 63 L 30 69 L 41 83 L 47 105 L 37 76 L 36 49 L 44 31 L 48 29 L 57 32 L 63 41 L 72 67 L 76 107 L 72 79 L 73 45 L 84 8 L 93 0 L 99 8 L 104 32 L 104 96 L 110 64 L 125 25 L 137 8 L 149 0 L 157 4 L 159 23 L 148 72 L 169 35 L 183 21 L 195 16 L 201 19 L 202 32 L 183 88 L 231 58 L 246 56 L 254 63 L 253 85 L 236 116 L 210 139 L 190 148" fill="none" stroke="currentColor" stroke-width="8" stroke-linecap="round" stroke-linejoin="round"/>
</svg>
