<svg viewBox="0 0 256 256" xmlns="http://www.w3.org/2000/svg" role="img" aria-label="bush">
  <path d="M 13 115 L 13 65 L 26 58 L 38 59 L 47 64 L 44 55 L 45 43 L 59 31 L 70 26 L 96 27 L 92 38 L 118 14 L 139 0 L 142 30 L 168 8 L 187 2 L 192 13 L 196 41 L 239 25 L 244 25 L 248 30 L 255 85 L 255 150 L 253 165 L 226 165 L 191 178 L 154 185 L 117 184 L 103 180 L 86 167 L 70 164 L 55 164 L 22 171 L 3 152 L 0 136 L 0 129 L 10 111 L 11 94 L 15 83" fill="none" stroke="currentColor" stroke-width="8" stroke-linecap="round" stroke-linejoin="round"/>
</svg>
