<svg viewBox="0 0 256 256" xmlns="http://www.w3.org/2000/svg" role="img" aria-label="bush">
  <path d="M 92 42 L 87 40 L 80 43 L 68 60 L 68 78 L 78 88 L 88 88 L 96 85 L 106 75 L 110 65 L 108 56 L 104 52 L 94 47 L 84 47 L 75 53 L 73 64 L 79 78 L 88 87 L 101 90 L 111 87 L 130 70 L 135 60 L 136 50 L 130 45 L 118 45 L 105 49 L 90 60 L 85 71 L 88 82 L 98 89 L 118 93 L 133 88 L 144 80 L 149 67 L 146 51 L 136 43 L 121 39 L 108 47 L 104 59 L 107 71 L 120 81 L 131 84 L 147 83 L 161 77 L 169 69 L 171 59 L 164 48 L 156 44 L 142 43 L 127 51 L 122 61 L 125 75 L 136 85 L 149 90 L 163 88 L 175 79 L 182 67 L 184 56 L 181 40 L 175 30 L 164 25 L 151 30 L 145 42 L 143 55 L 149 68 L 158 72 L 167 67 L 172 56 L 173 44 L 163 29 L 149 25 L 137 35 L 135 45 L 137 51 L 143 53 L 152 50 L 159 35 L 156 21 L 142 12 L 132 15 L 126 20 L 120 37 L 124 55 L 129 58 L 136 55 L 142 44 L 140 36 L 134 26 L 124 23 L 113 24 L 105 32 L 101 41 L 104 51 L 109 55 L 118 57 L 125 53 L 127 47 L 124 31 L 117 24 L 109 23 L 99 28 L 95 35 L 92 48 L 95 59 L 100 62 L 110 61 L 126 46 L 127 28 L 118 22 L 110 21 L 92 27 L 79 40 L 78 47 L 82 54 L 96 56 L 105 46 L 102 34 L 90 28 L 78 34 L 77 47 L 87 58" fill="none" stroke="currentColor" stroke-width="8" stroke-linecap="round" stroke-linejoin="round"/>
  <path d="M 0 88 L 5 86 L 58 89 L 176 81 L 232 81 L 255 84" fill="none" stroke="currentColor" stroke-width="8" stroke-linecap="round" stroke-linejoin="round"/>
  <path d="M 68 86 L 60 82 L 54 68 L 59 32 L 69 16 L 75 19 L 79 28 L 91 10 L 104 1 L 107 3 L 109 20 L 111 21 L 136 4 L 147 0 L 151 4 L 156 21 L 181 5 L 186 10 L 185 27 L 204 17 L 202 25 L 187 46 L 207 40 L 210 42 L 211 46 L 206 56 L 187 78" fill="none" stroke="currentColor" stroke-width="8" stroke-linecap="round" stroke-linejoin="round"/>
</svg>
