<svg viewBox="0 0 256 256" xmlns="http://www.w3.org/2000/svg" role="img" aria-label="bush">
  <path d="M 12 132 L 1 87 L 0 71 L 4 54 L 12 38 L 26 35 L 48 21 L 53 20 L 57 31 L 76 17 L 94 16 L 106 32 L 122 26 L 241 78 L 240 88 L 226 101 L 229 109 L 227 114 L 203 126 L 207 139 L 204 144 L 186 146 L 185 142" fill="none" stroke="currentColor" stroke-width="8" stroke-linecap="round" stroke-linejoin="round"/>
  <path d="M 119 27 L 153 3 L 164 0 L 184 1 L 193 13 L 191 40 L 196 33 L 207 31 L 212 37 L 214 52 L 229 46 L 243 45 L 247 47 L 255 78 L 255 89 L 248 109" fill="none" stroke="currentColor" stroke-width="8" stroke-linecap="round" stroke-linejoin="round"/>
  <path d="M 89 87 L 86 105 L 90 115" fill="none" stroke="currentColor" stroke-width="8" stroke-linecap="round" stroke-linejoin="round"/>
</svg>
