<svg viewBox="0 0 256 256" xmlns="http://www.w3.org/2000/svg" role="img" aria-label="bush">
  <path d="M 32 92 L 31 85 L 43 56 L 55 36 L 66 26 L 90 27 L 121 1 L 130 0 L 146 10 L 165 11 L 213 1 L 219 8 L 220 37 L 223 40 L 235 40 L 252 34 L 254 36 L 255 93 L 228 132 L 219 141 L 206 147 L 194 145 L 175 130 L 160 125 L 102 135 L 68 136 L 27 148 L 12 146 L 3 131 L 0 108 L 8 100 L 22 94" fill="none" stroke="currentColor" stroke-width="8" stroke-linecap="round" stroke-linejoin="round"/>
  <path d="M 67 107 L 87 68 L 89 86 L 92 87 L 122 61 L 136 55 L 139 88 L 148 89 L 174 77 L 176 87 L 202 82 L 207 113 L 226 103 L 210 122 L 199 130 L 195 130 L 195 115 L 208 94 L 206 103 L 191 127 L 189 116 L 198 93 L 180 117 L 180 93 L 175 94 L 150 112 L 147 80 L 111 117 L 110 92 L 103 95" fill="none" stroke="currentColor" stroke-width="8" stroke-linecap="round" stroke-linejoin="round"/>
</svg>
