<svg viewBox="0 0 256 256" xmlns="http://www.w3.org/2000/svg" role="img" aria-label="bush">
  <path d="M 84 25 L 78 14 L 78 5 L 94 0 L 103 7 L 106 19 L 123 3 L 128 17 L 132 11 L 140 8 L 147 8 L 147 18 L 152 11 L 160 9 L 166 26 L 165 33 L 158 40 L 158 50 L 95 51 L 86 41 L 84 22" fill="none" stroke="currentColor" stroke-width="8" stroke-linecap="round" stroke-linejoin="round"/>
  <path d="M 165 18 L 172 9 L 185 16 L 205 14 L 213 19 L 217 33 L 235 28 L 234 41 L 225 47 L 196 38 L 173 39 L 151 46" fill="none" stroke="currentColor" stroke-width="8" stroke-linecap="round" stroke-linejoin="round"/>
  <path d="M 83 20 L 66 4 L 48 9 L 45 15 L 46 32 L 60 43 L 64 51 L 68 50 L 82 33 L 83 22 L 80 16 L 87 17" fill="none" stroke="currentColor" stroke-width="8" stroke-linecap="round" stroke-linejoin="round"/>
  <path d="M 113 19 L 95 26 L 98 49 L 110 51" fill="none" stroke="currentColor" stroke-width="8" stroke-linecap="round" stroke-linejoin="round"/>
  <path d="M 121 24 L 135 14" fill="none" stroke="currentColor" stroke-width="8" stroke-linecap="round" stroke-linejoin="round"/>
  <path d="M 130 31 L 152 21" fill="none" stroke="currentColor" stroke-width="8" stroke-linecap="round" stroke-linejoin="round"/>
  <path d="M 144 31 L 155 20" fill="none" stroke="currentColor" stroke-width="8" stroke-linecap="round" stroke-linejoin="round"/>
  <path d="M 147 35 L 145 20" fill="none" stroke="currentColor" stroke-width="8" stroke-linecap="round" stroke-linejoin="round"/>
  <path d="M 120 34 L 110 17" fill="none" stroke="currentColor" stroke-width="8" stroke-linecap="round" stroke-linejoin="round"/>
  <path d="M 104 28 L 96 18" fill="none" stroke="currentColor" stroke-width="8" stroke-linecap="round" stroke-linejoin="round"/>
  <path d="M 94 21 L 88 11" fill="none" stroke="currentColor" stroke-width="8" stroke-linecap="round" stroke-linejoin="round"/>
  <path d="M 85 20 L 84 9" fill="none" stroke="currentColor" stroke-width="8" stroke-linecap="round" stroke-linejoin="round"/>
  <path d="M 0 50 L 49 59 L 210 75 L 255 65" fill="none" stroke="currentColor" stroke-width="8" stroke-linecap="round" stroke-linejoin="round"/>
</svg>
