<svg viewBox="0 0 256 256" xmlns="http://www.w3.org/2000/svg" role="img" aria-label="bush">
  <path d="M 43 196 L 33 194 L 23 181 L 8 148 L 1 119 L 0 92 L 3 80 L 16 58 L 30 44 L 47 39 L 61 39 L 65 40 L 72 49 L 71 37 L 73 32 L 88 18 L 118 1 L 140 0 L 148 3 L 158 12 L 165 37 L 186 27 L 214 26 L 229 36 L 249 62 L 255 83 L 251 110 L 234 135 L 224 139 L 221 135 L 222 131 L 229 127 L 241 130 L 245 138 L 246 167 L 232 192 L 210 209 L 193 214 L 169 216 L 155 209 L 151 199 L 140 216 L 131 224 L 107 226 L 86 217 L 73 202 L 72 211 L 66 218 L 51 221 L 39 210 L 30 195 L 24 163" fill="none" stroke="currentColor" stroke-width="8" stroke-linecap="round" stroke-linejoin="round"/>
</svg>
