<svg viewBox="0 0 256 256" xmlns="http://www.w3.org/2000/svg" role="img" aria-label="bush">
  <path d="M 9 75 L 6 69 L 5 78" fill="none" stroke="currentColor" stroke-width="8" stroke-linecap="round" stroke-linejoin="round"/>
  <path d="M 5 131 L 2 131 L 1 122 L 0 78 L 3 48 L 6 39 L 9 106 L 11 114 L 14 117 L 31 45 L 46 12 L 49 12 L 51 17 L 49 107 L 69 46 L 82 23 L 84 24 L 84 79 L 89 83 L 95 78 L 119 24 L 132 8 L 140 6 L 145 20 L 147 56 L 153 75 L 160 72 L 181 37 L 191 29 L 198 30 L 200 52 L 198 108 L 216 71 L 232 54 L 234 70 L 224 109 L 218 124 L 212 128 L 183 131 L 136 152 L 99 158" fill="none" stroke="currentColor" stroke-width="8" stroke-linecap="round" stroke-linejoin="round"/>
  <path d="M 52 158 L 35 154 L 16 129" fill="none" stroke="currentColor" stroke-width="8" stroke-linecap="round" stroke-linejoin="round"/>
  <path d="M 14 124 L 10 115 L 10 67 L 19 42 L 34 38 L 64 61 L 73 65 L 82 64 L 111 20 L 122 10 L 141 0 L 157 1 L 203 52 L 214 53 L 230 39 L 243 36 L 251 46 L 255 60 L 255 77 L 244 102 L 227 118 L 189 140 L 172 154" fill="none" stroke="currentColor" stroke-width="8" stroke-linecap="round" stroke-linejoin="round"/>
  <path d="M 44 84 L 41 83" fill="none" stroke="currentColor" stroke-width="8" stroke-linecap="round" stroke-linejoin="round"/>
  <path d="M 58 129 L 56 131 L 58 131" fill="none" stroke="currentColor" stroke-width="8" stroke-linecap="round" stroke-linejoin="round"/>
  <path d="M 85 120 L 88 115" fill="none" stroke="currentColor" stroke-width="8" stroke-linecap="round" stroke-linejoin="round"/>
  <path d="M 111 67 L 113 60" fill="none" stroke="currentColor" stroke-width="8" stroke-linecap="round" stroke-linejoin="round"/>
  <path d="M 147 88 L 147 88" fill="none" stroke="currentColor" stroke-width="8" stroke-linecap="round" stroke-linejoin="round"/>
  <path d="M 155 117 L 155 117" fill="none" stroke="currentColor" stroke-width="8" stroke-linecap="round" stroke-linejoin="round"/>
  <path d="M 183 89 L 183 89" fill="none" stroke="currentColor" stroke-width="8" stroke-linecap="round" stroke-linejoin="round"/>
</svg>
