<svg viewBox="0 0 256 256" xmlns="http://www.w3.org/2000/svg" role="img" aria-label="bush">
  <path d="M 59 153 L 38 144 L 20 129 L 2 104 L 2 86 L 9 76 L 20 71 L 35 72 L 41 77 L 42 60 L 49 38 L 65 20 L 75 15 L 86 15 L 92 21 L 96 35 L 115 10 L 136 0 L 153 2 L 165 11 L 168 20 L 162 35 L 189 20 L 210 14 L 233 14 L 243 18 L 248 24 L 248 33 L 241 46 L 220 66 L 248 74 L 254 79 L 254 88 L 239 105 L 214 116 L 243 128 L 250 135 L 251 140 L 238 148 L 220 152 L 190 152 L 173 147" fill="none" stroke="currentColor" stroke-width="8" stroke-linecap="round" stroke-linejoin="round"/>
  <path d="M 73 150 L 84 168 L 106 173 L 167 163 L 199 150" fill="none" stroke="currentColor" stroke-width="8" stroke-linecap="round" stroke-linejoin="round"/>
</svg>
