<svg viewBox="0 0 256 256" xmlns="http://www.w3.org/2000/svg" role="img" aria-label="bush">
  <path d="M 16 214 L 11 210 L 5 188 L 0 130 L 1 121 L 5 114 L 13 110 L 32 109 L 44 117 L 59 63 L 70 61 L 83 70 L 94 39 L 117 18 L 146 6 L 155 6 L 159 10 L 165 29 L 173 12 L 181 5 L 201 0 L 216 1 L 228 7 L 233 18 L 236 53 L 232 60 L 225 62 L 231 60 L 242 67 L 255 95 L 252 123 L 247 135 L 236 145 L 244 166 L 245 186 L 228 203 L 224 218 L 215 228 L 183 243 L 152 244" fill="none" stroke="currentColor" stroke-width="8" stroke-linecap="round" stroke-linejoin="round"/>
  <path d="M 33 206 L 30 201 L 27 143 L 60 126" fill="none" stroke="currentColor" stroke-width="8" stroke-linecap="round" stroke-linejoin="round"/>
</svg>
