<svg viewBox="0 0 256 256" xmlns="http://www.w3.org/2000/svg" role="img" aria-label="bush">
  <path d="M 80 134 L 76 135 L 73 132 L 69 115 L 72 106 L 78 102 L 93 98 L 167 96 L 175 99 L 184 118 L 183 123 L 154 137 L 114 144" fill="none" stroke="currentColor" stroke-width="8" stroke-linecap="round" stroke-linejoin="round"/>
  <path d="M 87 111 L 81 113 L 7 114 L 3 112 L 0 100 L 4 90 L 13 81 L 31 71 L 45 70 L 34 69 L 25 62 L 21 55 L 20 46 L 25 38 L 38 30 L 54 25 L 67 25 L 77 31 L 86 16 L 92 10 L 118 0 L 134 4 L 149 25 L 191 9 L 213 12 L 221 18 L 216 28 L 195 38 L 228 47 L 254 67 L 252 79 L 227 88 L 253 99 L 255 108 L 244 113 L 225 116 L 195 113 L 180 109 L 173 101" fill="none" stroke="currentColor" stroke-width="8" stroke-linecap="round" stroke-linejoin="round"/>
  <path d="M 108 61 L 95 65 L 99 68" fill="none" stroke="currentColor" stroke-width="8" stroke-linecap="round" stroke-linejoin="round"/>
  <path d="M 162 59 L 165 61" fill="none" stroke="currentColor" stroke-width="8" stroke-linecap="round" stroke-linejoin="round"/>
  <path d="M 187 85 L 196 72 L 185 66" fill="none" stroke="currentColor" stroke-width="8" stroke-linecap="round" stroke-linejoin="round"/>
</svg>
