<svg viewBox="0 0 256 256" xmlns="http://www.w3.org/2000/svg" role="img" aria-label="bridge">
  <path d="M 254 45 L 242 35 L 211 23 L 151 7 L 116 6 L 70 12 L 42 21 L 14 40 L 3 53 L 0 63" fill="none" stroke="currentColor" stroke-width="8" stroke-linecap="round" stroke-linejoin="round"/>
  <path d="M 255 129 L 243 117 L 203 93 L 142 75 L 106 70 L 68 73 L 35 83 L 14 96 L 2 113" fill="none" stroke="currentColor" stroke-width="8" stroke-linecap="round" stroke-linejoin="round"/>
  <path d="M 220 30 L 227 49 L 222 100" fill="none" stroke="currentColor" stroke-width="8" stroke-linecap="round" stroke-linejoin="round"/>
  <path d="M 159 0 L 164 58 L 162 99" fill="none" stroke="currentColor" stroke-width="8" stroke-linecap="round" stroke-linejoin="round"/>
  <path d="M 109 4 L 107 17 L 118 95" fill="none" stroke="currentColor" stroke-width="8" stroke-linecap="round" stroke-linejoin="round"/>
  <path d="M 49 4 L 83 92" fill="none" stroke="currentColor" stroke-width="8" stroke-linecap="round" stroke-linejoin="round"/>
  <path d="M 13 41 L 29 88 L 36 123" fill="none" stroke="currentColor" stroke-width="8" stroke-linecap="round" stroke-linejoin="round"/>
</svg>
