<svg viewBox="0 0 256 256" xmlns="http://www.w3.org/2000/svg" role="img" aria-label="bridge">
  <path d="M 13 238 L 4 202 L 0 159 L 3 130 L 14 104 L 62 94 L 163 90 L 186 91 L 209 97 L 213 103" fill="none" stroke="currentColor" stroke-width="8" stroke-linecap="round" stroke-linejoin="round"/>
  <path d="M 212 114 L 210 208 L 205 243" fill="none" stroke="currentColor" stroke-width="8" stroke-linecap="round" stroke-linejoin="round"/>
  <path d="M 25 255 L 19 189 L 26 147 L 58 131 L 86 124 L 157 121 L 176 127 L 184 133 L 190 142 L 196 182 L 196 241 L 203 244 L 214 242" fill="none" stroke="currentColor" stroke-width="8" stroke-linecap="round" stroke-linejoin="round"/>
  <path d="M 16 102 L 81 30 L 105 15 L 130 12 L 145 15 L 161 23 L 185 48 L 210 88 L 213 114" fill="none" stroke="currentColor" stroke-width="8" stroke-linecap="round" stroke-linejoin="round"/>
  <path d="M 18 103 L 16 94 L 24 76 L 59 34 L 95 7 L 124 0 L 153 6 L 182 30 L 214 63 L 221 91" fill="none" stroke="currentColor" stroke-width="8" stroke-linecap="round" stroke-linejoin="round"/>
</svg>
