<?xml version="1.0" encoding="UTF-8"?>
<svg xmlns="http://www.w3.org/2000/svg" viewBox="0 0 256 256" fill="none" stroke="#91725b" stroke-linecap="round" stroke-linejoin="round">
  <path d="M 48 157.7 Q 48 157.7 53.7 159.0 Q 59.4 160.2 65.1 156.8 Q 70.9 153.4 76.6 148.9 Q 82.3 144.3 88.0 143.3 Q 93.7 142.2 99.4 145.6 Q 105.1 149 110.9 153.4 Q 116.6 157.9 122.3 158.8 Q 128 159.7 133.7 155.9 Q 139.4 152.1 145.1 146.9 Q 150.9 141.8 156.6 140.1 Q 162.3 138.5 168.0 141.7 Q 173.7 145 179.4 150.0 Q 185.1 155 190.9 157.1 Q 196.6 159.1 202.3 156.4" stroke-width="5" />
  <path d="M 59 169 Q 59 169 63.9 166.4 Q 68.9 163.8 73.8 163.7 Q 78.7 163.6 83.6 166.2 Q 88.6 168.9 93.5 172.3 Q 98.4 175.8 103.4 177.4 Q 108.3 179.1 113.2 177.6 Q 118.1 176.2 123.1 172.6 Q 128 169 132.9 165.8 Q 137.9 162.5 142.8 162.0 Q 147.7 161.4 152.6 163.7 Q 157.6 166.1 162.5 169.5 Q 167.4 172.9 172.4 174.9 Q 177.3 176.8 182.2 175.9 Q 187.1 175 192.1 172.0" stroke-width="5" />
</svg>
