<?xml version="1.0" encoding="UTF-8"?>
<svg xmlns="http://www.w3.org/2000/svg" viewBox="0 0 256 256" fill="none" stroke="#91725b" stroke-linecap="round" stroke-linejoin="round">
  <path d="M 48 158.5 Q 48 158.5 53.7 159.9 Q 59.4 161.2 65.1 157.5 Q 70.9 153.7 76.6 148.7 Q 82.3 143.8 88.0 142.6 Q 93.7 141.4 99.4 145.2 Q 105.1 148.9 110.9 153.8 Q 116.6 158.7 122.3 159.7 Q 128 160.7 133.7 156.5 Q 139.4 152.3 145.1 146.6 Q 150.9 141 156.6 139.1 Q 162.3 137.3 168.0 140.9 Q 173.7 144.5 179.4 150.0 Q 185.1 155.5 190.9 157.8 Q 196.6 160 202.3 157.0" stroke-width="5" />
  <path d="M 59 169 Q 59 169 63.9 166.4 Q 68.9 163.8 73.8 163.7 Q 78.7 163.6 83.6 166.2 Q 88.6 168.9 93.5 172.3 Q 98.4 175.8 103.4 177.4 Q 108.3 179.1 113.2 177.6 Q 118.1 176.2 123.1 172.6 Q 128 169 132.9 165.8 Q 137.9 162.5 142.8 162.0 Q 147.7 161.4 152.6 163.7 Q 157.6 166.1 162.5 169.5 Q 167.4 172.9 172.4 174.9 Q 177.3 176.8 182.2 175.9 Q 187.1 175 192.1 172.0" stroke-width="5" />
</svg>
