<?xml version="1.0" encoding="UTF-8"?>
<svg xmlns="http://www.w3.org/2000/svg" viewBox="0 0 256 256" fill="none" stroke="#91725b" stroke-linecap="round" stroke-linejoin="round">
  <path d="M 48 159.2 Q 48 159.2 53.7 160.7 Q 59.4 162.2 65.1 158.1 Q 70.9 154 76.6 148.6 Q 82.3 143.2 88.0 141.9 Q 93.7 140.6 99.4 144.7 Q 105.1 148.8 110.9 154.1 Q 116.6 159.5 122.3 160.5 Q 128 161.6 133.7 157.0 Q 139.4 152.5 145.1 146.3 Q 150.9 140.2 156.6 138.2 Q 162.3 136.1 168.0 140.1 Q 173.7 144 179.4 150.0 Q 185.1 156 190.9 158.5 Q 196.6 160.9 202.3 157.7" stroke-width="5" />
  <path d="M 59 169 Q 59 169 63.9 166.4 Q 68.9 163.8 73.8 163.7 Q 78.7 163.6 83.6 166.2 Q 88.6 168.9 93.5 172.3 Q 98.4 175.8 103.4 177.4 Q 108.3 179.1 113.2 177.6 Q 118.1 176.2 123.1 172.6 Q 128 169 132.9 165.8 Q 137.9 162.5 142.8 162.0 Q 147.7 161.4 152.6 163.7 Q 157.6 166.1 162.5 169.5 Q 167.4 172.9 172.4 174.9 Q 177.3 176.8 182.2 175.9 Q 187.1 175 192.1 172.0" stroke-width="5" />
</svg>
