<svg viewBox="0 0 256 256" xmlns="http://www.w3.org/2000/svg" role="img" aria-label="light bulb">
  <path d="M 80 161 L 79 180 L 82 197 L 76 247 L 91 255 L 127 254 L 127 248 L 120 234 L 116 183 L 123 171 L 122 163 L 131 161 L 156 129 L 161 112 L 174 102 L 185 88 L 189 62 L 188 45 L 191 35 L 169 27 L 152 13 L 135 6 L 89 0 L 46 10 L 11 55 L 0 100 L 19 114 L 29 127 L 38 153 L 56 169 L 62 170" fill="none" stroke="currentColor" stroke-width="8" stroke-linecap="round" stroke-linejoin="round"/>
</svg>
