<svg viewBox="0 0 256 256" xmlns="http://www.w3.org/2000/svg" role="img" aria-label="light bulb">
  <path d="M 67 170 L 60 177 L 49 178 L 22 148 L 0 105 L 0 76 L 21 37 L 37 21 L 55 8 L 73 2 L 95 0 L 115 0 L 123 4 L 135 14 L 148 32 L 156 59 L 156 85 L 147 114 L 137 132 L 99 160 L 88 180 L 88 185 L 101 189 L 99 195 L 108 198 L 108 203 L 96 221 L 100 224 L 101 232 L 106 233 L 105 242 L 97 247 L 49 255 L 48 249 L 57 238 L 55 234 L 57 179 L 61 167" fill="none" stroke="currentColor" stroke-width="8" stroke-linecap="round" stroke-linejoin="round"/>
</svg>
