<svg viewBox="0 0 256 256" xmlns="http://www.w3.org/2000/svg" role="img" aria-label="light bulb">
  <path d="M 49 247 L 61 202 L 64 141 L 18 114 L 5 98 L 0 78 L 1 62 L 8 44 L 19 30 L 45 11 L 76 3 L 105 0 L 162 8 L 195 24 L 206 38 L 209 49 L 205 62 L 186 81 L 156 99 L 110 117 L 93 129 L 91 135 L 93 165 L 83 247 L 70 255 L 38 253" fill="none" stroke="currentColor" stroke-width="8" stroke-linecap="round" stroke-linejoin="round"/>
  <path d="M 52 222 L 74 221" fill="none" stroke="currentColor" stroke-width="8" stroke-linecap="round" stroke-linejoin="round"/>
  <path d="M 56 242 L 69 242 L 76 238" fill="none" stroke="currentColor" stroke-width="8" stroke-linecap="round" stroke-linejoin="round"/>
  <path d="M 64 237 L 71 239 L 79 236" fill="none" stroke="currentColor" stroke-width="8" stroke-linecap="round" stroke-linejoin="round"/>
  <path d="M 59 237 L 68 233" fill="none" stroke="currentColor" stroke-width="8" stroke-linecap="round" stroke-linejoin="round"/>
  <path d="M 71 236 L 71 236" fill="none" stroke="currentColor" stroke-width="8" stroke-linecap="round" stroke-linejoin="round"/>
  <path d="M 65 226 L 81 225" fill="none" stroke="currentColor" stroke-width="8" stroke-linecap="round" stroke-linejoin="round"/>
</svg>
