<svg viewBox="0 0 256 256" xmlns="http://www.w3.org/2000/svg" role="img" aria-label="light bulb">
  <path d="M 108 197 L 105 252 L 133 255 L 169 244 L 159 191 L 155 187 L 130 196 L 107 191" fill="none" stroke="currentColor" stroke-width="8" stroke-linecap="round" stroke-linejoin="round"/>
  <path d="M 108 190 L 99 191 L 67 183 L 45 174 L 23 158 L 2 127 L 0 104 L 1 86 L 13 56 L 30 32 L 47 18 L 65 9 L 106 0 L 153 7 L 184 22 L 222 56 L 235 77 L 245 101 L 247 130 L 244 141 L 232 156 L 197 180 L 161 187" fill="none" stroke="currentColor" stroke-width="8" stroke-linecap="round" stroke-linejoin="round"/>
</svg>
