<svg viewBox="0 0 256 256" xmlns="http://www.w3.org/2000/svg" role="img" aria-label="light bulb">
  <path d="M 129 185 L 130 251 L 106 255 L 64 255 L 62 251 L 64 200 L 61 178 L 42 172 L 22 157 L 5 134 L 0 98 L 9 61 L 25 30 L 40 16 L 53 9 L 90 0 L 121 0 L 131 3 L 158 19 L 172 33 L 194 68 L 199 94 L 201 122 L 193 143 L 184 155 L 160 172 L 122 184 L 114 192" fill="none" stroke="currentColor" stroke-width="8" stroke-linecap="round" stroke-linejoin="round"/>
  <path d="M 103 184 L 94 174" fill="none" stroke="currentColor" stroke-width="8" stroke-linecap="round" stroke-linejoin="round"/>
</svg>
