<svg viewBox="0 0 256 256" xmlns="http://www.w3.org/2000/svg" role="img" aria-label="light bulb">
  <path d="M 76 202 L 71 211 L 72 255 L 83 255 L 130 242 L 131 185 L 124 182 L 108 182 L 100 183 L 91 191" fill="none" stroke="currentColor" stroke-width="8" stroke-linecap="round" stroke-linejoin="round"/>
  <path d="M 92 187 L 84 191 L 60 191 L 27 171 L 8 150 L 0 115 L 0 87 L 4 65 L 15 47 L 30 32 L 50 19 L 72 7 L 92 1 L 130 0 L 159 12 L 170 22 L 179 34 L 191 61 L 192 103 L 174 136 L 153 155 L 139 162 L 108 166" fill="none" stroke="currentColor" stroke-width="8" stroke-linecap="round" stroke-linejoin="round"/>
</svg>
