<svg viewBox="0 0 256 256" xmlns="http://www.w3.org/2000/svg" role="img" aria-label="light bulb">
  <path d="M 45 166 L 33 182 L 33 187 L 34 194 L 46 211 L 44 235 L 56 247 L 69 245 L 85 246 L 94 255 L 106 231 L 121 225 L 127 215 L 127 210 L 123 206 L 110 198 L 113 195 L 120 165 L 105 160 L 94 150 L 85 148 L 52 158 L 30 171" fill="none" stroke="currentColor" stroke-width="8" stroke-linecap="round" stroke-linejoin="round"/>
  <path d="M 37 161 L 15 110 L 1 55 L 8 39 L 35 13 L 61 1 L 77 0 L 134 36 L 149 70 L 149 98 L 138 135 L 125 158 L 101 175" fill="none" stroke="currentColor" stroke-width="8" stroke-linecap="round" stroke-linejoin="round"/>
  <path d="M 62 163 L 53 87 L 58 104 L 61 105 L 70 95 L 74 81 L 78 79 L 81 91" fill="none" stroke="currentColor" stroke-width="8" stroke-linecap="round" stroke-linejoin="round"/>
</svg>
