<svg viewBox="0 0 256 256" xmlns="http://www.w3.org/2000/svg" role="img" aria-label="light bulb">
  <path d="M 4 183 L 2 121 L 13 80 L 20 63 L 35 44 L 74 12 L 99 1 L 123 1 L 138 6 L 147 13 L 172 35 L 176 46 L 181 79 L 181 119 L 173 144 L 156 164 L 141 193 L 122 216 L 109 217 L 87 212 L 2 186 L 0 235 L 4 239 L 19 242 L 41 243 L 74 251 L 108 255 L 121 239 L 123 224 L 131 212" fill="none" stroke="currentColor" stroke-width="8" stroke-linecap="round" stroke-linejoin="round"/>
  <path d="M 54 200 L 75 136 L 83 97 L 111 116 L 112 121 L 126 118 L 132 126 L 131 130 L 121 143 L 100 193 L 86 217" fill="none" stroke="currentColor" stroke-width="8" stroke-linecap="round" stroke-linejoin="round"/>
</svg>
