<svg viewBox="0 0 256 256" xmlns="http://www.w3.org/2000/svg" role="img" aria-label="light bulb">
  <path d="M 121 171 L 135 168 L 140 161 L 154 133 L 170 112 L 179 89 L 182 72 L 180 45 L 166 23 L 159 19 L 138 18 L 123 8 L 101 3 L 50 0 L 44 1 L 38 7 L 8 46 L 4 53 L 0 88 L 0 118 L 17 150 L 37 165 L 53 171 L 62 186 L 72 242 L 72 255 L 67 252" fill="none" stroke="currentColor" stroke-width="8" stroke-linecap="round" stroke-linejoin="round"/>
  <path d="M 117 169 L 116 250 L 85 250" fill="none" stroke="currentColor" stroke-width="8" stroke-linecap="round" stroke-linejoin="round"/>
</svg>
