<svg viewBox="0 0 256 256" xmlns="http://www.w3.org/2000/svg" role="img" aria-label="light bulb">
  <path d="M 86 254 L 64 254 L 51 246 L 46 232 L 46 215 L 54 184 L 27 182 L 15 172 L 10 163 L 0 128 L 2 88 L 22 46 L 48 24 L 64 14 L 92 4 L 108 0 L 127 1 L 156 15 L 179 39 L 184 52 L 185 83 L 176 109 L 165 128 L 121 160 L 107 180 L 104 214 L 110 239 L 108 245 L 94 249 L 67 248" fill="none" stroke="currentColor" stroke-width="8" stroke-linecap="round" stroke-linejoin="round"/>
  <path d="M 60 189 L 101 190 L 104 204" fill="none" stroke="currentColor" stroke-width="8" stroke-linecap="round" stroke-linejoin="round"/>
</svg>
