<svg viewBox="0 0 256 256" xmlns="http://www.w3.org/2000/svg" role="img" aria-label="light bulb">
  <path d="M 91 172 L 79 151 L 70 127 L 70 104 L 75 93 L 83 81 L 122 51 L 145 40 L 180 38 L 204 55 L 213 66 L 221 94 L 221 127 L 193 162 L 176 198" fill="none" stroke="currentColor" stroke-width="8" stroke-linecap="round" stroke-linejoin="round"/>
  <path d="M 100 155 L 100 166 L 110 178 L 144 195 L 164 196" fill="none" stroke="currentColor" stroke-width="8" stroke-linecap="round" stroke-linejoin="round"/>
  <path d="M 98 187 L 100 221 L 106 242 L 140 255 L 161 255 L 168 242 L 172 230 L 172 196 L 168 191" fill="none" stroke="currentColor" stroke-width="8" stroke-linecap="round" stroke-linejoin="round"/>
  <path d="M 89 172 L 98 183 L 100 198" fill="none" stroke="currentColor" stroke-width="8" stroke-linecap="round" stroke-linejoin="round"/>
  <path d="M 125 89 L 128 147 L 140 178" fill="none" stroke="currentColor" stroke-width="8" stroke-linecap="round" stroke-linejoin="round"/>
  <path d="M 130 85 L 150 83 L 153 93 L 153 157 L 149 179 L 149 200" fill="none" stroke="currentColor" stroke-width="8" stroke-linecap="round" stroke-linejoin="round"/>
  <path d="M 0 47 L 30 62" fill="none" stroke="currentColor" stroke-width="8" stroke-linecap="round" stroke-linejoin="round"/>
  <path d="M 51 2 L 62 0 L 66 2 L 94 23" fill="none" stroke="currentColor" stroke-width="8" stroke-linecap="round" stroke-linejoin="round"/>
</svg>
