<?xml version="1.0" encoding="UTF-8"?>
<svg xmlns="http://www.w3.org/2000/svg" viewBox="0 0 256 256" fill="none" stroke="#6f8198" stroke-linecap="round" stroke-linejoin="round">
  <path d="M 45 137.3 Q 45 137.3 50.9 137.1 Q 56.9 136.9 62.8 128.9 Q 68.7 121 74.6 114.1 Q 80.6 107.3 86.5 109.0 Q 92.4 110.7 98.4 119.2 Q 104.3 127.7 110.2 133.7 Q 116.1 139.8 122.1 136.6 Q 128 133.3 133.9 123.6 Q 139.9 113.9 145.8 107.3 Q 151.7 100.7 157.6 103.7 Q 163.6 106.7 169.5 115.9 Q 175.4 125.1 181.4 130.7 Q 187.3 136.4 193.2 132.9 Q 199.1 129.4 205.1 120.9" stroke-width="5" />
  <path d="M 56 152 Q 56 152 61.1 143.9 Q 66.3 135.7 71.4 136.8 Q 76.6 137.9 81.7 147.3 Q 86.9 156.7 92.0 161.7 Q 97.1 166.8 102.3 160.5 Q 107.4 154.2 112.6 145.0 Q 117.7 135.7 122.9 135.7 Q 128 135.7 133.1 144.2 Q 138.3 152.6 143.4 157.2 Q 148.6 161.7 153.7 155.4 Q 158.9 149.2 164.0 140.4 Q 169.1 131.7 174.3 132.6 Q 179.4 133.4 184.6 143.0 Q 189.7 152.6 194.9 158.3" stroke-width="5" />
</svg>
