<?xml version="1.0" encoding="UTF-8"?>
<svg xmlns="http://www.w3.org/2000/svg" viewBox="0 0 256 256" fill="none" stroke="#6f8198" stroke-linecap="round" stroke-linejoin="round">
  <path d="M 48 143.6 Q 48 143.6 53.7 137.6 Q 59.4 131.6 65.1 122.2 Q 70.9 112.9 76.6 110.6 Q 82.3 108.3 88.0 115.8 Q 93.7 123.2 99.4 132.6 Q 105.1 142 110.9 143.1 Q 116.6 144.2 122.3 135.4 Q 128 126.5 133.7 116.3 Q 139.4 106.2 145.1 104.7 Q 150.9 103.2 156.6 111.5 Q 162.3 119.8 168.0 128.8 Q 173.7 137.8 179.4 138.0 Q 185.1 138.3 190.9 129.8 Q 196.6 121.4 202.3 113.6" stroke-width="5" />
  <path d="M 58 145.5 Q 58 145.5 63.0 139.5 Q 68 133.4 73.0 139.7 Q 78 145.9 83.0 156.5 Q 88 167 93.0 167.7 Q 98 168.4 103.0 158.2 Q 108 148.1 113.0 140.7 Q 118 133.4 123.0 138.4 Q 128 143.4 133.0 152.9 Q 138 162.5 143.0 162.6 Q 148 162.7 153.0 152.5 Q 158 142.4 163.0 135.6 Q 168 128.9 173.0 134.9 Q 178 140.8 183.0 151.7 Q 188 162.5 193.0 163.8" stroke-width="5" />
</svg>
