<?xml version="1.0" encoding="UTF-8"?>
<svg xmlns="http://www.w3.org/2000/svg" viewBox="0 0 256 256" fill="none" stroke="#6b86a5" stroke-linecap="round" stroke-linejoin="round">
  <path d="M 106.8 88 Q 106.8 88 106.1 92.1 Q 105.5 96.1 103.7 99.4 Q 101.9 102.6 99.3 104.4 Q 96.7 106.3 93.8 106.3 Q 90.9 106.3 88.3 104.4 Q 85.7 102.6 83.9 99.4 Q 82.1 96.1 83.6 92.1 Q 85 88 85.4 85.3 Q 85.9 82.7 87.1 80.6 Q 88.3 78.4 90.1 77.2 Q 91.8 76.1 93.8 76.1 Q 95.8 76.1 97.5 77.2 Q 99.3 78.4 100.5 80.6 Q 101.7 82.7 102.2 85.3 Z" stroke-width="5" />
  <path d="M 139.5 124 Q 139.5 124 138.9 127.6 Q 138.4 131.2 136.8 134.1 Q 135.2 137 132.9 138.6 Q 130.6 140.2 128.0 140.2 Q 125.4 140.2 123.1 138.6 Q 120.8 137 119.2 134.1 Q 117.6 131.2 118.9 127.6 Q 120.2 124 120.6 121.6 Q 120.9 119.3 122.0 117.4 Q 123.1 115.5 124.7 114.4 Q 126.3 113.4 128.0 113.4 Q 129.7 113.4 131.3 114.4 Q 132.9 115.5 134.0 117.4 Q 135.1 119.3 135.4 121.6 Z" stroke-width="5" />
  <path d="M 172.4 98 Q 172.4 98 171.8 101.8 Q 171.2 105.7 169.5 108.7 Q 167.8 111.8 165.4 113.5 Q 162.9 115.2 160.2 115.2 Q 157.5 115.2 155.0 113.5 Q 152.6 111.8 150.9 108.7 Q 149.2 105.7 150.5 101.8 Q 151.9 98 152.3 95.5 Q 152.7 93 153.9 91.0 Q 155 89 156.7 87.8 Q 158.3 86.7 160.2 86.7 Q 162.1 86.7 163.7 87.8 Q 165.4 89 166.5 91.0 Q 167.7 93 168.1 95.5 Z" stroke-width="5" />
</svg>
