<svg viewBox="0 0 256 256" xmlns="http://www.w3.org/2000/svg" role="img" aria-label="snail">
  <path d="M 157 248 L 117 250 L 51 239 L 25 226 L 17 205 L 22 184 L 27 175 L 37 169 L 40 179 L 85 194 L 148 196" fill="none" stroke="currentColor" stroke-width="8" stroke-linecap="round" stroke-linejoin="round"/>
  <path d="M 148 196 L 148 196" fill="none" stroke="currentColor" stroke-width="8" stroke-linecap="round" stroke-linejoin="round"/>
  <path d="M 114 213 L 206 183 L 215 155 L 246 127 L 255 108 L 243 93 L 214 94 L 205 99 L 195 123 L 190 126 L 104 154" fill="none" stroke="currentColor" stroke-width="8" stroke-linecap="round" stroke-linejoin="round"/>
  <path d="M 205 98 L 213 78 L 215 63" fill="none" stroke="currentColor" stroke-width="8" stroke-linecap="round" stroke-linejoin="round"/>
  <path d="M 121 142 L 161 106 L 174 87 L 181 65 L 179 35 L 157 12 L 132 4 L 73 0 L 38 7 L 20 16 L 8 36 L 0 75 L 0 117 L 6 137 L 19 155 L 29 165 L 35 166" fill="none" stroke="currentColor" stroke-width="8" stroke-linecap="round" stroke-linejoin="round"/>
  <path d="M 87 133 L 88 124 L 127 78 L 128 56 L 120 39 L 101 29 L 81 30 L 63 35 L 44 44 L 36 72 L 35 91 L 44 107 L 57 114 L 76 115 L 92 109 L 103 99 L 107 91 L 104 65 L 90 63 L 85 66 L 83 73 L 85 78 L 90 77 L 101 66" fill="none" stroke="currentColor" stroke-width="8" stroke-linecap="round" stroke-linejoin="round"/>
</svg>
