<svg viewBox="0 0 256 256" xmlns="http://www.w3.org/2000/svg" role="img" aria-label="snail">
  <path d="M 197 77 L 194 85 L 188 89 L 166 90 L 158 87 L 146 70 L 146 54 L 151 45 L 166 35 L 177 32 L 192 32 L 212 44 L 220 55 L 228 78 L 229 105 L 226 114 L 216 127 L 188 137 L 167 136 L 149 128 L 118 99 L 105 74 L 104 54 L 111 35 L 126 20 L 132 14 L 159 3 L 196 0 L 223 16 L 231 26 L 248 65 L 255 98 L 254 123 L 247 137 L 234 146 L 217 151 L 186 153 L 187 155" fill="none" stroke="currentColor" stroke-width="8" stroke-linecap="round" stroke-linejoin="round"/>
  <path d="M 191 152 L 125 143 L 110 135 L 81 109 L 67 79 L 46 69 L 21 68 L 7 75 L 0 85" fill="none" stroke="currentColor" stroke-width="8" stroke-linecap="round" stroke-linejoin="round"/>
</svg>
