<svg viewBox="0 0 256 256" xmlns="http://www.w3.org/2000/svg" role="img" aria-label="snail">
  <path d="M 157 92 L 128 96 L 108 87 L 88 57 L 82 30 L 90 19 L 116 6 L 144 0 L 166 2 L 186 10 L 202 23 L 217 39 L 226 56 L 227 79 L 224 97 L 213 117 L 197 130 L 171 135 L 128 133 L 80 121 L 61 111 L 49 100 L 42 84 L 38 66 L 39 54 L 43 43 L 74 16 L 107 4 L 124 2 L 143 1 L 155 7" fill="none" stroke="currentColor" stroke-width="8" stroke-linecap="round" stroke-linejoin="round"/>
  <path d="M 83 124 L 48 130 L 25 124 L 2 112 L 0 133 L 8 152 L 35 171 L 77 182 L 127 191 L 207 190 L 227 181 L 237 170 L 245 157 L 245 141 L 255 130 L 254 106 L 221 94" fill="none" stroke="currentColor" stroke-width="8" stroke-linecap="round" stroke-linejoin="round"/>
</svg>
