<svg viewBox="0 0 256 256" xmlns="http://www.w3.org/2000/svg" role="img" aria-label="snail">
  <path d="M 1 108 L 3 80 L 25 33 L 37 17 L 61 6 L 101 5 L 121 14 L 139 46 L 146 69 L 143 77" fill="none" stroke="currentColor" stroke-width="8" stroke-linecap="round" stroke-linejoin="round"/>
  <path d="M 64 62 L 68 48 L 61 36 L 55 36 L 38 44 L 66 79 L 84 83 L 96 82 L 99 56 L 91 43 L 75 30 L 59 27 L 29 86 L 31 96 L 40 101 L 85 101 L 99 86 L 104 73 L 104 56 L 97 47" fill="none" stroke="currentColor" stroke-width="8" stroke-linecap="round" stroke-linejoin="round"/>
  <path d="M 145 68 L 156 59 L 185 23 L 209 2 L 236 0 L 254 6 L 251 17 L 234 22 L 219 31 L 212 40 L 211 51 L 200 60 L 186 67 L 148 73" fill="none" stroke="currentColor" stroke-width="8" stroke-linecap="round" stroke-linejoin="round"/>
</svg>
