<svg viewBox="0 0 256 256" xmlns="http://www.w3.org/2000/svg" role="img" aria-label="snail">
  <path d="M 4 156 L 10 156 L 28 163 L 55 163 L 95 169 L 128 169 L 149 164 L 179 143" fill="none" stroke="currentColor" stroke-width="8" stroke-linecap="round" stroke-linejoin="round"/>
  <path d="M 0 176 L 19 191 L 36 197 L 95 204 L 131 203 L 188 182 L 204 167 L 206 159 L 198 141 L 181 128" fill="none" stroke="currentColor" stroke-width="8" stroke-linecap="round" stroke-linejoin="round"/>
  <path d="M 195 139 L 198 131 L 218 108 L 235 98 L 255 91" fill="none" stroke="currentColor" stroke-width="8" stroke-linecap="round" stroke-linejoin="round"/>
  <path d="M 195 131 L 186 104 L 173 88 L 160 81" fill="none" stroke="currentColor" stroke-width="8" stroke-linecap="round" stroke-linejoin="round"/>
  <path d="M 74 161 L 104 155 L 121 142 L 133 117 L 136 80 L 124 42 L 112 21 L 94 6 L 75 0 L 52 2 L 36 14 L 18 49 L 13 76 L 15 92 L 28 109 L 56 137 L 72 143 L 85 141 L 99 127 L 109 91 L 106 72 L 94 51 L 82 46 L 72 46 L 64 50 L 53 68 L 52 88 L 65 116 L 73 121 L 85 119 L 93 92 L 88 79 L 74 76" fill="none" stroke="currentColor" stroke-width="8" stroke-linecap="round" stroke-linejoin="round"/>
</svg>
