<svg viewBox="0 0 256 256" xmlns="http://www.w3.org/2000/svg" role="img" aria-label="snail">
  <path d="M 73 58 L 67 57 L 60 77 L 59 88 L 64 96 L 76 104 L 94 107 L 102 105 L 114 96 L 128 69 L 133 45 L 133 17 L 126 8 L 104 3 L 65 4 L 40 15 L 25 26 L 14 44 L 1 82 L 0 125 L 5 133 L 24 142 L 56 143 L 141 116 L 155 106" fill="none" stroke="currentColor" stroke-width="8" stroke-linecap="round" stroke-linejoin="round"/>
  <path d="M 123 84 L 136 89 L 154 88" fill="none" stroke="currentColor" stroke-width="8" stroke-linecap="round" stroke-linejoin="round"/>
  <path d="M 154 87 L 179 83 L 195 77 L 216 62 L 220 56 L 222 37 L 212 14" fill="none" stroke="currentColor" stroke-width="8" stroke-linecap="round" stroke-linejoin="round"/>
  <path d="M 213 11 L 212 16 L 212 12" fill="none" stroke="currentColor" stroke-width="8" stroke-linecap="round" stroke-linejoin="round"/>
  <path d="M 250 59 L 244 35 L 226 5" fill="none" stroke="currentColor" stroke-width="8" stroke-linecap="round" stroke-linejoin="round"/>
  <path d="M 222 0 L 221 6 L 224 5 L 223 2" fill="none" stroke="currentColor" stroke-width="8" stroke-linecap="round" stroke-linejoin="round"/>
  <path d="M 150 111 L 210 102 L 234 95 L 244 85 L 255 62 L 251 59 L 229 59 L 216 64" fill="none" stroke="currentColor" stroke-width="8" stroke-linecap="round" stroke-linejoin="round"/>
</svg>
