<svg viewBox="0 0 256 256" xmlns="http://www.w3.org/2000/svg" role="img" aria-label="snail">
  <path d="M 71 64 L 72 71 L 79 76 L 93 71 L 99 53 L 95 39 L 90 33 L 83 30 L 60 29 L 52 33 L 18 77 L 14 87 L 15 103 L 133 112 L 145 92 L 155 56 L 153 15 L 150 9 L 143 4 L 120 0 L 67 0 L 37 17 L 13 47 L 0 71 L 0 96 L 13 121 L 37 133 L 82 142 L 116 145 L 136 145 L 161 136 L 204 135 L 243 138 L 249 136" fill="none" stroke="currentColor" stroke-width="8" stroke-linecap="round" stroke-linejoin="round"/>
  <path d="M 135 111 L 174 108 L 212 113 L 250 128 L 255 145" fill="none" stroke="currentColor" stroke-width="8" stroke-linecap="round" stroke-linejoin="round"/>
</svg>
