<svg viewBox="0 0 256 256" xmlns="http://www.w3.org/2000/svg" role="img" aria-label="snail">
  <path d="M 127 138 L 115 116 L 116 99 L 129 89 L 148 86 L 165 93 L 176 112 L 175 121 L 167 139 L 142 159 L 123 165 L 113 166 L 90 162 L 80 149 L 78 112 L 94 78 L 110 63 L 140 55 L 162 61 L 213 105 L 222 135 L 221 143" fill="none" stroke="currentColor" stroke-width="8" stroke-linecap="round" stroke-linejoin="round"/>
  <path d="M 201 169 L 176 179 L 148 182 L 110 180 L 64 186 L 31 170 L 9 140 L 1 112 L 13 74 L 49 35 L 87 9 L 115 1 L 146 0 L 174 5 L 200 17 L 226 34 L 245 55 L 255 83 L 254 106 L 241 157 L 226 188 L 188 225 L 162 245 L 128 250 L 51 247 L 18 237 L 3 216 L 0 191 L 5 153 L 14 132" fill="none" stroke="currentColor" stroke-width="8" stroke-linecap="round" stroke-linejoin="round"/>
</svg>
