<svg viewBox="0 0 256 256" xmlns="http://www.w3.org/2000/svg" role="img" aria-label="snail">
  <path d="M 72 134 L 39 135 L 26 132 L 7 115 L 0 93 L 1 66 L 16 42 L 45 15 L 69 3 L 109 0 L 136 13 L 154 32 L 168 61 L 171 84 L 157 91 L 123 92 L 93 87 L 68 87 L 61 79 L 60 65 L 69 51 L 109 36 L 124 37 L 139 48 L 141 58 L 128 66" fill="none" stroke="currentColor" stroke-width="8" stroke-linecap="round" stroke-linejoin="round"/>
  <path d="M 71 138 L 77 131 L 98 130 L 114 124 L 127 114 L 134 102 L 149 92 L 159 89 L 197 86 L 200 81 L 202 62 L 208 53 L 226 39 L 255 28 L 143 99" fill="none" stroke="currentColor" stroke-width="8" stroke-linecap="round" stroke-linejoin="round"/>
  <path d="M 204 68 L 212 56" fill="none" stroke="currentColor" stroke-width="8" stroke-linecap="round" stroke-linejoin="round"/>
</svg>
