<svg viewBox="0 0 256 256" xmlns="http://www.w3.org/2000/svg" role="img" aria-label="snail">
  <path d="M 90 86 L 109 87 L 118 76 L 117 65 L 112 56 L 92 47 L 87 50 L 80 65 L 82 94 L 87 103 L 109 111 L 129 104 L 143 97 L 150 75 L 142 51 L 116 19 L 100 13 L 79 15 L 62 30 L 55 40 L 51 80 L 62 114 L 79 139 L 89 146 L 136 139 L 163 118 L 175 100 L 178 85 L 178 55 L 169 33 L 157 16 L 105 0 L 71 2 L 50 9 L 11 30 L 2 41 L 0 82 L 4 103 L 11 115 L 41 143 L 71 151 L 118 157" fill="none" stroke="currentColor" stroke-width="8" stroke-linecap="round" stroke-linejoin="round"/>
  <path d="M 173 96 L 185 98 L 255 93" fill="none" stroke="currentColor" stroke-width="8" stroke-linecap="round" stroke-linejoin="round"/>
</svg>
