<svg viewBox="0 0 256 256" xmlns="http://www.w3.org/2000/svg" role="img" aria-label="snail">
  <path d="M 102 117 L 101 127 L 112 138 L 126 145 L 134 145 L 138 141 L 151 124 L 158 102 L 158 92 L 154 83 L 139 73 L 130 70 L 77 70 L 45 83 L 35 92 L 29 104 L 26 120 L 30 143 L 50 164 L 68 173 L 84 176 L 129 176 L 162 171 L 184 163 L 208 144 L 221 120 L 223 79 L 210 49 L 191 29 L 178 22 L 117 4 L 88 0 L 55 17 L 32 37 L 6 76 L 0 98 L 3 120 L 9 133 L 38 159 L 59 170 L 114 185 L 157 193 L 191 192 L 197 183 L 193 175" fill="none" stroke="currentColor" stroke-width="8" stroke-linecap="round" stroke-linejoin="round"/>
  <path d="M 201 149 L 235 123 L 251 102 L 255 88" fill="none" stroke="currentColor" stroke-width="8" stroke-linecap="round" stroke-linejoin="round"/>
</svg>
