<svg viewBox="0 0 256 256" xmlns="http://www.w3.org/2000/svg" role="img" aria-label="snail">
  <path d="M 125 0 L 103 1 L 97 6 L 89 29 L 88 80 L 96 99 L 126 139 L 153 160 L 175 172 L 197 178 L 224 178 L 242 164 L 252 149 L 255 133 L 254 117 L 243 93 L 231 77 L 203 57 L 154 38 L 138 38 L 131 49 L 127 76 L 128 107 L 146 135 L 156 145 L 171 150 L 183 150 L 199 141 L 208 129 L 213 115 L 215 99 L 209 89 L 196 81 L 173 73 L 158 75 L 157 115 L 166 128 L 185 129 L 194 123 L 197 114 L 190 108 L 181 111" fill="none" stroke="currentColor" stroke-width="8" stroke-linecap="round" stroke-linejoin="round"/>
  <path d="M 107 126 L 66 125 L 26 128 L 20 123 L 16 99 L 8 92 L 0 94" fill="none" stroke="currentColor" stroke-width="8" stroke-linecap="round" stroke-linejoin="round"/>
</svg>
