<svg viewBox="0 0 256 256" xmlns="http://www.w3.org/2000/svg" role="img" aria-label="snail">
  <path d="M 17 121 L 6 116 L 1 106 L 0 69 L 8 49 L 28 17 L 42 6 L 61 0 L 76 1 L 102 11 L 130 42 L 136 55 L 136 71 L 129 82 L 115 94 L 104 101 L 93 100 L 74 94 L 67 82 L 66 61 L 77 56 L 82 55 L 83 58" fill="none" stroke="currentColor" stroke-width="8" stroke-linecap="round" stroke-linejoin="round"/>
  <path d="M 14 120 L 73 123 L 100 112 L 103 102" fill="none" stroke="currentColor" stroke-width="8" stroke-linecap="round" stroke-linejoin="round"/>
  <path d="M 134 76 L 140 86 L 155 96 L 193 102 L 220 100 L 227 93 L 230 46" fill="none" stroke="currentColor" stroke-width="8" stroke-linecap="round" stroke-linejoin="round"/>
  <path d="M 230 91 L 249 91 L 254 73 L 252 47" fill="none" stroke="currentColor" stroke-width="8" stroke-linecap="round" stroke-linejoin="round"/>
  <path d="M 250 92 L 254 109 L 228 123 L 195 135 L 125 140 L 103 135 L 94 125 L 88 122" fill="none" stroke="currentColor" stroke-width="8" stroke-linecap="round" stroke-linejoin="round"/>
</svg>
