<svg viewBox="0 0 256 256" xmlns="http://www.w3.org/2000/svg" role="img" aria-label="snail">
  <path d="M 193 50 L 185 47 L 160 48 L 152 64 L 152 73 L 170 99 L 178 105 L 195 107 L 204 103 L 222 58 L 227 11 L 220 2 L 175 0 L 150 10 L 130 35 L 128 43 L 127 102 L 130 110 L 148 135 L 157 140 L 181 145 L 200 140 L 229 111 L 247 85 L 253 68 L 255 36 L 240 17 L 228 12" fill="none" stroke="currentColor" stroke-width="8" stroke-linecap="round" stroke-linejoin="round"/>
  <path d="M 155 143 L 130 130 L 114 127 L 95 127 L 69 133 L 44 132 L 27 118 L 0 88" fill="none" stroke="currentColor" stroke-width="8" stroke-linecap="round" stroke-linejoin="round"/>
</svg>
