<svg viewBox="0 0 256 256" xmlns="http://www.w3.org/2000/svg" role="img" aria-label="snail">
  <path d="M 4 70 L 78 103 L 110 114 L 177 125 L 182 124 L 181 118" fill="none" stroke="currentColor" stroke-width="8" stroke-linecap="round" stroke-linejoin="round"/>
  <path d="M 0 72 L 27 97 L 49 113 L 66 121 L 121 134 L 176 140 L 207 140 L 216 137 L 214 133 L 192 128 L 186 123" fill="none" stroke="currentColor" stroke-width="8" stroke-linecap="round" stroke-linejoin="round"/>
  <path d="M 162 120 L 141 118 L 120 98 L 120 56 L 135 11 L 148 0 L 171 2 L 232 32 L 246 46 L 254 67 L 253 90 L 231 108 L 209 113 L 157 107 L 138 94 L 132 71 L 137 53 L 147 49 L 161 50 L 179 61 L 191 82 L 192 103 L 185 102 L 172 93 L 161 81 L 163 78 L 171 78 L 179 91" fill="none" stroke="currentColor" stroke-width="8" stroke-linecap="round" stroke-linejoin="round"/>
</svg>
