<svg viewBox="0 0 256 256" xmlns="http://www.w3.org/2000/svg" role="img" aria-label="snail">
  <path d="M 246 26 L 227 12 L 200 2 L 147 1 L 120 19 L 95 48 L 88 60 L 85 80 L 85 115 L 104 158 L 113 171 L 124 180 L 156 190 L 200 194 L 216 188 L 236 171 L 246 156 L 249 140 L 249 109 L 240 90 L 209 61 L 201 58 L 180 57 L 155 79 L 141 108 L 141 125 L 150 136 L 187 153 L 215 155 L 218 142 L 214 130 L 200 113 L 187 106" fill="none" stroke="currentColor" stroke-width="8" stroke-linecap="round" stroke-linejoin="round"/>
  <path d="M 245 20 L 254 52 L 253 117" fill="none" stroke="currentColor" stroke-width="8" stroke-linecap="round" stroke-linejoin="round"/>
  <path d="M 104 151 L 93 144 L 74 112 L 59 102 L 44 96 L 20 96 L 9 103 L 2 118 L 0 157 L 3 168 L 6 174 L 23 185 L 44 189 L 78 190 L 98 181 L 113 189 L 119 185 L 120 179" fill="none" stroke="currentColor" stroke-width="8" stroke-linecap="round" stroke-linejoin="round"/>
  <path d="M 65 102 L 65 46 L 79 20" fill="none" stroke="currentColor" stroke-width="8" stroke-linecap="round" stroke-linejoin="round"/>
  <path d="M 32 91 L 23 66 L 22 33" fill="none" stroke="currentColor" stroke-width="8" stroke-linecap="round" stroke-linejoin="round"/>
</svg>
