<svg viewBox="0 0 256 256" xmlns="http://www.w3.org/2000/svg" role="img" aria-label="snail">
  <path d="M 111 129 L 95 126 L 72 108 L 62 92 L 55 62 L 47 56 L 29 57 L 12 65 L 2 84 L 1 96 L 8 121 L 18 133 L 51 153 L 128 164 L 231 158 L 253 151 L 255 145 L 251 138 L 223 119 L 197 113 L 159 112 L 124 123 L 107 124" fill="none" stroke="currentColor" stroke-width="8" stroke-linecap="round" stroke-linejoin="round"/>
  <path d="M 53 59 L 53 48 L 75 37" fill="none" stroke="currentColor" stroke-width="8" stroke-linecap="round" stroke-linejoin="round"/>
  <path d="M 16 56 L 11 46 L 0 37" fill="none" stroke="currentColor" stroke-width="8" stroke-linecap="round" stroke-linejoin="round"/>
  <path d="M 65 90 L 66 79 L 80 53 L 111 17 L 144 1 L 167 0 L 178 4 L 192 22 L 206 52 L 208 69 L 197 84 L 169 103 L 136 110 L 125 109" fill="none" stroke="currentColor" stroke-width="8" stroke-linecap="round" stroke-linejoin="round"/>
</svg>
