<svg viewBox="0 0 256 256" xmlns="http://www.w3.org/2000/svg" role="img" aria-label="snail">
  <path d="M 87 99 L 91 122 L 111 138 L 140 145 L 182 146 L 195 143 L 218 135 L 243 109 L 253 87 L 254 64 L 238 38 L 215 20 L 188 14 L 146 14 L 127 25 L 111 42 L 98 65 L 96 82 L 106 99 L 125 114 L 143 120 L 176 121 L 192 113 L 206 98 L 211 87 L 212 73 L 211 66 L 194 47 L 177 45 L 156 52 L 148 63 L 150 73 L 160 85 L 177 85 L 184 81 L 185 74 L 168 74" fill="none" stroke="currentColor" stroke-width="8" stroke-linecap="round" stroke-linejoin="round"/>
  <path d="M 103 72 L 82 65 L 72 58 L 52 27 L 48 7 L 38 6 L 31 14 L 28 93 L 39 120 L 59 135 L 87 135 L 98 132" fill="none" stroke="currentColor" stroke-width="8" stroke-linecap="round" stroke-linejoin="round"/>
  <path d="M 53 34 L 1 0" fill="none" stroke="currentColor" stroke-width="8" stroke-linecap="round" stroke-linejoin="round"/>
  <path d="M 71 31 L 71 31" fill="none" stroke="currentColor" stroke-width="8" stroke-linecap="round" stroke-linejoin="round"/>
</svg>
