<?xml version="1.0" encoding="UTF-8"?>
<svg xmlns="http://www.w3.org/2000/svg" viewBox="0 0 256 256" fill="none" stroke="#9a8561" stroke-linecap="round" stroke-linejoin="round">
  <path d="M 128 94 Q 128 94 133.3 94.3 Q 138.5 94.5 142.3 98.2 Q 146.1 101.9 148.4 106.3 Q 150.7 110.6 152.7 115.3 Q 154.8 120 154.0 125.2 Q 153.2 130.4 149.4 134.0 Q 145.6 137.6 141.6 140.4 Q 137.6 143.1 132.8 145.2 Q 128 147.3 122.9 146.0 Q 117.8 144.6 114.2 141.0 Q 110.7 137.3 107.4 133.6 Q 104.2 129.9 102.3 124.9 Q 100.4 120 102.3 115.1 Q 104.1 110.1 107.4 106.4 Q 110.7 102.7 114.3 99.1 Q 117.8 95.5 122.9 94.0 Z" stroke-width="5" />
  <path d="M 194.2 120 L 220 120 M 174.8 166.8 L 193.1 185.1 M 128 186.2 L 128 212 M 81.2 166.8 L 62.9 185.1 M 61.8 120 L 36 120 M 81.2 73.2 L 62.9 54.9 M 128 53.8 L 128 28 M 174.8 73.2 L 193.1 54.9" stroke-width="5" />
</svg>
