<?xml version="1.0" encoding="UTF-8"?>
<svg xmlns="http://www.w3.org/2000/svg" viewBox="0 0 256 256" fill="none" stroke="#6b86a5" stroke-linecap="round" stroke-linejoin="round">
  <path d="M 116 94 Q 116 94 115.4 97.8 Q 114.8 101.7 113.1 104.7 Q 111.4 107.8 109.0 109.5 Q 106.5 111.2 103.8 111.2 Q 101.1 111.2 98.6 109.5 Q 96.2 107.8 94.5 104.7 Q 92.8 101.7 94.1 97.8 Q 95.5 94 95.9 91.5 Q 96.3 89 97.5 87.0 Q 98.6 85 100.3 83.8 Q 101.9 82.7 103.8 82.7 Q 105.7 82.7 107.3 83.8 Q 109 85 110.1 87.0 Q 111.3 89 111.7 91.5 Z" stroke-width="5" />
  <path d="M 140.2 127 Q 140.2 127 139.6 130.8 Q 139 134.7 137.3 137.7 Q 135.6 140.8 133.2 142.5 Q 130.7 144.2 128.0 144.2 Q 125.3 144.2 122.8 142.5 Q 120.4 140.8 118.7 137.7 Q 117 134.7 118.3 130.8 Q 119.7 127 120.1 124.5 Q 120.5 122 121.7 120.0 Q 122.8 118 124.5 116.8 Q 126.1 115.7 128.0 115.7 Q 129.9 115.7 131.5 116.8 Q 133.2 118 134.3 120.0 Q 135.5 122 135.9 124.5 Z" stroke-width="5" />
  <path d="M 164.4 106 Q 164.4 106 163.8 109.8 Q 163.2 113.7 161.5 116.7 Q 159.8 119.8 157.4 121.5 Q 154.9 123.2 152.2 123.2 Q 149.5 123.2 147.0 121.5 Q 144.6 119.8 142.9 116.7 Q 141.2 113.7 142.5 109.8 Q 143.9 106 144.3 103.5 Q 144.7 101 145.9 99.0 Q 147 97 148.7 95.8 Q 150.3 94.7 152.2 94.7 Q 154.1 94.7 155.7 95.8 Q 157.4 97 158.5 99.0 Q 159.7 101 160.1 103.5 Z" stroke-width="5" />
</svg>
