<?xml version="1.0" encoding="UTF-8"?>
<svg xmlns="http://www.w3.org/2000/svg" viewBox="0 0 256 256" fill="none" stroke="#6b86a5" stroke-linecap="round" stroke-linejoin="round">
  <path d="M 125.3 100 Q 125.3 100 124.7 103.6 Q 124.2 107.2 122.6 110.1 Q 121 113 118.7 114.6 Q 116.4 116.2 113.8 116.2 Q 111.2 116.2 108.9 114.6 Q 106.6 113 105.0 110.1 Q 103.4 107.2 104.7 103.6 Q 106 100 106.4 97.6 Q 106.7 95.3 107.8 93.4 Q 108.9 91.5 110.5 90.4 Q 112.1 89.4 113.8 89.4 Q 115.5 89.4 117.1 90.4 Q 118.7 91.5 119.8 93.4 Q 120.9 95.3 121.2 97.6 Z" stroke-width="5" />
  <path d="M 141 130 Q 141 130 140.3 134.1 Q 139.7 138.1 137.9 141.4 Q 136.1 144.6 133.5 146.4 Q 130.9 148.3 128.0 148.3 Q 125.1 148.3 122.5 146.4 Q 119.9 144.6 118.1 141.4 Q 116.3 138.1 117.8 134.1 Q 119.2 130 119.6 127.3 Q 120.1 124.7 121.3 122.6 Q 122.5 120.4 124.3 119.2 Q 126 118.1 128.0 118.1 Q 130 118.1 131.7 119.2 Q 133.5 120.4 134.7 122.6 Q 135.9 124.7 136.4 127.3 Z" stroke-width="5" />
  <path d="M 156.4 114 Q 156.4 114 155.8 117.8 Q 155.2 121.7 153.5 124.7 Q 151.8 127.8 149.4 129.5 Q 146.9 131.2 144.2 131.2 Q 141.5 131.2 139.0 129.5 Q 136.6 127.8 134.9 124.7 Q 133.2 121.7 134.5 117.8 Q 135.9 114 136.3 111.5 Q 136.7 109 137.9 107.0 Q 139 105 140.7 103.8 Q 142.3 102.7 144.2 102.7 Q 146.1 102.7 147.7 103.8 Q 149.4 105 150.5 107.0 Q 151.7 109 152.1 111.5 Z" stroke-width="5" />
</svg>
