<svg viewBox="0 0 256 256" xmlns="http://www.w3.org/2000/svg" role="img" aria-label="rain">
  <path d="M 5 50 L 6 38 L 11 31 L 47 17 L 59 18 L 69 23 L 89 37 L 93 44 L 100 30 L 127 11 L 168 19 L 173 33 L 183 19 L 216 0 L 223 1 L 238 10 L 254 36 L 254 51 L 244 59 L 219 68 L 169 63 L 158 58 L 141 41 L 129 63 L 119 73 L 103 79 L 77 82 L 35 51 L 27 64 L 13 67 L 2 58 L 0 46" fill="none" stroke="currentColor" stroke-width="8" stroke-linecap="round" stroke-linejoin="round"/>
  <path d="M 21 93 L 21 113 L 25 116 L 31 116 L 33 112 L 35 95 L 25 91 L 31 95" fill="none" stroke="currentColor" stroke-width="8" stroke-linecap="round" stroke-linejoin="round"/>
  <path d="M 116 92 L 116 112 L 121 117 L 133 107 L 135 92 L 129 88 L 121 90 L 121 92" fill="none" stroke="currentColor" stroke-width="8" stroke-linecap="round" stroke-linejoin="round"/>
  <path d="M 204 100 L 203 97 L 196 113 L 196 119 L 202 119 L 207 113 L 207 92" fill="none" stroke="currentColor" stroke-width="8" stroke-linecap="round" stroke-linejoin="round"/>
  <path d="M 189 147 L 179 159 L 177 171 L 181 171 L 189 155 L 191 147 L 184 145" fill="none" stroke="currentColor" stroke-width="8" stroke-linecap="round" stroke-linejoin="round"/>
</svg>
