<svg viewBox="0 0 256 256" xmlns="http://www.w3.org/2000/svg" role="img" aria-label="rain">
  <path d="M 62 22 L 100 4 L 132 0 L 143 4 L 148 16 L 155 20 L 192 22 L 202 32 L 208 54 L 199 102 L 185 120 L 160 133 L 130 126 L 68 130 L 51 125 L 19 94 L 7 79 L 1 58 L 0 36 L 11 22 L 27 12 L 70 7" fill="none" stroke="currentColor" stroke-width="8" stroke-linecap="round" stroke-linejoin="round"/>
  <path d="M 57 134 L 56 170 L 60 170 L 64 158 L 65 125 L 61 123 L 55 128 L 53 147 L 55 159 L 57 162 L 58 157 L 58 129 L 58 156 L 63 130 L 62 152" fill="none" stroke="currentColor" stroke-width="8" stroke-linecap="round" stroke-linejoin="round"/>
  <path d="M 120 163 L 129 168 L 133 194 L 128 199 L 122 193 L 121 171 L 127 164 L 130 169 L 130 184 L 126 192 L 120 193 L 119 178 L 126 161 L 128 158 L 129 163 L 120 187 L 122 171 L 129 160 L 131 178 L 126 192 L 123 185 L 125 169" fill="none" stroke="currentColor" stroke-width="8" stroke-linecap="round" stroke-linejoin="round"/>
  <path d="M 71 202 L 69 202 L 66 207 L 64 234 L 76 201 L 67 215 L 65 225 L 68 225 L 74 199 L 70 198 L 66 207 L 65 223 L 68 225 L 75 204 L 70 207 L 67 224" fill="none" stroke="currentColor" stroke-width="8" stroke-linecap="round" stroke-linejoin="round"/>
  <path d="M 125 243 L 130 236 L 134 240 L 134 247 L 127 255 L 124 248 L 127 238 L 133 235 L 134 239 L 127 253 L 129 238 L 132 236 L 132 246" fill="none" stroke="currentColor" stroke-width="8" stroke-linecap="round" stroke-linejoin="round"/>
</svg>
