<svg viewBox="0 0 256 256" xmlns="http://www.w3.org/2000/svg" role="img" aria-label="rain">
  <path d="M 88 31 L 98 28 L 128 27 L 202 37 L 238 49 L 244 56 L 254 76 L 253 86 L 209 131 L 200 138 L 181 144 L 161 143 L 132 125 L 93 118 L 52 117 L 24 105 L 10 85 L 8 73 L 24 42 L 36 27 L 60 12 L 92 1 L 105 0" fill="none" stroke="currentColor" stroke-width="8" stroke-linecap="round" stroke-linejoin="round"/>
  <path d="M 65 148 L 61 168" fill="none" stroke="currentColor" stroke-width="8" stroke-linecap="round" stroke-linejoin="round"/>
  <path d="M 79 150 L 76 180" fill="none" stroke="currentColor" stroke-width="8" stroke-linecap="round" stroke-linejoin="round"/>
  <path d="M 53 207 L 48 221" fill="none" stroke="currentColor" stroke-width="8" stroke-linecap="round" stroke-linejoin="round"/>
  <path d="M 42 186 L 39 181 L 26 206" fill="none" stroke="currentColor" stroke-width="8" stroke-linecap="round" stroke-linejoin="round"/>
  <path d="M 29 149 L 14 168" fill="none" stroke="currentColor" stroke-width="8" stroke-linecap="round" stroke-linejoin="round"/>
  <path d="M 0 212 L 0 216" fill="none" stroke="currentColor" stroke-width="8" stroke-linecap="round" stroke-linejoin="round"/>
</svg>
