<?xml version="1.0" encoding="UTF-8"?>
<svg xmlns="http://www.w3.org/2000/svg" viewBox="0 0 256 256" fill="none" stroke="#5f836a" stroke-linecap="round" stroke-linejoin="round">
  <path d="M 118 108 Q 118 108 122.5 108.0 Q 127.1 108.1 130.2 111.4 Q 133.2 114.8 135.0 118.5 Q 136.8 122.2 138.8 126.1 Q 140.9 130 140.2 134.5 Q 139.6 139 136.2 141.8 Q 132.7 144.7 129.3 147.0 Q 126 149.3 122.0 151.4 Q 118 153.5 113.7 152.2 Q 109.3 151 106.5 147.7 Q 103.6 144.4 100.8 141.3 Q 97.9 138.3 96.1 134.2 Q 94.2 130 96.0 125.8 Q 97.9 121.7 100.8 118.7 Q 103.7 115.7 106.5 112.4 Q 109.3 109.1 113.7 107.8 Z" stroke-width="5" />
  <path d="M 144 116 Q 144 116 146.1 115.8 Q 148.3 115.7 149.6 117.4 Q 150.9 119.1 151.5 120.9 Q 152.2 122.6 153.4 124.3 Q 154.6 126 154.4 128.1 Q 154.1 130.2 152.3 131.3 Q 150.5 132.5 149.0 133.5 Q 147.5 134.6 145.8 135.8 Q 144 137 142.0 136.4 Q 140 135.7 138.9 134.0 Q 137.7 132.3 136.3 131.0 Q 134.9 129.8 133.9 127.9 Q 132.8 126 133.8 124.1 Q 134.9 122.2 136.3 121.0 Q 137.8 119.8 138.9 118.1 Q 140 116.4 142.0 115.7 Z" stroke-width="5" />
  <path d="M 132 137 Q 132 137 133.5 136.8 Q 135.1 136.6 135.9 137.9 Q 136.8 139.2 137.2 140.4 Q 137.6 141.7 138.6 142.8 Q 139.5 144 139.3 145.5 Q 139.2 147 137.8 147.7 Q 136.5 148.5 135.5 149.2 Q 134.4 149.9 133.2 150.9 Q 132 151.8 130.6 151.3 Q 129.2 150.8 128.4 149.6 Q 127.7 148.3 126.7 147.5 Q 125.7 146.6 124.8 145.3 Q 124 144 124.8 142.7 Q 125.6 141.4 126.7 140.5 Q 127.7 139.7 128.5 138.5 Q 129.2 137.2 130.6 136.7 Z" stroke-width="5" />
</svg>
