<?xml version="1.0" encoding="UTF-8"?>
<svg xmlns="http://www.w3.org/2000/svg" viewBox="0 0 256 256" fill="none" stroke="#5f836a" stroke-linecap="round" stroke-linejoin="round">
  <path d="M 121 104 Q 121 104 126.0 104.0 Q 130.9 104.1 134.3 107.7 Q 137.6 111.4 139.6 115.4 Q 141.5 119.5 143.7 123.7 Q 145.9 128 145.3 132.9 Q 144.6 137.8 140.8 140.9 Q 137 144 133.4 146.5 Q 129.7 149.1 125.4 151.4 Q 121 153.6 116.3 152.3 Q 111.5 150.9 108.4 147.3 Q 105.3 143.7 102.2 140.4 Q 99.1 137.1 97.1 132.5 Q 95.1 128 97.0 123.4 Q 99 118.9 102.2 115.6 Q 105.3 112.3 108.5 108.8 Q 111.6 105.2 116.3 103.8 Z" stroke-width="5" />
  <path d="M 142 117 Q 142 117 144.4 116.8 Q 146.7 116.6 148.1 118.5 Q 149.5 120.5 150.3 122.4 Q 151 124.3 152.3 126.1 Q 153.7 128 153.4 130.3 Q 153.1 132.6 151.1 133.9 Q 149.1 135.1 147.5 136.3 Q 145.9 137.4 143.9 138.8 Q 142 140.1 139.8 139.4 Q 137.6 138.6 136.4 136.8 Q 135.1 134.9 133.6 133.5 Q 132 132.1 130.8 130.1 Q 129.7 128 130.8 125.9 Q 132 123.8 133.5 122.5 Q 135.1 121.1 136.4 119.3 Q 137.6 117.4 139.8 116.6 Z" stroke-width="5" />
  <path d="M 132 136 Q 132 136 133.7 135.8 Q 135.5 135.6 136.5 137.1 Q 137.5 138.5 137.9 139.9 Q 138.4 141.3 139.5 142.7 Q 140.6 144 140.4 145.7 Q 140.2 147.4 138.7 148.3 Q 137.1 149.1 135.9 149.9 Q 134.8 150.8 133.4 151.9 Q 132 153 130.4 152.4 Q 128.8 151.8 127.9 150.3 Q 127.1 148.9 125.9 147.9 Q 124.8 147 123.8 145.5 Q 122.9 144 123.8 142.5 Q 124.7 141 125.9 140.0 Q 127.1 139.1 127.9 137.7 Q 128.8 136.2 130.4 135.6 Z" stroke-width="5" />
</svg>
