<svg viewBox="0 0 256 256" xmlns="http://www.w3.org/2000/svg" role="img" aria-label="garden">
  <path d="M 0 95 L 34 70 L 43 90 L 55 82 L 71 78 L 80 81 L 92 90 L 105 80 L 115 78 L 127 90 L 135 93 L 160 75 L 174 82 L 197 76 L 206 86 L 231 74 L 244 86 L 252 85" fill="none" stroke="currentColor" stroke-width="8" stroke-linecap="round" stroke-linejoin="round"/>
  <path d="M 31 30 L 39 35 L 40 46 L 37 58 L 24 78" fill="none" stroke="currentColor" stroke-width="8" stroke-linecap="round" stroke-linejoin="round"/>
  <path d="M 51 35 L 44 69 L 46 85 L 50 92 L 50 85" fill="none" stroke="currentColor" stroke-width="8" stroke-linecap="round" stroke-linejoin="round"/>
  <path d="M 35 49 L 14 33 L 10 24 L 12 13 L 16 10 L 42 22 L 40 1 L 54 2 L 68 9 L 83 26 L 86 32 L 86 46 L 84 52 L 66 56 L 66 61 L 44 60 L 45 54 L 53 54" fill="none" stroke="currentColor" stroke-width="8" stroke-linecap="round" stroke-linejoin="round"/>
  <path d="M 95 67 L 97 66 L 107 74 L 108 86" fill="none" stroke="currentColor" stroke-width="8" stroke-linecap="round" stroke-linejoin="round"/>
  <path d="M 135 67 L 129 67 L 123 78 L 122 88 L 125 95" fill="none" stroke="currentColor" stroke-width="8" stroke-linecap="round" stroke-linejoin="round"/>
  <path d="M 98 77 L 86 72 L 83 61 L 86 56 L 103 53 L 108 58 L 107 73 L 110 70" fill="none" stroke="currentColor" stroke-width="8" stroke-linecap="round" stroke-linejoin="round"/>
  <path d="M 122 73 L 119 64 L 146 49 L 153 57 L 151 71 L 144 75 L 131 76" fill="none" stroke="currentColor" stroke-width="8" stroke-linecap="round" stroke-linejoin="round"/>
</svg>
