<svg viewBox="0 0 256 256" xmlns="http://www.w3.org/2000/svg" role="img" aria-label="garden">
  <path d="M 0 213 L 4 205 L 1 241 L 9 219 L 21 208 L 19 239 L 48 200 L 48 208 L 31 255 L 43 233 L 66 207 L 69 216 L 63 237 L 92 205 L 101 199 L 111 199 L 111 209 L 105 237 L 135 204 L 144 199 L 142 212 L 126 247 L 156 209 L 173 196 L 176 206 L 165 238 L 184 217 L 194 210 L 196 218 L 185 243" fill="none" stroke="currentColor" stroke-width="8" stroke-linecap="round" stroke-linejoin="round"/>
  <path d="M 63 223 L 74 183 L 75 148 L 73 101 L 63 75" fill="none" stroke="currentColor" stroke-width="8" stroke-linecap="round" stroke-linejoin="round"/>
  <path d="M 63 84 L 43 96 L 30 98 L 22 97 L 18 89 L 19 67 L 22 60 L 37 41 L 53 30 L 70 26 L 82 27 L 92 46 L 93 66 L 90 72 L 78 81 L 50 90" fill="none" stroke="currentColor" stroke-width="8" stroke-linecap="round" stroke-linejoin="round"/>
  <path d="M 63 88 L 70 96 L 80 99 L 92 99 L 109 89 L 116 77 L 114 68 L 99 61 L 87 61 L 95 61 L 113 52 L 122 42 L 125 29 L 122 16 L 109 8 L 94 8 L 86 14 L 80 24 L 78 7 L 67 0 L 52 1 L 41 10 L 33 24 L 32 37 L 7 57 L 2 76 L 2 105 L 8 108 L 13 105 L 17 122 L 32 129 L 54 129 L 70 116 L 73 98 L 65 88" fill="none" stroke="currentColor" stroke-width="8" stroke-linecap="round" stroke-linejoin="round"/>
</svg>
