<svg viewBox="0 0 256 256" xmlns="http://www.w3.org/2000/svg" role="img" aria-label="garden">
  <path d="M 7 79 L 125 77 L 255 79" fill="none" stroke="currentColor" stroke-width="8" stroke-linecap="round" stroke-linejoin="round"/>
  <path d="M 27 77 L 28 38" fill="none" stroke="currentColor" stroke-width="8" stroke-linecap="round" stroke-linejoin="round"/>
  <path d="M 28 39 L 18 28 L 18 22 L 25 18 L 32 20 L 37 37 L 35 43 L 33 43" fill="none" stroke="currentColor" stroke-width="8" stroke-linecap="round" stroke-linejoin="round"/>
  <path d="M 34 18 L 47 14 L 54 27 L 54 35 L 44 40 L 43 52 L 36 55 L 27 54 L 22 39 L 10 45 L 2 44 L 1 41 L 2 24 L 15 25 L 7 14 L 8 4 L 13 1 L 26 0 L 35 6 L 38 28" fill="none" stroke="currentColor" stroke-width="8" stroke-linecap="round" stroke-linejoin="round"/>
</svg>
