<svg viewBox="0 0 256 256" xmlns="http://www.w3.org/2000/svg" role="img" aria-label="garden">
  <path d="M 48 198 L 23 169 L 0 125 L 8 123 L 34 124 L 48 128 L 69 114 L 81 108 L 86 109 L 79 130 L 84 138 L 118 151 L 95 191 L 56 191" fill="none" stroke="currentColor" stroke-width="8" stroke-linecap="round" stroke-linejoin="round"/>
  <path d="M 165 217 L 155 175 L 149 121 L 155 77" fill="none" stroke="currentColor" stroke-width="8" stroke-linecap="round" stroke-linejoin="round"/>
  <path d="M 194 87 L 193 141 L 199 193 L 186 210 L 175 217 L 166 217" fill="none" stroke="currentColor" stroke-width="8" stroke-linecap="round" stroke-linejoin="round"/>
  <path d="M 150 86 L 191 87" fill="none" stroke="currentColor" stroke-width="8" stroke-linecap="round" stroke-linejoin="round"/>
  <path d="M 41 28 L 83 19 L 163 20 L 46 37 L 43 36 L 60 24 L 113 11 L 194 15 L 178 66 L 181 85 L 188 89 L 212 93 L 236 91 L 245 89 L 234 75 L 223 67 L 210 63 L 192 62 L 183 67 L 199 72 L 244 65 L 253 57 L 255 52 L 247 41 L 227 24 L 219 11 L 227 20 L 232 41 L 222 65 L 211 74 L 192 81 L 181 69 L 180 41 L 187 23 L 208 13 L 217 15 L 220 25 L 211 64 L 212 79 L 179 90 L 130 90 L 121 56 L 105 34 L 83 21 L 88 13 L 111 1 L 127 1 L 136 8 L 134 21 L 127 30 L 98 58 L 120 11" fill="none" stroke="currentColor" stroke-width="8" stroke-linecap="round" stroke-linejoin="round"/>
</svg>
