<svg viewBox="0 0 256 256" xmlns="http://www.w3.org/2000/svg" role="img" aria-label="garden">
  <path d="M 0 86 L 14 70 L 31 57 L 36 58 L 51 77 L 64 83 L 72 81 L 92 60 L 98 65 L 103 81 L 118 66" fill="none" stroke="currentColor" stroke-width="8" stroke-linecap="round" stroke-linejoin="round"/>
  <path d="M 118 66 L 131 81 L 143 68 L 154 62 L 165 79 L 171 77 L 182 66 L 182 79" fill="none" stroke="currentColor" stroke-width="8" stroke-linecap="round" stroke-linejoin="round"/>
  <path d="M 182 79 L 185 68 L 193 65 L 200 67 L 204 46 L 208 40 L 207 70" fill="none" stroke="currentColor" stroke-width="8" stroke-linecap="round" stroke-linejoin="round"/>
  <path d="M 207 70 L 226 68 L 227 74 L 211 83 L 199 85" fill="none" stroke="currentColor" stroke-width="8" stroke-linecap="round" stroke-linejoin="round"/>
  <path d="M 204 48 L 208 48" fill="none" stroke="currentColor" stroke-width="8" stroke-linecap="round" stroke-linejoin="round"/>
  <path d="M 208 41 L 207 44" fill="none" stroke="currentColor" stroke-width="8" stroke-linecap="round" stroke-linejoin="round"/>
  <path d="M 229 86 L 236 64 L 244 79 L 255 63" fill="none" stroke="currentColor" stroke-width="8" stroke-linecap="round" stroke-linejoin="round"/>
  <path d="M 81 14 L 62 53 L 57 80 L 50 50 L 54 82 L 74 63 L 61 77" fill="none" stroke="currentColor" stroke-width="8" stroke-linecap="round" stroke-linejoin="round"/>
  <path d="M 82 17 L 74 0 L 71 13 L 82 24 L 85 13 L 98 9 L 92 19 L 76 22 L 88 29 L 70 19 L 82 16 L 85 17 L 82 18 L 57 19 L 70 23 L 77 18" fill="none" stroke="currentColor" stroke-width="8" stroke-linecap="round" stroke-linejoin="round"/>
</svg>
