<svg viewBox="0 0 256 256" xmlns="http://www.w3.org/2000/svg" role="img" aria-label="garden">
  <path d="M 0 55 L 21 43 L 25 47 L 39 40 L 41 45 L 54 39 L 59 45 L 99 36 L 97 41 L 115 36 L 114 48 L 117 48 L 137 41 L 142 40 L 142 44 L 168 35 L 170 42 L 201 37 L 198 45 L 204 40 L 220 37 L 218 47 L 222 41 L 228 38 L 255 35 L 254 42" fill="none" stroke="currentColor" stroke-width="8" stroke-linecap="round" stroke-linejoin="round"/>
  <path d="M 152 40 L 157 35 L 162 22" fill="none" stroke="currentColor" stroke-width="8" stroke-linecap="round" stroke-linejoin="round"/>
  <path d="M 161 33 L 167 20" fill="none" stroke="currentColor" stroke-width="8" stroke-linecap="round" stroke-linejoin="round"/>
  <path d="M 166 21 L 162 20 L 161 15 L 167 12 L 166 19" fill="none" stroke="currentColor" stroke-width="8" stroke-linecap="round" stroke-linejoin="round"/>
  <path d="M 166 19 L 171 20 L 174 16 L 172 15 L 174 6 L 169 9 L 164 0 L 162 8 L 154 6 L 150 10 L 156 14 L 154 21 L 158 21" fill="none" stroke="currentColor" stroke-width="8" stroke-linecap="round" stroke-linejoin="round"/>
</svg>
