<svg viewBox="0 0 256 256" xmlns="http://www.w3.org/2000/svg" role="img" aria-label="garden">
  <path d="M 0 253 L 13 215 L 39 159" fill="none" stroke="currentColor" stroke-width="8" stroke-linecap="round" stroke-linejoin="round"/>
  <path d="M 63 246 L 74 202 L 93 161" fill="none" stroke="currentColor" stroke-width="8" stroke-linecap="round" stroke-linejoin="round"/>
  <path d="M 137 228 L 151 187 L 165 157" fill="none" stroke="currentColor" stroke-width="8" stroke-linecap="round" stroke-linejoin="round"/>
  <path d="M 159 230 L 177 220 L 202 188" fill="none" stroke="currentColor" stroke-width="8" stroke-linecap="round" stroke-linejoin="round"/>
  <path d="M 219 248 L 228 235 L 255 181" fill="none" stroke="currentColor" stroke-width="8" stroke-linecap="round" stroke-linejoin="round"/>
  <path d="M 119 177 L 130 119 L 133 118" fill="none" stroke="currentColor" stroke-width="8" stroke-linecap="round" stroke-linejoin="round"/>
  <path d="M 117 141 L 109 138 L 102 150 L 97 168 L 130 170" fill="none" stroke="currentColor" stroke-width="8" stroke-linecap="round" stroke-linejoin="round"/>
  <path d="M 128 147 L 142 140 L 165 138 L 162 148 L 148 165 L 138 171 L 128 171" fill="none" stroke="currentColor" stroke-width="8" stroke-linecap="round" stroke-linejoin="round"/>
  <path d="M 148 94 L 145 85" fill="none" stroke="currentColor" stroke-width="8" stroke-linecap="round" stroke-linejoin="round"/>
  <path d="M 146 82 L 146 72 L 131 68 L 110 70 L 96 80 L 93 94 L 96 106 L 117 122 L 140 122 L 154 108 L 162 90 L 162 71 L 148 62 L 129 61 L 115 64 L 108 72" fill="none" stroke="currentColor" stroke-width="8" stroke-linecap="round" stroke-linejoin="round"/>
  <path d="M 148 118 L 148 122 L 152 126 L 170 128 L 185 111 L 189 100 L 170 97 L 195 92 L 211 82 L 217 70 L 215 57 L 201 44 L 189 40 L 165 39 L 169 19 L 167 6 L 156 0 L 135 0 L 129 3 L 119 11 L 111 24 L 111 36 L 116 37 L 120 35 L 122 26 L 115 19 L 79 17 L 63 27 L 58 39" fill="none" stroke="currentColor" stroke-width="8" stroke-linecap="round" stroke-linejoin="round"/>
</svg>
