<svg viewBox="0 0 256 256" xmlns="http://www.w3.org/2000/svg" role="img" aria-label="garden">
  <path d="M 42 24 L 42 24" fill="none" stroke="currentColor" stroke-width="8" stroke-linecap="round" stroke-linejoin="round"/>
  <path d="M 49 101 L 46 73 L 36 72 L 33 61 L 40 54 L 47 60 L 57 56 L 55 62 L 46 69" fill="none" stroke="currentColor" stroke-width="8" stroke-linecap="round" stroke-linejoin="round"/>
  <path d="M 90 79 L 93 107" fill="none" stroke="currentColor" stroke-width="8" stroke-linecap="round" stroke-linejoin="round"/>
  <path d="M 87 77 L 78 70 L 75 74 L 72 46 L 82 50 L 88 47 L 92 67 L 94 70 L 95 68 L 86 76" fill="none" stroke="currentColor" stroke-width="8" stroke-linecap="round" stroke-linejoin="round"/>
  <path d="M 254 64 L 251 66" fill="none" stroke="currentColor" stroke-width="8" stroke-linecap="round" stroke-linejoin="round"/>
  <path d="M 255 58 L 244 63 L 213 66 L 188 58 L 179 58 L 166 65 L 156 78 L 150 80 L 139 79 L 125 66 L 115 77 L 105 82 L 50 86 L 26 78 L 0 81" fill="none" stroke="currentColor" stroke-width="8" stroke-linecap="round" stroke-linejoin="round"/>
  <path d="M 188 87 L 173 41" fill="none" stroke="currentColor" stroke-width="8" stroke-linecap="round" stroke-linejoin="round"/>
  <path d="M 172 42 L 171 39 L 161 46 L 155 46 L 150 39 L 146 23 L 149 22 L 154 2 L 164 1 L 174 15 L 178 9 L 182 9 L 182 36 L 168 45" fill="none" stroke="currentColor" stroke-width="8" stroke-linecap="round" stroke-linejoin="round"/>
</svg>
