<?xml version="1.0" encoding="UTF-8"?>
<svg xmlns="http://www.w3.org/2000/svg" viewBox="0 0 256 256" fill="none" stroke="#6487a4" stroke-linecap="round" stroke-linejoin="round">
  <path d="M 44 148.1 Q 44 148.1 50.0 147.5 Q 56 146.9 62.0 139.8 Q 68 132.7 74.0 125.3 Q 80 118 86.0 116.6 Q 92 115.3 98.0 121.0 Q 104 126.8 110.0 134.7 Q 116 142.7 122.0 145.8 Q 128 149 134.0 144.3 Q 140 139.7 146.0 130.6 Q 152 121.5 158.0 115.0 Q 164 108.6 170.0 109.9 Q 176 111.3 182.0 119.3 Q 188 127.3 194.0 135.6 Q 200 143.9 206.0 146.0" stroke-width="5" />
  <path d="M 60 148 Q 60 148 64.9 144.8 Q 69.7 141.5 74.6 143.2 Q 79.4 144.9 84.3 150.6 Q 89.1 156.3 94.0 161.8 Q 98.9 167.3 103.7 168.5 Q 108.6 169.6 113.4 165.5 Q 118.3 161.3 123.1 154.7 Q 128 148 132.9 143.7 Q 137.7 139.3 142.6 140.1 Q 147.4 141 152.3 146.2 Q 157.1 151.4 162.0 156.9 Q 166.9 162.4 171.7 164.1 Q 176.6 165.7 181.4 162.4 Q 186.3 159.1 191.1 153.6" stroke-width="5" />
</svg>
